<svg width="446" height="468" viewBox="0 0 446 468" fill="none" xmlns="http://www.w3.org/2000/svg">
<path d="M227.131 200.647C233.665 196.875 235.903 188.521 232.131 181.988C228.36 175.455 220.006 173.216 213.472 176.988C206.939 180.761 204.7 189.114 208.472 195.647C212.244 202.18 220.598 204.419 227.131 200.647Z" fill="black"/>
<path d="M156.922 305.818C163.449 302.05 165.686 293.704 161.918 287.177C158.149 280.65 149.803 278.414 143.276 282.182C136.748 285.951 134.512 294.297 138.28 300.824C142.049 307.351 150.395 309.587 156.922 305.818Z" fill="#FFD01F"/>
<path d="M50.552 154.337C54.472 152.074 55.8152 147.062 53.5521 143.142C51.289 139.222 46.2766 137.879 42.3566 140.142C38.4366 142.406 37.0934 147.418 39.3565 151.338C41.6196 155.257 46.632 156.6 50.552 154.337Z" fill="#FFAD33"/>
<path d="M294.97 60.1141C305.253 54.177 308.777 41.0278 302.84 30.7445C296.903 20.4613 283.753 16.9379 273.47 22.875C263.187 28.8121 259.664 41.9613 265.601 52.2445C271.538 62.5278 284.687 66.0512 294.97 60.1141Z" fill="#FFD01F"/>
<path d="M299.293 330.292C303.213 328.029 304.556 323.017 302.293 319.097C300.03 315.177 295.018 313.834 291.098 316.097C287.178 318.361 285.835 323.373 288.098 327.293C290.361 331.213 295.373 332.555 299.293 330.292Z" fill="black"/>
<path d="M78.382 393.777C80.342 392.645 81.0136 390.139 79.882 388.179C78.7505 386.219 76.2443 385.548 74.2843 386.68C72.3242 387.811 71.6527 390.317 72.7842 392.277C73.9158 394.237 76.4219 394.909 78.382 393.777Z" fill="#C87C00"/>
<path d="M138.97 455.005C140.93 453.874 141.601 451.368 140.47 449.408C139.338 447.448 136.832 446.776 134.872 447.908C132.912 449.04 132.241 451.546 133.372 453.506C134.504 455.466 137.01 456.137 138.97 455.005Z" fill="black"/>
</svg>
