<svg width="490" height="375" viewBox="0 0 490 375" fill="none" xmlns="http://www.w3.org/2000/svg">
<path d="M560.049 0C560.051 24.7529 555.178 49.2637 545.707 72.1332C536.233 95.0022 522.348 115.781 504.844 133.285C487.338 150.791 466.555 164.678 443.682 174.152C420.811 183.623 396.299 188.496 371.545 188.494C346.791 188.496 322.279 183.623 299.408 174.152C276.538 164.679 255.758 150.795 238.254 133.291C220.746 115.787 206.858 95.0052 197.384 72.1332C187.913 49.2637 183.039 24.7529 183.041 0L252.602 0C252.602 15.6192 255.678 31.0856 261.655 45.5159C267.633 59.9463 276.394 73.0581 287.44 84.1026C298.485 95.1471 311.597 103.908 326.028 109.885C340.459 115.862 355.926 118.938 371.545 118.937C387.165 118.937 402.632 115.861 417.063 109.884C431.495 103.907 444.607 95.1458 455.652 84.1012C466.697 73.0567 475.459 59.9449 481.436 45.5145C487.413 31.0845 490.489 15.6187 490.489 0H560.049Z" fill="#FFD01F"/>
<path d="M743.089 2.73242C743.091 51.5214 733.483 99.833 714.813 144.909C696.141 189.984 668.774 230.941 634.273 265.44C599.77 299.943 558.809 327.311 513.728 345.983C468.65 364.652 420.336 374.259 371.544 374.257C322.753 374.259 274.439 364.652 229.36 345.983C184.283 327.312 143.324 299.946 108.823 265.447C74.3187 230.946 46.9487 189.987 28.2756 144.909C9.60598 99.833 -0.00208325 51.5214 3.38811e-07 2.73242L137.105 2.73242C137.105 33.5177 143.169 64.0015 154.95 92.4434C166.73 120.885 183.997 146.728 205.765 168.497C227.535 190.263 253.379 207.529 281.822 219.308C310.267 231.092 340.755 237.158 371.544 237.159C402.331 237.159 432.817 231.096 461.26 219.315C489.703 207.536 515.547 190.27 537.317 168.504C559.085 146.735 576.352 120.892 588.132 92.4502C599.916 64.0066 605.982 33.5204 605.983 2.73242L743.089 2.73242Z" fill="#FFD01F"/>
</svg>
