<svg width="218" height="140" viewBox="0 0 218 140" fill="none" xmlns="http://www.w3.org/2000/svg">
<mask id="mask0_783_2427" style="mask-type:luminance" maskUnits="userSpaceOnUse" x="9" y="27" width="111" height="66">
<path d="M9.60352 27.7793H119.596V92.5979H9.60352V27.7793Z" fill="white"/>
</mask>
<g mask="url(#mask0_783_2427)">
<path d="M64.5903 43.2462L112.167 92.5933L119.577 84.8961L64.5903 27.8711L9.60352 84.8961L17.0322 92.5933L64.5903 43.2462Z" fill="#031937"/>
</g>
<mask id="mask1_783_2427" style="mask-type:luminance" maskUnits="userSpaceOnUse" x="104" y="27" width="111" height="66">
<path d="M104.903 27.7793H214.877V92.5979H104.903V27.7793Z" fill="white"/>
</mask>
<g mask="url(#mask1_783_2427)">
<path d="M159.89 43.2462L207.467 92.5933L214.877 84.8961L159.89 27.8711L104.903 84.8961L112.332 92.5933L159.89 43.2462Z" fill="#031937"/>
</g>
<mask id="mask2_783_2427" style="mask-type:luminance" maskUnits="userSpaceOnUse" x="66" y="0" width="119" height="73">
<path d="M66.0645 0H184.038V72.2265H66.0645V0Z" fill="white"/>
</mask>
<g mask="url(#mask2_783_2427)">
<path d="M111.319 71.4956L181.789 0.0214844L113.494 47.4587L67.1338 24.695L111.319 71.4956Z" fill="#8B8B8B"/>
</g>
<path d="M62.8201 74.3163H54.4697V71.7699C54.4697 68.3939 57.1057 65.6738 60.3684 65.6738H62.8201V74.3163Z" fill="#8B8B8B"/>
<path d="M74.7079 74.3163H66.376V65.6738H68.8276C72.0719 65.6738 74.7079 68.3939 74.7079 71.7699V74.3163Z" fill="#8B8B8B"/>
<path d="M62.8201 86.5624H54.4697V77.9199H62.8201V86.5624Z" fill="#8B8B8B"/>
<path d="M74.7079 86.5624H66.376V77.9199H74.7079V86.5624Z" fill="#8B8B8B"/>
<path d="M157.697 74.3163H149.365V71.7699C149.365 68.3939 152.001 65.6738 155.245 65.6738H157.697V74.3163Z" fill="#8B8B8B"/>
<path d="M169.604 74.3163H161.254V65.6738H163.706C166.968 65.6738 169.604 68.3939 169.604 71.7699V74.3163Z" fill="#8B8B8B"/>
<path d="M157.697 86.5624H149.365V77.9199H157.697V86.5624Z" fill="#8B8B8B"/>
<path d="M169.604 86.5624H161.254V77.9199H169.604V86.5624Z" fill="#8B8B8B"/>
<path d="M40.7364 65.669H31.3906V46.127H40.7364V65.669Z" fill="#031937"/>
<path d="M181.788 50.9112H172.461V31.3691H181.788V50.9112Z" fill="#031937"/>
<mask id="mask3_783_2427" style="mask-type:luminance" maskUnits="userSpaceOnUse" x="21" y="47" width="87" height="46">
<path d="M21.252 47.5547H107.963V92.5998H21.252V47.5547Z" fill="white"/>
</mask>
<g mask="url(#mask3_783_2427)">
<path d="M64.5882 47.6953L21.3066 92.6054L64.5882 52.6725L107.87 92.6054L64.5882 47.6953Z" fill="#D3D2D2"/>
</g>
<path d="M159.89 46.127L116.608 91.0177L159.89 51.1041L203.172 91.0177L159.89 46.127Z" fill="#D3D2D2"/>
<path d="M8.76758 138.688L14.8137 124.258H15.1087L21.1548 138.688H18.9428L17.3944 134.829H11.3483L9.87358 138.688H8.76758ZM11.6432 134.058H17.0995L14.3713 127.113L11.6432 134.058Z" fill="black"/>
<path d="M25.4869 124.105V138.69H23.791V124.105H25.4869Z" fill="black"/>
<path d="M31.1314 124.105V138.69H29.4355V124.105H31.1314Z" fill="black"/>
<path d="M55.7258 124.561H56.6843L51.6704 138.99H51.3755L48.2049 130.271L45.1819 138.99H44.8869L39.7256 124.561H41.9376L45.4768 136.135L47.7625 129.036L46.2141 124.561H48.4261L51.9654 136.135L55.7258 124.561Z" fill="black"/>
<path d="M59.3726 138.686V129.04H61.0684V138.686H59.3726ZM59.1514 126.108C59.1514 125.799 59.2435 125.548 59.4463 125.336C59.6306 125.143 59.8887 125.027 60.1836 125.027C60.4786 125.027 60.7182 125.143 60.921 125.336C61.1053 125.548 61.2159 125.799 61.2159 126.108C61.2159 126.378 61.1053 126.629 60.921 126.879C60.7182 127.092 60.4786 127.188 60.1836 127.188C59.8887 127.188 59.6306 127.092 59.4463 126.879C59.2435 126.686 59.1514 126.416 59.1514 126.108Z" fill="black"/>
<path d="M66.7672 130.433C67.3018 129.874 67.7995 129.468 68.2419 129.198C68.6843 128.948 69.1635 128.812 69.7165 128.812C70.3064 128.812 70.841 129.083 71.3387 129.584C71.8733 130.047 72.1498 130.877 72.1498 132.053V138.69H70.3801V132.208C70.3801 131.552 70.2511 131.031 70.0115 130.664C69.7534 130.317 69.3479 130.124 68.758 130.124C68.205 130.124 67.5783 130.549 66.8409 131.359V138.69H65.0713V131.976C65.0713 131.05 64.7211 130.279 64.0391 129.661L65.0713 128.89L66.7672 130.433Z" fill="black"/>
<path d="M83.141 135.835C83.141 136.818 83.4728 137.59 84.1732 138.15L83.141 138.998L81.4451 137.378C80.8921 137.957 80.4128 138.362 79.9704 138.612C79.5649 138.805 79.1225 138.921 78.6432 138.921C78.2008 138.921 77.7953 138.844 77.4635 138.69C77.1132 138.593 76.7446 138.381 76.3575 138.072C75.9519 137.725 75.6386 137.185 75.3989 136.452C75.1409 135.738 75.0303 134.812 75.0303 133.674C75.0303 132.555 75.3436 131.475 75.9888 130.433C76.6155 129.353 77.5003 128.813 78.6432 128.813C79.4727 128.813 80.4128 129.16 81.4451 129.816V124.105H83.141V135.835ZM81.4451 136.529V130.587C80.7078 130.086 80.0442 129.816 79.4543 129.816C78.6617 129.816 78.0165 130.24 77.5372 131.05C77.0395 131.822 76.7999 132.806 76.7999 133.983C76.7999 135.121 76.9658 136.047 77.316 136.761C77.7031 137.436 78.1455 137.841 78.6432 137.995C79.1225 137.957 79.6018 137.822 80.0442 137.609C80.4866 137.416 80.8184 137.204 81.0764 136.992C81.3161 136.799 81.4451 136.645 81.4451 136.529Z" fill="black"/>
<path d="M91.0378 128.812C92.2175 128.812 93.1945 129.256 93.9871 130.124C94.7613 130.954 95.1669 132.111 95.1669 133.597C95.1669 134.581 94.9826 135.429 94.6507 136.143C94.3558 136.876 93.9503 137.416 93.471 137.764C92.4756 138.535 91.4065 138.921 90.2267 138.921C89.047 138.921 88.0516 138.516 87.2774 137.686C86.4848 136.818 86.0977 135.642 86.0977 134.137C86.0977 133.211 86.2451 132.401 86.5401 131.668C86.8719 130.954 87.2958 130.394 87.7935 129.97C88.7705 129.198 89.8581 128.812 91.0378 128.812ZM90.5954 138.227C91.2221 138.227 91.7383 137.995 92.1438 137.532C92.918 136.664 93.3235 135.526 93.3235 134.137C93.3235 132.709 93.0655 131.59 92.5862 130.819C92.1438 130.009 91.4065 129.584 90.3742 129.584C89.5816 129.893 88.9917 130.472 88.6046 131.282C88.1991 132.053 88.0147 133.018 88.0147 134.137C88.0147 135.217 88.1991 136.182 88.6046 136.992C89.047 137.822 89.7106 138.227 90.5954 138.227Z" fill="black"/>
<path d="M98.7115 129.049L101.44 136.611L103.283 131.364L102.324 129.049H104.242L106.896 136.611L109.55 129.049H110.361L106.675 139.003H106.306L103.652 132.29L101.145 139.003H100.85L96.8682 129.049H98.7115Z" fill="black"/>
<path d="M114.926 129.738C114.521 129.738 114.207 129.874 113.968 130.124C113.765 130.394 113.673 130.703 113.673 131.05C113.673 131.417 113.82 131.745 114.115 132.053C114.447 132.362 114.853 132.651 115.295 132.902C115.774 133.172 116.254 133.423 116.696 133.674C117.138 133.944 117.507 134.291 117.802 134.754C118.134 135.179 118.318 135.642 118.318 136.143C118.318 136.973 117.986 137.648 117.36 138.149C116.77 138.67 115.922 138.921 114.853 138.921C113.82 138.921 112.88 138.67 112.051 138.149V137.378C112.936 137.841 113.747 138.072 114.484 138.072C115.258 138.072 115.83 137.918 116.18 137.609C116.512 137.301 116.696 136.953 116.696 136.529C116.696 136.124 116.512 135.757 116.18 135.449C115.885 135.14 115.516 134.889 115.074 134.677C114.631 134.426 114.189 134.175 113.747 133.905C113.341 133.597 112.972 133.249 112.641 132.825C112.346 132.42 112.198 131.899 112.198 131.282C112.198 130.664 112.419 130.105 112.862 129.584C113.341 129.083 114.078 128.812 115.074 128.812C116.051 128.812 116.991 129.005 117.876 129.353L117.655 130.742C116.659 130.182 115.756 129.854 114.926 129.738Z" fill="black"/>
<path d="M129.21 127.033C129.21 127.65 129.431 128.248 129.874 128.808C130.353 129.328 130.924 129.791 131.57 130.197C132.252 130.621 132.915 131.026 133.56 131.431C134.242 131.856 134.814 132.357 135.256 132.975C135.735 133.592 135.994 134.267 135.994 134.981C135.994 136.177 135.57 137.122 134.74 137.836C133.947 138.569 132.841 138.916 131.422 138.916C130.04 138.916 128.657 138.665 127.293 138.145V137.141C128.657 137.874 129.837 138.222 130.832 138.222C131.809 138.222 132.565 137.971 133.118 137.45C133.652 136.949 133.929 136.254 133.929 135.367C133.929 134.807 133.708 134.286 133.265 133.823C132.823 133.322 132.27 132.878 131.643 132.512C130.998 132.164 130.353 131.798 129.726 131.431C129.081 131.026 128.51 130.544 128.03 129.965C127.588 129.348 127.367 128.634 127.367 127.804C127.367 126.936 127.699 126.145 128.399 125.412C129.136 124.699 130.205 124.332 131.643 124.332C132.565 124.332 133.745 124.564 135.182 125.027L134.961 126.415C133.136 125.605 131.57 125.181 130.242 125.181C129.542 125.547 129.21 126.165 129.21 127.033Z" fill="black"/>
<path d="M143.555 128.812C144.735 128.812 145.712 129.256 146.505 130.124C147.279 130.954 147.684 132.111 147.684 133.597C147.684 134.581 147.5 135.429 147.168 136.143C146.873 136.876 146.468 137.416 145.989 137.764C144.993 138.535 143.924 138.921 142.744 138.921C141.565 138.921 140.569 138.516 139.795 137.686C139.002 136.818 138.615 135.642 138.615 134.137C138.615 133.211 138.763 132.401 139.058 131.668C139.389 130.954 139.813 130.394 140.311 129.97C141.288 129.198 142.376 128.812 143.555 128.812ZM143.113 138.227C143.74 138.227 144.256 137.995 144.661 137.532C145.436 136.664 145.841 135.526 145.841 134.137C145.841 132.709 145.583 131.59 145.104 130.819C144.661 130.009 143.924 129.584 142.892 129.584C142.099 129.893 141.509 130.472 141.122 131.282C140.717 132.053 140.532 133.018 140.532 134.137C140.532 135.217 140.717 136.182 141.122 136.992C141.565 137.822 142.228 138.227 143.113 138.227Z" fill="black"/>
<path d="M152.409 124.105V138.69H150.713V124.105H152.409Z" fill="black"/>
<path d="M162.919 135.839C162.919 136.823 163.251 137.595 163.952 138.154L162.919 138.926L161.223 137.383C160.67 137.961 160.191 138.367 159.749 138.617C159.306 138.81 158.79 138.926 158.2 138.926C157.61 138.926 157.057 138.694 156.578 138.231C156.08 137.768 155.841 136.958 155.841 135.762V129.049H157.61V135.917C157.61 136.592 157.703 137.113 157.905 137.46C158.145 137.768 158.569 137.923 159.159 137.923C159.749 137.923 160.412 137.498 161.15 136.611V129.049H162.919V135.839Z" fill="black"/>
<path d="M169.007 136.836C169.007 137.261 169.081 137.569 169.229 137.762C169.413 137.974 169.689 138.071 170.04 138.071C170.427 138.071 170.888 137.974 171.441 137.762V138.379C170.648 138.727 169.929 138.92 169.302 138.92C168.713 138.92 168.215 138.727 167.828 138.379C167.477 138.032 167.312 137.453 167.312 136.682V129.814L165.689 129.505V129.042H167.312V128.271L169.007 126.959V129.042H171.441V129.814H169.007V136.836Z" fill="black"/>
<path d="M174.598 138.686V129.04H176.294V138.686H174.598ZM174.377 126.108C174.377 125.799 174.469 125.548 174.672 125.336C174.856 125.143 175.114 125.027 175.409 125.027C175.704 125.027 175.944 125.143 176.147 125.336C176.331 125.548 176.441 125.799 176.441 126.108C176.441 126.378 176.331 126.629 176.147 126.879C175.944 127.092 175.704 127.188 175.409 127.188C175.114 127.188 174.856 127.092 174.672 126.879C174.469 126.686 174.377 126.416 174.377 126.108Z" fill="black"/>
<path d="M184.129 128.812C185.308 128.812 186.285 129.256 187.078 130.124C187.852 130.954 188.258 132.111 188.258 133.597C188.258 134.581 188.073 135.429 187.742 136.143C187.447 136.876 187.041 137.416 186.562 137.764C185.566 138.535 184.497 138.921 183.318 138.921C182.138 138.921 181.142 138.516 180.368 137.686C179.576 136.818 179.188 135.642 179.188 134.137C179.188 133.211 179.336 132.401 179.631 131.668C179.963 130.954 180.387 130.394 180.884 129.97C181.861 129.198 182.949 128.812 184.129 128.812ZM183.686 138.227C184.313 138.227 184.829 137.995 185.235 137.532C186.009 136.664 186.414 135.526 186.414 134.137C186.414 132.709 186.156 131.59 185.677 130.819C185.235 130.009 184.497 129.584 183.465 129.584C182.672 129.893 182.083 130.472 181.695 131.282C181.29 132.053 181.106 133.018 181.106 134.137C181.106 135.217 181.29 136.182 181.695 136.992C182.138 137.822 182.801 138.227 183.686 138.227Z" fill="black"/>
<path d="M193.056 130.433C193.591 129.874 194.089 129.468 194.531 129.198C194.973 128.948 195.453 128.812 196.006 128.812C196.595 128.812 197.13 129.083 197.628 129.584C198.162 130.047 198.439 130.877 198.439 132.053V138.69H196.669V132.208C196.669 131.552 196.54 131.031 196.301 130.664C196.042 130.317 195.637 130.124 195.047 130.124C194.494 130.124 193.867 130.549 193.13 131.359V138.69H191.36V131.976C191.36 131.05 191.01 130.279 190.328 129.661L191.36 128.89L193.056 130.433Z" fill="black"/>
<path d="M204.272 129.738C203.867 129.738 203.553 129.874 203.314 130.124C203.111 130.394 203.019 130.703 203.019 131.05C203.019 131.417 203.166 131.745 203.461 132.053C203.793 132.362 204.198 132.651 204.641 132.902C205.12 133.172 205.599 133.423 206.042 133.674C206.484 133.944 206.853 134.291 207.148 134.754C207.48 135.179 207.664 135.642 207.664 136.143C207.664 136.973 207.332 137.648 206.705 138.149C206.115 138.67 205.267 138.921 204.198 138.921C203.166 138.921 202.226 138.67 201.396 138.149V137.378C202.281 137.841 203.092 138.072 203.83 138.072C204.604 138.072 205.175 137.918 205.526 137.609C205.857 137.301 206.042 136.953 206.042 136.529C206.042 136.124 205.857 135.757 205.526 135.449C205.231 135.14 204.862 134.889 204.42 134.677C203.977 134.426 203.535 134.175 203.092 133.905C202.687 133.597 202.318 133.249 201.986 132.825C201.691 132.42 201.544 131.899 201.544 131.282C201.544 130.664 201.765 130.105 202.208 129.584C202.687 129.083 203.424 128.812 204.42 128.812C205.397 128.812 206.337 129.005 207.221 129.353L207 130.742C206.005 130.182 205.102 129.854 204.272 129.738Z" fill="black"/>
<mask id="mask4_783_2427" style="mask-type:luminance" maskUnits="userSpaceOnUse" x="0" y="82" width="218" height="50">
<path d="M217.072 82.1094H0V131.495H217.072V82.1094Z" fill="white"/>
</mask>
<g mask="url(#mask4_783_2427)">
<path d="M24.7834 106.644C24.7834 110.039 23.8617 112.643 22.0552 114.437C20.2303 116.193 17.5944 117.061 14.1658 117.061H8.63574V96.6895H14.7556C17.9446 96.6895 20.3962 97.5769 22.129 99.3131C23.8986 101.069 24.7834 103.519 24.7834 106.644ZM20.5068 106.798C20.5068 102.438 18.6635 100.239 14.9768 100.239H12.7648V113.511H14.5344C18.516 113.511 20.5068 111.274 20.5068 106.798Z" fill="black"/>
<path d="M41.506 117.054L40.105 112.193H32.9529L31.5519 117.054H27.1279L33.9852 96.6055H39.0728L45.93 117.054H41.506ZM39.0728 108.566C37.7824 104.206 37.0451 101.737 36.8608 101.158C36.7133 100.541 36.6027 100.078 36.5658 99.7692C36.2709 100.965 35.423 103.898 34.0589 108.566H39.0728Z" fill="black"/>
<path d="M64.8166 117.061H60.0976L55.01 108.496L53.2404 109.808V117.061H49.1113V96.6895H53.2404V106.026L54.8625 103.634L60.1714 96.6895H64.7428L57.9594 105.718L64.8166 117.061Z" fill="black"/>
<path d="M79.4576 111.424C79.4576 113.238 78.8124 114.665 77.5405 115.745C76.3055 116.826 74.5543 117.366 72.3054 117.366C70.2409 117.366 68.3975 116.961 66.7754 116.131V112.119C68.1026 112.736 69.2086 113.18 70.0934 113.43C71.0151 113.643 71.863 113.739 72.6003 113.739C73.522 113.739 74.2225 113.565 74.6649 113.199C75.1441 112.852 75.4022 112.312 75.4022 111.578C75.4022 111.231 75.2916 110.884 75.1073 110.575C74.9045 110.228 74.5911 109.919 74.1487 109.649C73.7432 109.341 72.9137 108.878 71.6418 108.26C70.4621 107.701 69.5773 107.161 68.9874 106.64C68.3975 106.08 67.8998 105.444 67.5127 104.711C67.1625 103.997 66.9966 103.148 66.9966 102.164C66.9966 100.37 67.5865 98.962 68.7662 97.9203C69.9459 96.8978 71.5312 96.377 73.5589 96.377C74.5911 96.377 75.5497 96.512 76.4345 96.7628C77.3562 97.0329 78.3516 97.3801 79.3838 97.8431L78.0566 101.161C77.0244 100.756 76.158 100.467 75.476 100.312C74.7755 100.119 74.1119 100.004 73.4851 100.004C72.6925 100.004 72.0842 100.216 71.6418 100.621C71.2363 100.988 71.0519 101.451 71.0519 102.01C71.0519 102.434 71.1257 102.782 71.2731 103.09C71.4575 103.36 71.734 103.611 72.0842 103.862C72.4713 104.132 73.3561 104.614 74.7386 105.328C76.5451 106.215 77.7801 107.103 78.4253 108.029C79.1073 108.955 79.4576 110.093 79.4576 111.424Z" fill="black"/>
<path d="M99.7062 117.061H95.5772V108.264H87.8351V117.061H83.7061V96.6895H87.8351V104.637H95.5772V96.6895H99.7062V117.061Z" fill="black"/>
<path d="M124.615 111.424C124.615 113.238 123.97 114.665 122.698 115.745C121.463 116.826 119.712 117.366 117.463 117.366C115.398 117.366 113.555 116.961 111.933 116.131V112.119C113.26 112.736 114.366 113.18 115.251 113.43C116.172 113.643 117.02 113.739 117.758 113.739C118.679 113.739 119.38 113.565 119.822 113.199C120.301 112.852 120.559 112.312 120.559 111.578C120.559 111.231 120.449 110.884 120.265 110.575C120.062 110.228 119.748 109.919 119.306 109.649C118.9 109.341 118.071 108.878 116.799 108.26C115.619 107.701 114.734 107.161 114.145 106.64C113.555 106.08 113.057 105.444 112.67 104.711C112.32 103.997 112.154 103.148 112.154 102.164C112.154 100.37 112.744 98.962 113.923 97.9203C115.103 96.8978 116.688 96.377 118.716 96.377C119.748 96.377 120.707 96.512 121.592 96.7628C122.513 97.0329 123.509 97.3801 124.541 97.8431L123.214 101.161C122.182 100.756 121.315 100.467 120.633 100.312C119.933 100.119 119.269 100.004 118.642 100.004C117.85 100.004 117.241 100.216 116.799 100.621C116.393 100.988 116.209 101.451 116.209 102.01C116.209 102.434 116.283 102.782 116.43 103.09C116.615 103.36 116.891 103.611 117.241 103.862C117.629 104.132 118.513 104.614 119.896 105.328C121.702 106.215 122.937 107.103 123.583 108.029C124.265 108.955 124.615 110.093 124.615 111.424Z" fill="black"/>
<path d="M137.121 100.004C135.591 100.004 134.392 100.621 133.508 101.856C132.66 103.052 132.254 104.749 132.254 106.949C132.254 111.482 133.876 113.739 137.121 113.739C138.485 113.739 140.162 113.392 142.134 112.659V116.286C140.512 117.019 138.706 117.366 136.752 117.366C133.95 117.366 131.775 116.478 130.263 114.665C128.733 112.871 127.978 110.267 127.978 106.871C127.978 104.769 128.346 102.917 129.084 101.316C129.821 99.7336 130.872 98.5183 132.254 97.6888C133.673 96.8207 135.296 96.377 137.121 96.377C139.038 96.377 140.955 96.8785 142.872 97.8431L141.545 101.316C140.807 100.968 140.07 100.66 139.333 100.39C138.595 100.139 137.858 100.004 137.121 100.004Z" fill="black"/>
<path d="M158.182 117.061H146.975V96.6895H158.182V100.239H151.104V104.715H157.74V108.264H151.104V113.511H158.182V117.061Z" fill="black"/>
<path d="M180.306 117.061H174.997L166.518 101.628H166.444C166.591 104.367 166.665 106.316 166.665 107.493V117.061H162.979V96.6895H168.214L176.693 111.968H176.767C176.619 109.306 176.545 107.415 176.545 106.335V96.6895H180.306V117.061Z" fill="black"/>
<path d="M197.095 117.061H185.888V96.6895H197.095V100.239H190.017V104.715H196.653V108.264H190.017V113.511H197.095V117.061Z" fill="black"/>
<path d="M213.395 111.424C213.395 113.238 212.75 114.665 211.478 115.745C210.243 116.826 208.492 117.366 206.243 117.366C204.178 117.366 202.335 116.961 200.713 116.131V112.119C202.04 112.736 203.146 113.18 204.031 113.43C204.953 113.643 205.801 113.739 206.538 113.739C207.46 113.739 208.16 113.565 208.602 113.199C209.082 112.852 209.34 112.312 209.34 111.578C209.34 111.231 209.229 110.884 209.045 110.575C208.842 110.228 208.529 109.919 208.086 109.649C207.681 109.341 206.851 108.878 205.579 108.26C204.4 107.701 203.515 107.161 202.925 106.64C202.335 106.08 201.837 105.444 201.45 104.711C201.1 103.997 200.934 103.148 200.934 102.164C200.934 100.37 201.524 98.962 202.704 97.9203C203.883 96.8978 205.469 96.377 207.496 96.377C208.529 96.377 209.487 96.512 210.372 96.7628C211.294 97.0329 212.289 97.3801 213.321 97.8431L211.994 101.161C210.962 100.756 210.095 100.467 209.413 100.312C208.713 100.119 208.049 100.004 207.423 100.004C206.63 100.004 206.022 100.216 205.579 100.621C205.174 100.988 204.989 101.451 204.989 102.01C204.989 102.434 205.063 102.782 205.211 103.09C205.395 103.36 205.671 103.611 206.022 103.862C206.409 104.132 207.294 104.614 208.676 105.328C210.483 106.215 211.718 107.103 212.363 108.029C213.045 108.955 213.395 110.093 213.395 111.424Z" fill="black"/>
</g>
</svg>
