<svg width="613" height="613" viewBox="0 0 613 613" fill="none" xmlns="http://www.w3.org/2000/svg">
<mask id="mask0_1_133" style="mask-type:luminance" maskUnits="userSpaceOnUse" x="0" y="1" width="605" height="605">
<path d="M302.062 1.65747C135.236 1.65747 0 136.893 0 303.72C0 470.547 135.236 605.782 302.062 605.782C468.889 605.782 604.125 470.547 604.125 303.72C604.125 136.893 468.889 1.65747 302.062 1.65747Z" fill="white"/>
</mask>
<g mask="url(#mask0_1_133)">
<path d="M0 1.65747H604.125V605.782H0V1.65747Z" fill="#88E622"/>
</g>
<mask id="mask1_1_133" style="mask-type:luminance" maskUnits="userSpaceOnUse" x="0" y="0" width="613" height="613">
<path d="M0.0136108 0H612.047V612.18H0.0136108V0Z" fill="white"/>
</mask>
<g mask="url(#mask1_1_133)">
<path d="M305.957 61.9018C440.815 61.9018 550.145 171.232 550.145 306.09C550.145 440.948 440.815 550.278 305.957 550.278C171.098 550.278 61.7686 440.948 61.7686 306.09C61.7686 171.232 171.098 61.9018 305.957 61.9018ZM305.957 564.081C242.985 564.081 182.321 541.132 135.187 499.494C99.6313 468.071 73.4735 427.649 59.5031 382.592L42.8687 387.752C57.783 435.851 85.7238 479 123.67 512.52C173.993 556.991 238.727 581.47 305.957 581.47V564.081ZM555.347 423.097C572.611 386.346 581.358 346.973 581.358 306.09H563.968C563.968 344.393 555.767 381.27 539.594 415.693C508.108 482.713 449.353 533.056 378.452 553.76L383.339 570.458C459.023 548.348 521.722 494.627 555.347 423.097ZM518.869 131.397C471.986 74.32 405.847 38.9954 332.618 31.9683C323.808 31.1292 314.851 30.6887 305.957 30.6887V48.0993C314.284 48.0993 322.696 48.4978 330.961 49.2739C399.533 55.8816 461.498 88.9616 505.423 142.452L518.869 131.397ZM136.655 111.407L125.244 98.2752C65.0619 150.654 30.5764 226.4 30.5764 306.09H47.966C47.966 231.434 80.2909 160.471 136.655 111.407ZM612.047 306.09C612.047 275.653 607.6 245.615 598.811 216.772C587.714 180.315 570.031 146.584 546.306 116.525C487.824 42.4775 400.225 0 305.957 0V17.3896C394.855 17.3896 477.482 57.4548 532.65 127.307C555.032 155.667 571.688 187.468 582.155 221.848C590.441 249.034 594.657 277.373 594.657 306.09C594.657 337.009 589.791 367.467 580.204 396.562L596.713 401.995C606.887 371.138 612.047 338.876 612.047 306.09ZM106.491 97.3942C140.053 65.3 181.23 41.5755 225.575 28.7379L220.729 12.0196C173.7 25.6334 130.047 50.8052 94.4711 84.8292C59.6919 118.056 32.9468 159.506 17.0885 204.647L33.4922 210.416C48.4485 167.833 73.7043 128.754 106.491 97.3942ZM368.488 605.782C419.44 595.189 467.225 571.464 506.702 537.168L495.27 524.036C458.058 556.403 413 578.764 364.943 588.728C345.644 592.735 325.801 594.769 305.957 594.769C256.662 594.769 208.017 582.142 165.267 558.228C119.895 532.868 82.1159 495.655 56.042 450.681C30.6813 406.945 17.2773 356.937 17.2773 306.09H-0.13324C-0.13324 360 14.0889 413.008 40.9808 459.408C68.6279 507.087 108.672 546.523 156.771 573.415C202.102 598.776 253.704 612.18 305.957 612.18C326.996 612.18 348.015 610.019 368.488 605.782Z" fill="#100F0D"/>
</g>
<path d="M360.38 168.636C360.38 168.636 315.155 165.531 314.84 214.365C363.464 214.05 360.38 168.636 360.38 168.636Z" fill="#008037"/>
<mask id="mask2_1_133" style="mask-type:luminance" maskUnits="userSpaceOnUse" x="308" y="160" width="57" height="57">
<path d="M308.6 160.893H364.167V216.774H308.6V160.893Z" fill="white"/>
</mask>
<g mask="url(#mask2_1_133)">
<path d="M312.187 217.005L314.851 216.984C330.521 216.879 342.729 212.243 351.099 203.181C364.23 188.98 363.034 169.262 362.993 168.444L362.825 166.158L360.538 165.99C360.538 165.99 359.888 165.948 358.755 165.948C351.036 165.948 312.481 168.276 312.208 214.32L312.187 217.005ZM357.748 171.234C357.602 176.625 356.28 189.84 347.218 199.615C340.359 207.041 330.374 211.069 317.515 211.635C319.11 175.429 347.386 171.465 357.748 171.234Z" fill="#008037"/>
</g>
<path d="M306.475 120.586C306.475 120.586 272.304 150.499 306.475 185.236C340.625 150.499 306.475 120.586 306.475 120.586Z" fill="#008037"/>
<mask id="mask3_1_133" style="mask-type:luminance" maskUnits="userSpaceOnUse" x="287" y="105" width="38" height="77">
<path d="M287.083 105.125H324.673V181.522H287.083V105.125Z" fill="white"/>
</mask>
<g mask="url(#mask3_1_133)">
<path d="M306.465 177.389L308.332 175.502C319.345 164.279 324.694 152.343 324.232 139.988C323.519 120.627 308.814 107.537 308.185 106.992L306.465 105.482L304.724 106.992C304.095 107.537 289.39 120.627 288.677 139.988C288.215 152.343 293.564 164.279 304.577 175.502L306.465 177.389ZM306.465 112.677C310.157 116.599 318.505 126.899 318.988 140.219C319.345 150.351 315.128 160.294 306.465 169.817C297.781 160.294 293.564 150.351 293.921 140.219C294.403 126.899 302.752 116.599 306.465 112.677Z" fill="#008037"/>
</g>
<path d="M251.352 168.636C251.352 168.636 296.578 165.531 296.871 214.365C248.248 214.05 251.352 168.636 251.352 168.636Z" fill="#008037"/>
<mask id="mask4_1_133" style="mask-type:luminance" maskUnits="userSpaceOnUse" x="247" y="160" width="57" height="57">
<path d="M247.323 160.893H303.184V216.774H247.323V160.893Z" fill="white"/>
</mask>
<g mask="url(#mask4_1_133)">
<path d="M299.492 217.005L299.471 214.32C299.177 168.276 260.622 165.948 252.903 165.948C251.77 165.948 251.12 165.99 251.12 165.99L248.854 166.158L248.687 168.444C248.624 169.262 247.449 188.98 260.559 203.181C268.929 212.243 281.137 216.879 296.828 216.984L299.492 217.005ZM253.91 171.234C264.272 171.465 292.57 175.429 294.143 211.635C281.284 211.069 271.278 207.02 264.419 199.573C255.357 189.777 254.036 176.604 253.91 171.234Z" fill="#008037"/>
</g>
<path d="M257.258 174.14C257.258 174.14 297.806 171.392 298.079 214.373C254.489 214.1 257.258 174.14 257.258 174.14Z" fill="#88E622"/>
<mask id="mask5_1_133" style="mask-type:luminance" maskUnits="userSpaceOnUse" x="254" y="171" width="50" height="47">
<path d="M254.856 171.644H303.186V217.058H254.856V171.644Z" fill="white"/>
</mask>
<g mask="url(#mask5_1_133)">
<path d="M300.459 216.723L298.068 216.702C284.013 216.618 273.084 212.527 265.575 204.535C253.807 192.054 254.877 174.706 254.919 173.972L255.066 171.959L257.1 171.812C257.1 171.812 257.688 171.77 258.715 171.77C265.638 171.77 300.186 173.825 300.459 214.352V216.723ZM259.617 176.427C259.743 181.167 260.939 192.809 269.057 201.41C275.203 207.933 284.16 211.499 295.676 211.982C294.25 180.139 268.91 176.636 259.617 176.427Z" fill="#88E622"/>
</g>
<path d="M305.586 131.84C305.586 131.84 336.233 158.165 305.586 188.749C274.96 158.165 305.586 131.84 305.586 131.84Z" fill="#88E622"/>
<path d="M305.596 192.045L303.939 190.367C294.038 180.508 289.234 169.999 289.654 159.112C290.304 142.1 303.498 130.563 304.065 130.08L305.596 128.759L307.148 130.08C307.714 130.563 320.909 142.1 321.559 159.112C321.958 169.999 317.154 180.508 307.274 190.367L305.596 192.045ZM305.596 135.094C302.282 138.555 294.793 147.617 294.373 159.343C294.038 168.237 297.814 176.984 305.596 185.375C313.399 176.984 317.175 168.237 316.839 159.343C316.42 147.617 308.91 138.555 305.596 135.094Z" fill="#88E622"/>
<path d="M355.026 174.14C355.026 174.14 314.478 171.392 314.206 214.373C357.816 214.1 355.026 174.14 355.026 174.14Z" fill="#88E622"/>
<mask id="mask6_1_133" style="mask-type:luminance" maskUnits="userSpaceOnUse" x="308" y="171" width="51" height="47">
<path d="M308.584 171.644H358.592V217.058H308.584V171.644Z" fill="white"/>
</mask>
<g mask="url(#mask6_1_133)">
<path d="M311.835 216.723L311.856 214.352C312.108 173.825 346.677 171.77 353.6 171.77C354.606 171.77 355.194 171.812 355.194 171.812L357.228 171.959L357.375 173.972C357.438 174.706 358.487 192.054 346.74 204.535C339.231 212.527 328.281 216.618 314.226 216.702L311.835 216.723ZM352.698 176.427C343.405 176.636 318.044 180.118 316.618 211.982C328.155 211.499 337.112 207.933 343.279 201.389C351.397 192.746 352.572 181.167 352.698 176.427Z" fill="#88E622"/>
</g>
<path d="M198.098 448.865L205.734 438.146H203.091L197.049 446.809L191.029 438.146H188.344L196.022 448.886V458.367H198.098V448.865Z" fill="white"/>
<path d="M218.947 451.779C218.947 453.101 218.486 454.191 217.563 455.114C216.598 456.058 215.507 456.52 214.207 456.52C212.885 456.52 211.753 456.058 210.851 455.114C209.886 454.191 209.445 453.101 209.445 451.779C209.445 450.479 209.886 449.388 210.851 448.423C211.753 447.5 212.885 447.038 214.207 447.038C215.507 447.038 216.598 447.5 217.563 448.423C218.486 449.388 218.947 450.479 218.947 451.779ZM221.045 451.779C221.045 449.912 220.353 448.318 219.01 446.975C217.668 445.633 216.074 444.962 214.207 444.962C212.298 444.962 210.683 445.633 209.361 446.975C208.019 448.318 207.368 449.912 207.368 451.779C207.368 453.688 208.019 455.303 209.361 456.604C210.683 457.946 212.319 458.596 214.207 458.596C216.053 458.596 217.668 457.946 219.01 456.604C220.353 455.303 221.045 453.688 221.045 451.779Z" fill="white"/>
<path d="M233.626 456.158V458.382H235.703V445.313H233.626V450.767C233.626 452.613 233.27 454.019 232.577 455.047C231.927 456.053 230.773 456.578 229.158 456.578C228.277 456.578 227.627 456.263 227.228 455.676C226.851 455.089 226.662 454.333 226.662 453.473V445.313H224.585V453.473C224.585 454.984 224.984 456.242 225.802 457.228C226.641 458.172 227.774 458.655 229.263 458.655C231.193 458.655 232.64 457.816 233.626 456.158Z" fill="white"/>
<path d="M246.43 447.987V445.302C246.031 445.113 245.569 445.029 245.129 445.029C243.64 445.029 242.57 445.847 241.899 447.463L241.794 447.987V445.302H239.717V458.37H241.794V451.826C241.794 450.756 242.045 449.812 242.549 448.952C242.78 448.511 243.115 448.113 243.493 447.819C243.891 447.526 244.353 447.337 244.898 447.337C245.423 447.337 245.926 447.588 246.43 447.987Z" fill="white"/>
<path d="M272.657 448.257C272.657 446.809 272.363 445.467 271.839 444.229C271.293 442.97 270.559 441.901 269.636 441.02C268.692 440.118 267.58 439.425 266.343 438.922C265.063 438.419 263.679 438.146 262.252 438.146H256.966V458.367H262.252C263.679 458.367 265.063 458.136 266.343 457.633C267.58 457.109 268.692 456.395 269.636 455.514C270.559 454.612 271.293 453.585 271.839 452.326C272.363 451.088 272.657 449.746 272.657 448.257ZM270.643 448.257C270.643 450.585 269.804 452.515 268.21 454.025C266.594 455.535 264.644 456.291 262.315 456.291H259.043V440.243H262.315C264.644 440.243 266.594 441.02 268.21 442.488C269.804 444.04 270.643 445.97 270.643 448.257Z" fill="white"/>
<path d="M278.397 440.77C278.125 440.539 277.81 440.393 277.453 440.393C277.097 440.393 276.761 440.539 276.53 440.77C276.258 441.043 276.132 441.378 276.132 441.735C276.132 442.092 276.258 442.406 276.53 442.637C276.761 442.91 277.097 443.036 277.453 443.036C277.81 443.036 278.125 442.91 278.397 442.637C278.628 442.406 278.775 442.092 278.775 441.735C278.775 441.378 278.628 441.043 278.397 440.77ZM278.523 458.369V445.301H276.426V458.369H278.523Z" fill="white"/>
<path d="M295.875 451.548C295.875 449.765 295.162 448.213 293.777 446.892C292.456 445.612 290.841 444.962 289.037 444.962C287.128 444.962 285.513 445.633 284.191 446.975C282.849 448.318 282.198 449.912 282.198 451.779C282.198 453.688 282.849 455.303 284.191 456.604C284.799 457.233 285.513 457.694 286.352 458.051C287.191 458.408 288.177 458.596 289.33 458.596C290.484 458.596 291.617 458.24 292.75 457.527C293.882 456.813 294.7 455.807 295.267 454.548H292.896C292.414 455.177 291.848 455.66 291.176 456.016C290.484 456.373 289.771 456.52 289.037 456.52C287.904 456.52 286.897 456.163 285.995 455.408C285.114 454.695 284.548 453.772 284.359 452.66H295.875V451.548ZM293.673 450.877H284.401C284.506 450.332 284.716 449.828 285.009 449.346C285.974 447.814 287.296 447.038 289.037 447.038C290.128 447.038 291.113 447.395 291.973 448.108C292.854 448.842 293.4 449.765 293.673 450.877Z" fill="white"/>
<path d="M297.639 447.238H300.911V458.377H302.988V447.238H306.239V445.308H302.988V440.211H300.911V445.308H297.639V447.238Z" fill="white"/>
<path d="M320.341 450.95L324.033 441.636L327.683 450.95H320.341ZM332.885 458.375L324.033 436.769L315.139 458.375H317.405L319.565 452.879H328.459L330.62 458.375H332.885Z" fill="white"/>
<path d="M337.295 456.533C336.771 456.177 336.393 455.589 336.184 454.729H333.981C334.442 457.435 336.163 458.757 339.183 458.757C339.896 458.757 340.547 458.715 341.176 458.526C341.805 458.358 342.33 458.107 342.833 457.792C343.861 457.1 344.364 456.051 344.364 454.666C344.364 453.24 343.714 452.233 342.33 451.583C341.763 451.31 341.155 451.1 340.463 450.954C339.812 450.807 339.183 450.618 338.617 450.45C338.029 450.261 337.547 450.031 337.169 449.758C336.771 449.485 336.582 449.087 336.582 448.478C336.582 447.891 336.813 447.45 337.295 447.178C337.757 446.884 338.323 446.737 338.952 446.737C339.603 446.737 340.169 446.884 340.61 447.115C341.05 447.346 341.407 447.828 341.616 448.541H343.861C343.588 447.241 343.022 446.318 342.183 445.814C341.323 445.269 340.295 444.996 339.015 444.996C337.757 444.996 336.666 445.353 335.743 446.024C334.841 446.695 334.38 447.681 334.38 448.982C334.38 449.611 334.547 450.177 334.883 450.66C335.24 451.163 335.743 451.541 336.393 451.835C336.981 452.107 337.61 452.317 338.26 452.485C338.911 452.653 339.54 452.82 340.148 453.009C341.47 453.45 342.162 454.1 342.162 454.939C342.162 456.366 341.218 457.037 339.309 457.037C338.512 457.037 337.82 456.89 337.295 456.533Z" fill="white"/>
<path d="M349.245 456.533C348.721 456.177 348.343 455.589 348.134 454.729H345.931C346.393 457.435 348.113 458.757 351.133 458.757C351.846 458.757 352.497 458.715 353.126 458.526C353.755 458.358 354.28 458.107 354.783 457.792C355.811 457.1 356.314 456.051 356.314 454.666C356.314 453.24 355.664 452.233 354.28 451.583C353.713 451.31 353.105 451.1 352.413 450.954C351.763 450.807 351.133 450.618 350.567 450.45C349.98 450.261 349.497 450.031 349.119 449.758C348.721 449.485 348.532 449.087 348.532 448.478C348.532 447.891 348.763 447.45 349.245 447.178C349.707 446.884 350.273 446.737 350.902 446.737C351.553 446.737 352.119 446.884 352.56 447.115C353 447.346 353.357 447.828 353.566 448.541H355.811C355.538 447.241 354.972 446.318 354.133 445.814C353.273 445.269 352.245 444.996 350.965 444.996C349.707 444.996 348.616 445.353 347.693 446.024C346.791 446.695 346.33 447.681 346.33 448.982C346.33 449.611 346.497 450.177 346.833 450.66C347.19 451.163 347.693 451.541 348.343 451.835C348.931 452.107 349.56 452.317 350.21 452.485C350.861 452.653 351.49 452.82 352.098 453.009C353.42 453.45 354.112 454.1 354.112 454.939C354.112 456.366 353.168 457.037 351.259 457.037C350.462 457.037 349.77 456.89 349.245 456.533Z" fill="white"/>
<path d="M361.467 440.77C361.195 440.539 360.88 440.393 360.523 440.393C360.167 440.393 359.831 440.539 359.6 440.77C359.328 441.043 359.202 441.378 359.202 441.735C359.202 442.092 359.328 442.406 359.6 442.637C359.831 442.91 360.167 443.036 360.523 443.036C360.88 443.036 361.195 442.91 361.467 442.637C361.698 442.406 361.845 442.092 361.845 441.735C361.845 441.378 361.698 441.043 361.467 440.77ZM361.593 458.369V445.301H359.496V458.369H361.593Z" fill="white"/>
<path d="M368.005 456.533C367.481 456.177 367.103 455.589 366.894 454.729H364.691C365.153 457.435 366.873 458.757 369.893 458.757C370.606 458.757 371.257 458.715 371.886 458.526C372.515 458.358 373.04 458.107 373.543 457.792C374.571 457.1 375.074 456.051 375.074 454.666C375.074 453.24 374.424 452.233 373.04 451.583C372.473 451.31 371.865 451.1 371.173 450.954C370.523 450.807 369.893 450.618 369.327 450.45C368.74 450.261 368.257 450.031 367.879 449.758C367.481 449.485 367.292 449.087 367.292 448.478C367.292 447.891 367.523 447.45 368.005 447.178C368.467 446.884 369.033 446.737 369.662 446.737C370.313 446.737 370.879 446.884 371.32 447.115C371.76 447.346 372.117 447.828 372.327 448.541H374.571C374.298 447.241 373.732 446.318 372.893 445.814C372.033 445.269 371.005 444.996 369.725 444.996C368.467 444.996 367.376 445.353 366.453 446.024C365.551 446.695 365.09 447.681 365.09 448.982C365.09 449.611 365.257 450.177 365.593 450.66C365.95 451.163 366.453 451.541 367.103 451.835C367.691 452.107 368.32 452.317 368.97 452.485C369.621 452.653 370.25 452.82 370.858 453.009C372.18 453.45 372.872 454.1 372.872 454.939C372.872 456.366 371.928 457.037 370.019 457.037C369.222 457.037 368.53 456.89 368.005 456.533Z" fill="white"/>
<path d="M376.459 447.238H379.731V458.377H381.808V447.238H385.059V445.308H381.808V440.211H379.731V445.308H376.459V447.238Z" fill="white"/>
<path d="M398.305 451.848C398.305 453.128 397.864 454.261 396.962 455.184C396.081 456.128 394.97 456.61 393.711 456.61C392.39 456.61 391.299 456.128 390.397 455.184C389.516 454.261 389.096 453.128 389.096 451.848C389.096 450.611 389.516 449.478 390.397 448.534C391.299 447.569 392.39 447.108 393.711 447.108C394.97 447.108 396.081 447.569 396.962 448.534C397.864 449.478 398.305 450.611 398.305 451.848ZM400.382 458.393V445.325H398.305V447.569C398.2 447.401 398.032 447.254 397.927 447.108C396.669 445.723 395.158 445.01 393.375 445.01C391.571 445.01 390.04 445.723 388.803 447.108C387.607 448.471 387.02 450.044 387.02 451.848C387.02 453.694 387.607 455.267 388.803 456.61C390.04 458.015 391.571 458.687 393.375 458.687C395.158 458.687 396.669 458.015 397.927 456.61C398.032 456.484 398.2 456.337 398.305 456.169V458.393H400.382Z" fill="white"/>
<path d="M413.856 458.37H415.933V450.19C415.933 448.679 415.513 447.463 414.758 446.54C414.339 446.057 413.856 445.701 413.29 445.449C412.702 445.176 411.947 445.029 411.024 445.029C410.08 445.029 409.283 445.302 408.57 445.763C407.878 446.204 407.312 446.812 406.892 447.546V445.302H404.815V458.37H406.892V452.896C406.892 451.238 407.207 449.938 407.815 448.952C408.172 448.407 408.633 447.966 409.199 447.609C409.724 447.274 410.458 447.106 411.36 447.106C412.241 447.106 412.87 447.442 413.269 448.029C413.646 448.616 413.856 449.371 413.856 450.19V458.37Z" fill="white"/>
<path d="M418.319 447.238H421.591V458.377H423.668V447.238H426.919V445.308H423.668V440.211H421.591V445.308H418.319V447.238Z" fill="white"/>
<path d="M236.867 355.165H232.756V392.084H236.867V405.593H205.822V392.084H209.766V363.388L195.837 405.593H183.671L169.323 363.808V392.084H173.267V405.593H146.333V392.084H150.444V355.165H146.333V341.657H183.923L192.481 367.332L200.704 341.657H236.867V355.165Z" fill="white"/>
<path d="M240.163 405.593V392.084H244.274V355.165H240.163V341.657H295.541V366.493H277.165V355.165H267.264V368.171H274.48V377.485H267.264V392.084H277.165V379.163H295.541V405.593H240.163Z" fill="white"/>
<path d="M358.972 392.084H362.244V405.593H330.108V392.084H334.975L333.716 385.54H322.473L321.214 392.084H326.165V405.593H298.056V392.084H301.328L315.173 341.657H345.127L358.972 392.084ZM324.319 376.813H331.87L328.514 360.535H327.675L324.319 376.813Z" fill="white"/>
<path d="M364.868 405.593V392.084H368.979V355.165H364.868V341.657H399.521V355.165H391.97V392.084H399.353V384.533H415.715V405.593H364.868Z" fill="white"/>
<path d="M443.891 406.808C438.626 406.808 433.654 406.346 428.955 405.465C424.299 404.521 420.733 403.494 418.215 402.361V386.083H436.255C436.255 387.761 436.612 388.999 437.346 389.775C438.122 390.572 439.549 390.95 441.625 390.95C443.303 390.95 444.499 390.698 445.233 390.194C445.947 389.649 446.324 388.852 446.324 387.845C446.324 386.964 445.947 386.209 445.233 385.58C444.562 384.908 443.345 384.279 441.625 383.65L434.493 381.132C428.452 378.846 424.089 376.161 421.404 373.077C418.761 369.952 417.46 365.736 417.46 360.408C417.46 353.926 419.579 348.996 423.837 345.64C428.074 342.284 435.165 340.606 445.065 340.606C449.806 340.606 454.295 341.088 458.49 342.032C462.686 342.997 466.063 344.256 468.643 345.808V360.575H452.198C452.198 357.849 450.477 356.464 447.079 356.464C445.443 356.464 444.268 356.674 443.555 357.051C442.884 357.45 442.548 358.184 442.548 359.233C442.548 360.198 442.926 360.953 443.723 361.498C444.562 362.002 445.863 362.568 447.667 363.177L454.799 365.61C460.609 367.582 464.825 370.141 467.468 373.329C470.153 376.476 471.496 380.587 471.496 385.663C471.496 392.607 469.147 397.872 464.448 401.438C459.791 405.025 452.953 406.808 443.891 406.808Z" fill="white"/>
<path d="M241.517 261.085H237.406V298.004H241.517V311.513H210.472V298.004H214.416V269.308L200.487 311.513H188.321L173.973 269.728V298.004H177.917V311.513H150.983V298.004H155.094V261.085H150.983V247.577H188.573L197.131 273.252L205.354 247.577H241.517V261.085Z" fill="white"/>
<path d="M280.627 247.577H305.882V261.085H302.61L286.752 289.53V298.004H290.863V311.513H259.65V298.004H263.761V289.53L247.4 261.085H244.127V247.577H275.928V261.085H272.991L277.858 273.839H278.697L283.563 261.085H280.627V247.577Z" fill="white"/>
<path d="M313.857 316.143V302.634H317.969V265.632H313.857V252.207H363.026V273.435H348.426V265.632H340.959V279.308H353.377V288.706H340.959V302.634H351.699V316.143H313.857Z" fill="#88E622"/>
<path d="M365.795 316.143V302.634H369.906V265.632H365.795V252.207H397.008V265.632H392.897V302.634H397.008V316.143H365.795Z" fill="#88E622"/>
<path d="M461.649 272.092H447.469V265.632H442.183V302.634H447.973V316.143H413.403V302.634H419.193V265.632H413.907V272.092H399.81V252.207H461.649V272.092Z" fill="#88E622"/>
</svg>
