<svg width="149" height="37" viewBox="0 0 149 37" fill="none" xmlns="http://www.w3.org/2000/svg">
<path d="M14.8596 29.8971C12.8616 29.8971 10.9992 29.5765 9.27256 28.9351C7.57056 28.2691 6.09056 27.3318 4.83255 26.1231C3.57455 24.9145 2.58789 23.4961 1.87255 21.8681C1.18189 20.2401 0.836555 18.4518 0.836555 16.5031C0.836555 14.5545 1.18189 12.7661 1.87255 11.1381C2.58789 9.51012 3.57455 8.09179 4.83255 6.88312C6.11522 5.67446 7.60756 4.74946 9.30955 4.10812C11.0116 3.44212 12.8739 3.10912 14.8966 3.10912C17.1412 3.10912 19.1639 3.50379 20.9646 4.29312C22.7899 5.05779 24.3192 6.19246 25.5526 7.69713L21.7046 11.2491C20.8166 10.2378 19.8299 9.48546 18.7446 8.99212C17.6592 8.47412 16.4752 8.21512 15.1926 8.21512C13.9839 8.21512 12.8739 8.41246 11.8626 8.80712C10.8512 9.20179 9.97555 9.76912 9.23555 10.5091C8.49556 11.2491 7.91589 12.1248 7.49656 13.1361C7.10189 14.1475 6.90456 15.2698 6.90456 16.5031C6.90456 17.7365 7.10189 18.8588 7.49656 19.8701C7.91589 20.8815 8.49556 21.7571 9.23555 22.4971C9.97555 23.2371 10.8512 23.8045 11.8626 24.1991C12.8739 24.5938 13.9839 24.7911 15.1926 24.7911C16.4752 24.7911 17.6592 24.5445 18.7446 24.0511C19.8299 23.5331 20.8166 22.7561 21.7046 21.7201L25.5526 25.2721C24.3192 26.7768 22.7899 27.9238 20.9646 28.7131C19.1639 29.5025 17.1289 29.8971 14.8596 29.8971ZM37.9788 29.7491C35.8574 29.7491 33.9704 29.3051 32.3178 28.4171C30.6898 27.5291 29.3948 26.3205 28.4328 24.7911C27.4954 23.2371 27.0268 21.4735 27.0268 19.5001C27.0268 17.5021 27.4954 15.7385 28.4328 14.2091C29.3948 12.6551 30.6898 11.4465 32.3178 10.5831C33.9704 9.69512 35.8574 9.25112 37.9788 9.25112C40.0754 9.25112 41.9501 9.69512 43.6028 10.5831C45.2554 11.4465 46.5504 12.6428 47.4878 14.1721C48.4251 15.7015 48.8938 17.4775 48.8938 19.5001C48.8938 21.4735 48.4251 23.2371 47.4878 24.7911C46.5504 26.3205 45.2554 27.5291 43.6028 28.4171C41.9501 29.3051 40.0754 29.7491 37.9788 29.7491ZM37.9788 25.0131C38.9408 25.0131 39.8041 24.7911 40.5688 24.3471C41.3334 23.9031 41.9378 23.2741 42.3818 22.4601C42.8258 21.6215 43.0478 20.6348 43.0478 19.5001C43.0478 18.3408 42.8258 17.3541 42.3818 16.5401C41.9378 15.7261 41.3334 15.0971 40.5688 14.6531C39.8041 14.2091 38.9408 13.9871 37.9788 13.9871C37.0168 13.9871 36.1534 14.2091 35.3888 14.6531C34.6241 15.0971 34.0074 15.7261 33.5388 16.5401C33.0948 17.3541 32.8728 18.3408 32.8728 19.5001C32.8728 20.6348 33.0948 21.6215 33.5388 22.4601C34.0074 23.2741 34.6241 23.9031 35.3888 24.3471C36.1534 24.7911 37.0168 25.0131 37.9788 25.0131ZM78.2449 9.25112C79.8236 9.25112 81.2172 9.57179 82.4259 10.2131C83.6592 10.8298 84.6212 11.7918 85.3119 13.0991C86.0272 14.3818 86.3849 16.0345 86.3849 18.0571V29.4531H80.6129V18.9451C80.6129 17.3418 80.2799 16.1578 79.6139 15.3931C78.9479 14.6285 78.0106 14.2461 76.8019 14.2461C75.9632 14.2461 75.2109 14.4435 74.5449 14.8381C73.8789 15.2081 73.3609 15.7755 72.9909 16.5401C72.6209 17.3048 72.4359 18.2791 72.4359 19.4631V29.4531H66.6639V18.9451C66.6639 17.3418 66.3309 16.1578 65.6649 15.3931C65.0236 14.6285 64.0986 14.2461 62.8899 14.2461C62.0512 14.2461 61.2989 14.4435 60.6329 14.8381C59.9669 15.2081 59.4489 15.7755 59.0789 16.5401C58.7089 17.3048 58.5239 18.2791 58.5239 19.4631V29.4531H52.7519V9.54712H58.2649V14.9861L57.2289 13.3951C57.9196 12.0385 58.8939 11.0148 60.1519 10.3241C61.4346 9.60879 62.8899 9.25112 64.5179 9.25112C66.3432 9.25112 67.9342 9.71979 69.2909 10.6571C70.6722 11.5698 71.5849 12.9758 72.0289 14.8751L69.9939 14.3201C70.6599 12.7661 71.7206 11.5328 73.1759 10.6201C74.6559 9.70746 76.3456 9.25112 78.2449 9.25112ZM91.5585 29.4531V9.54712H97.3305V29.4531H91.5585ZM94.4445 6.77212C93.3839 6.77212 92.5205 6.46379 91.8545 5.84712C91.1885 5.23046 90.8555 4.46579 90.8555 3.55312C90.8555 2.64046 91.1885 1.87579 91.8545 1.25912C92.5205 0.642457 93.3839 0.334123 94.4445 0.334123C95.5052 0.334123 96.3685 0.630123 97.0345 1.22212C97.7005 1.78946 98.0335 2.52946 98.0335 3.44212C98.0335 4.40412 97.7005 5.20579 97.0345 5.84712C96.3932 6.46379 95.5299 6.77212 94.4445 6.77212ZM114.786 9.25112C116.365 9.25112 117.771 9.57179 119.004 10.2131C120.262 10.8298 121.249 11.7918 121.964 13.0991C122.68 14.3818 123.037 16.0345 123.037 18.0571V29.4531H117.265V18.9451C117.265 17.3418 116.908 16.1578 116.192 15.3931C115.502 14.6285 114.515 14.2461 113.232 14.2461C112.32 14.2461 111.493 14.4435 110.753 14.8381C110.038 15.2081 109.471 15.7878 109.051 16.5771C108.657 17.3665 108.459 18.3778 108.459 19.6111V29.4531H102.687V9.54712H108.2V15.0601L107.164 13.3951C107.88 12.0631 108.903 11.0395 110.235 10.3241C111.567 9.60879 113.084 9.25112 114.786 9.25112ZM137.775 36.9271C135.9 36.9271 134.087 36.6928 132.336 36.2241C130.609 35.7801 129.166 35.1018 128.007 34.1891L130.301 30.0451C131.14 30.7358 132.2 31.2785 133.483 31.6731C134.79 32.0925 136.073 32.3021 137.331 32.3021C139.378 32.3021 140.858 31.8458 141.771 30.9331C142.708 30.0205 143.177 28.6638 143.177 26.8631V23.8661L143.547 18.8711L143.473 13.8391V9.54712H148.949V26.1231C148.949 29.8231 147.987 32.5488 146.063 34.3001C144.139 36.0515 141.376 36.9271 137.775 36.9271ZM136.887 28.4911C135.037 28.4911 133.36 28.0965 131.855 27.3071C130.375 26.4931 129.179 25.3708 128.266 23.9401C127.378 22.4848 126.934 20.7951 126.934 18.8711C126.934 16.9225 127.378 15.2328 128.266 13.8021C129.179 12.3468 130.375 11.2245 131.855 10.4351C133.36 9.64579 135.037 9.25112 136.887 9.25112C138.564 9.25112 140.044 9.59646 141.327 10.2871C142.61 10.9531 143.609 12.0015 144.324 13.4321C145.039 14.8381 145.397 16.6511 145.397 18.8711C145.397 21.0665 145.039 22.8795 144.324 24.3101C143.609 25.7161 142.61 26.7645 141.327 27.4551C140.044 28.1458 138.564 28.4911 136.887 28.4911ZM138.034 23.7551C139.045 23.7551 139.946 23.5578 140.735 23.1631C141.524 22.7438 142.141 22.1641 142.585 21.4241C143.029 20.6841 143.251 19.8331 143.251 18.8711C143.251 17.8845 143.029 17.0335 142.585 16.3181C142.141 15.5781 141.524 15.0108 140.735 14.6161C139.946 14.1968 139.045 13.9871 138.034 13.9871C137.023 13.9871 136.122 14.1968 135.333 14.6161C134.544 15.0108 133.915 15.5781 133.446 16.3181C133.002 17.0335 132.78 17.8845 132.78 18.8711C132.78 19.8331 133.002 20.6841 133.446 21.4241C133.915 22.1641 134.544 22.7438 135.333 23.1631C136.122 23.5578 137.023 23.7551 138.034 23.7551Z" fill="black" fill-opacity="0.8"/>
</svg>
