<svg width="276" height="125" viewBox="0 0 276 125" fill="none" xmlns="http://www.w3.org/2000/svg">
<path d="M271.349 84.7977C270.251 84.7977 269.251 84.5925 268.369 84.1411C267.526 83.6486 266.84 82.9714 266.33 82.0891C265.859 81.2272 265.624 80.2423 265.624 79.1342C265.624 78.0467 265.859 77.0822 266.33 76.2614C266.84 75.3996 267.526 74.7019 268.369 74.2094C269.251 73.7169 270.251 73.4707 271.349 73.4707C272.232 73.4707 273.036 73.6349 273.781 73.9632C274.506 74.2915 275.134 74.784 275.663 75.4406L274.094 76.9181C273.408 76.0562 272.545 75.6048 271.506 75.6048C270.82 75.6048 270.212 75.7689 269.702 76.0973C269.232 76.3845 268.84 76.7949 268.526 77.3285C268.251 77.8825 268.134 78.4776 268.134 79.1342C268.134 79.8524 268.251 80.4885 268.526 81.022C268.84 81.5145 269.232 81.9249 269.702 82.2532C270.212 82.5405 270.82 82.6636 271.506 82.6636C272.545 82.6636 273.408 82.2327 274.094 81.3504L275.663 82.8278C275.134 83.4844 274.506 83.9769 273.781 84.3052C273.036 84.6336 272.232 84.7977 271.349 84.7977Z" fill="#8B8B8B"/>
<path d="M0.647461 124.781L0.647461 97.2024" stroke="#8B8B8B" stroke-width="0.979446"/>
<path d="M273.43 55.9222L273.979 56.6609L273.352 63.6377H246.686L247.156 50.3408L246.686 19.0684H273.665L274.136 19.8071L273.509 26.8659L263.313 26.4555L255.627 26.5376L255.47 37.2901L262.764 37.4542L269.744 37.208L270.293 37.8646L269.665 44.9235L262.136 44.6773L255.313 44.7593L255.234 49.52L255.47 56.2505L262.921 56.3326L273.43 55.9222Z" fill="#8B8B8B"/>
<path d="M235.383 73.6289H237.814V82.5756H243.069V84.6276H235.383V73.6289Z" fill="#8B8B8B"/>
<path d="M244.422 73.6289H246.853V84.6276H244.422V73.6289Z" fill="#8B8B8B"/>
<path d="M258.898 73.6289V84.6276H256.937L251.682 77.9791V84.6276H249.329V73.6289H251.29L256.545 80.2774V73.6289H258.898Z" fill="#8B8B8B"/>
<path d="M261.423 73.6289H263.854V84.6276H261.423V73.6289Z" fill="#8B8B8B"/>
<mask id="mask0_783_2425" style="mask-type:luminance" maskUnits="userSpaceOnUse" x="0" y="0" width="44" height="87">
<path d="M0 0H43.4305V86.6763H0V0Z" fill="white"/>
</mask>
<g mask="url(#mask0_783_2425)">
<path fill-rule="evenodd" clip-rule="evenodd" d="M12.079 48.3245C14.0202 55.5885 18.5103 62.4627 23.0788 65.4381C22.0592 65.4792 18.6671 64.3711 15.1182 62.4422C18.0789 70.1372 21.0788 77.5654 24.6082 85.0347C16.8436 77.5859 2.2753 54.9114 0.255734 38.3928C-0.116809 35.4585 -0.0775938 32.7293 0.451808 30.308C2.37334 21.6075 9.29477 18.4885 16.4515 19.5555C26.4317 21.074 28.1571 30.1848 41.0588 31.1288C31.1767 40.0549 22.7455 25.732 14.6672 27.9071C10.53 29.0152 8.41243 34.5351 12.079 48.3245ZM13.1378 0C17.1377 0 20.471 3.40631 20.5887 7.6129C20.6867 11.8195 17.5299 15.2258 13.53 15.2258C9.53005 15.2258 6.19679 11.8195 6.07914 7.6129C5.9811 3.40631 9.13791 0 13.1378 0Z" fill="#8B8B8B"/>
</g>
<path d="M7.46447 112.101C7.09193 112.101 6.7586 111.978 6.44488 111.691C6.17038 111.363 6.05273 110.993 6.05273 110.542C6.05273 110.111 6.17038 109.762 6.44488 109.475C6.7586 109.208 7.09193 109.064 7.46447 109.064C7.87623 109.064 8.20956 109.208 8.48406 109.475C8.73895 109.762 8.87621 110.111 8.87621 110.542C8.87621 110.993 8.73895 111.363 8.48406 111.691C8.20956 111.978 7.87623 112.101 7.46447 112.101Z" fill="#8B8B8B"/>
<path d="M18.63 114.062C17.7869 114.062 17.0222 113.877 16.3556 113.487C15.7281 113.118 15.2184 112.584 14.8654 111.928C14.4929 111.271 14.3164 110.532 14.3164 109.712C14.3164 108.891 14.4929 108.152 14.8654 107.495C15.2184 106.839 15.7281 106.326 16.3556 105.936C17.0222 105.567 17.7869 105.361 18.63 105.361C19.2967 105.361 19.9241 105.505 20.5124 105.772C21.081 105.997 21.5516 106.346 21.9241 106.839L20.7476 107.988C20.2182 107.331 19.532 107.003 18.7085 107.003C18.2379 107.003 17.7869 107.147 17.3752 107.413C17.0026 107.639 16.7085 107.947 16.5124 108.316C16.2968 108.706 16.1987 109.178 16.1987 109.712C16.1987 110.204 16.2968 110.676 16.5124 111.107C16.7085 111.497 17.0026 111.825 17.3752 112.092C17.7869 112.318 18.2379 112.42 18.7085 112.42C19.532 112.42 20.2182 112.071 20.7476 111.353L21.9241 112.584C21.5516 113.036 21.081 113.385 20.5124 113.651C19.9241 113.918 19.2967 114.062 18.63 114.062Z" fill="#8B8B8B"/>
<path d="M31.097 105.535V113.907H29.2147V110.46H25.6069V113.907H23.7246V105.535H25.6069V108.818H29.2147V105.535H31.097Z" fill="#8B8B8B"/>
<path d="M33.5205 105.535H35.4028V113.907H33.5205V105.535Z" fill="#8B8B8B"/>
<path d="M0 124.104H274.877" stroke="#8B8B8B" stroke-width="0.998931"/>
<path d="M97.0596 18.8223C103.216 18.8223 107.961 20.628 111.255 24.2395C114.589 27.81 116.275 32.94 116.275 39.6705C116.275 47.5502 114.412 53.6036 110.706 57.8102C106.981 62.0373 101.687 64.1303 94.7851 64.1303C92.746 64.1303 90.2558 64.0688 87.3343 63.9662C84.452 63.9046 82.0011 63.802 79.9619 63.6378L80.4325 50.3409L79.9619 19.0685L97.0596 18.8223ZM96.4322 56.8252C103.432 56.8252 106.942 51.8183 106.942 41.8046C106.942 36.3873 106.079 32.4475 104.354 29.9851C102.667 27.5227 100.04 26.2915 96.4322 26.2915C94.0793 26.2915 91.5695 26.4146 88.9029 26.6198L88.5108 49.5201L88.746 56.3327C91.8244 56.6611 94.393 56.8252 96.4322 56.8252Z" fill="#8B8B8B"/>
<path d="M153.953 41.7224L153.875 47.5501C153.914 52.8647 152.424 56.9892 149.404 59.9441C146.424 62.8579 142.13 64.2943 136.542 64.2943C131.149 64.2943 127.052 62.899 124.228 60.1083C121.444 57.2765 120.111 53.2136 120.228 47.9605L120.307 41.4761L120.071 19.0684H129.091L128.62 46.6472C128.561 50.0535 129.248 52.5569 130.659 54.1985C132.071 55.7991 134.208 56.5788 137.091 56.5788C142.836 56.5788 145.679 53.4393 145.639 47.1397L145.169 19.0684H154.267L153.953 41.7224Z" fill="#8B8B8B"/>
<path d="M178.506 18.8223C184.663 18.8223 189.408 20.628 192.702 24.2395C196.035 27.81 197.721 32.94 197.721 39.6705C197.721 47.5502 195.858 53.6036 192.153 57.8102C188.427 62.0373 183.133 64.1303 176.231 64.1303C174.192 64.1303 171.702 64.0688 168.781 63.9662C165.898 63.9046 163.447 63.802 161.408 63.6378L161.879 50.3409L161.408 19.0685L178.506 18.8223ZM177.878 56.8252C184.878 56.8252 188.388 51.8183 188.388 41.8046C188.388 36.3873 187.525 32.4475 185.8 29.9851C184.114 27.5227 181.486 26.2915 177.878 26.2915C175.526 26.2915 173.016 26.4146 170.349 26.6198L169.957 49.5201L170.192 56.3327C173.271 56.6611 175.839 56.8252 177.878 56.8252Z" fill="#8B8B8B"/>
<path d="M238.146 49.52L238.459 63.6377H229.518L229.911 50.3408L229.832 45.1697L220.264 45.0877L211.636 45.2518L211.558 49.52L211.872 63.6377H202.931L203.401 50.3408L202.931 19.0684H212.029L211.715 37.4542L220.891 37.6184L229.754 37.4542L229.518 19.0684H238.616L238.146 49.52Z" fill="#8B8B8B"/>
<path d="M89.2667 84.6276L89.1882 78.0612L86.1295 83.4785H85.0315L81.9727 78.2254V84.6276H79.6982V73.6289H81.659L85.5805 80.4415L89.502 73.6289H91.4627L91.5411 84.6276H89.2667Z" fill="#8B8B8B"/>
<path d="M98.6179 84.7918C97.1473 84.7918 95.9905 84.3814 95.167 83.5606C94.3239 82.6987 93.9121 81.4265 93.9121 79.7849V73.6289H96.3434V79.7028C96.3434 81.6727 97.0885 82.6577 98.6179 82.6577C99.4022 82.6577 99.9708 82.4525 100.343 82.001C100.755 81.5086 100.971 80.7493 100.971 79.7028V73.6289H103.402V79.7849C103.402 81.4265 102.971 82.6987 102.147 83.5606C101.304 84.3814 100.128 84.7918 98.6179 84.7918Z" fill="#8B8B8B"/>
<path d="M105.783 73.6289H108.215V82.5756H113.469V84.6276H105.783V73.6289Z" fill="#8B8B8B"/>
<path d="M117.016 75.763H113.644V73.6289H122.741V75.763H119.369V84.6276H117.016V75.763Z" fill="#8B8B8B"/>
<path d="M124.07 73.6289H126.502V84.6276H124.07V73.6289Z" fill="#8B8B8B"/>
<path d="M132.432 84.7977C131.589 84.7977 130.785 84.6746 130 84.4694C129.216 84.2642 128.589 83.9564 128.118 83.5665L128.981 81.6787C129.393 82.007 129.922 82.2943 130.549 82.4995C131.177 82.6636 131.804 82.7457 132.432 82.7457C133.098 82.7457 133.608 82.6636 133.922 82.4995C134.275 82.2943 134.471 81.9865 134.471 81.5966C134.471 81.3298 134.353 81.1041 134.157 80.94C133.942 80.7758 133.687 80.6527 133.373 80.5296C133.098 80.427 132.706 80.3244 132.197 80.2012C131.353 79.9961 130.667 79.7908 130.157 79.6267C129.687 79.4215 129.255 79.0932 128.902 78.6417C128.53 78.2108 128.353 77.6363 128.353 76.9181C128.353 76.2614 128.51 75.6869 128.824 75.1944C129.177 74.6609 129.687 74.2505 130.314 73.9632C130.981 73.6349 131.804 73.4707 132.746 73.4707C133.412 73.4707 134.079 73.5528 134.706 73.7169C135.373 73.8811 135.961 74.1273 136.432 74.4557L135.647 76.3435C134.706 75.81 133.726 75.5227 132.746 75.5227C132.059 75.5227 131.569 75.6458 131.255 75.851C130.942 76.0767 130.785 76.3845 130.785 76.7539C130.785 77.1438 130.961 77.4516 131.334 77.6568C131.687 77.8209 132.275 77.9851 133.059 78.1493C133.844 78.375 134.491 78.6007 135.02 78.8059C135.53 78.97 135.981 79.2779 136.353 79.7088C136.706 80.0986 136.902 80.6732 136.902 81.4324C136.902 82.048 136.706 82.6226 136.353 83.1561C136.04 83.6486 135.53 84.059 134.863 84.3873C134.177 84.6541 133.373 84.7977 132.432 84.7977Z" fill="#8B8B8B"/>
<path d="M143.076 73.6289C143.959 73.6289 144.743 73.7931 145.429 74.1214C146.155 74.4497 146.704 74.9217 147.076 75.5167C147.429 76.1323 147.625 76.83 147.625 77.6508C147.625 78.4716 147.429 79.1898 147.076 79.7849C146.704 80.3389 146.155 80.7698 145.429 81.0982C144.743 81.4265 143.959 81.5906 143.076 81.5906H140.959V84.6276H138.527V73.6289H143.076ZM142.919 79.5387C143.645 79.5387 144.194 79.3745 144.566 79.0462C144.919 78.7179 145.115 78.2664 145.115 77.6508C145.115 77.0557 144.919 76.5838 144.566 76.2555C144.194 75.9271 143.645 75.763 142.919 75.763H140.959V79.5387H142.919Z" fill="#8B8B8B"/>
<path d="M157.56 82.5756V84.6276H149.481V73.6289H157.403V75.6809H151.913V78.0612H156.775V80.0311H151.913V82.5756H157.56Z" fill="#8B8B8B"/>
<path d="M164.543 84.7977C163.445 84.7977 162.445 84.5925 161.562 84.1411C160.719 83.6486 160.033 82.9714 159.523 82.0891C159.053 81.2272 158.817 80.2423 158.817 79.1342C158.817 78.0467 159.053 77.0822 159.523 76.2614C160.033 75.3996 160.719 74.7019 161.562 74.2094C162.445 73.7169 163.445 73.4707 164.543 73.4707C165.425 73.4707 166.229 73.6349 166.974 73.9632C167.7 74.2915 168.327 74.784 168.856 75.4406L167.288 76.9181C166.602 76.0562 165.739 75.6048 164.7 75.6048C164.013 75.6048 163.406 75.7689 162.896 76.0973C162.425 76.3845 162.033 76.7949 161.719 77.3285C161.445 77.8825 161.327 78.4776 161.327 79.1342C161.327 79.8524 161.445 80.4885 161.719 81.022C162.033 81.5145 162.425 81.9249 162.896 82.2532C163.406 82.5405 164.013 82.6636 164.7 82.6636C165.739 82.6636 166.602 82.2327 167.288 81.3504L168.856 82.8278C168.327 83.4844 167.7 83.9769 166.974 84.3052C166.229 84.6336 165.425 84.7977 164.543 84.7977Z" fill="#8B8B8B"/>
<path d="M170.493 73.6289H172.924V84.6276H170.493V73.6289Z" fill="#8B8B8B"/>
<path d="M182.303 82.2473H177.44L176.499 84.6276H173.989L178.695 73.6289H181.048L185.754 84.6276H183.244L182.303 82.2473ZM181.519 80.3595L179.871 76.1734L178.224 80.3595H181.519Z" fill="#8B8B8B"/>
<path d="M186.864 73.6289H189.296V82.5756H194.55V84.6276H186.864V73.6289Z" fill="#8B8B8B"/>
<path d="M195.903 73.6289H198.335V84.6276H195.903V73.6289Z" fill="#8B8B8B"/>
<path d="M203.008 75.763H199.636V73.6289H208.734V75.763H205.361V84.6276H203.008V75.763Z" fill="#8B8B8B"/>
<path d="M215.08 80.7698V84.6276H212.649V80.6878L208.57 73.6289H211.158L213.982 78.5537L216.805 73.6289H219.158L215.08 80.7698Z" fill="#8B8B8B"/>
<path d="M229.433 84.7977C228.335 84.7977 227.335 84.5925 226.453 84.1411C225.61 83.6486 224.924 82.9714 224.414 82.0891C223.943 81.2272 223.708 80.2423 223.708 79.1342C223.708 78.0467 223.943 77.0822 224.414 76.2614C224.924 75.3996 225.61 74.7019 226.453 74.2094C227.335 73.7169 228.335 73.4707 229.433 73.4707C230.316 73.4707 231.12 73.6349 231.865 73.9632C232.59 74.2915 233.218 74.784 233.747 75.4406L232.178 76.9181C231.492 76.0562 230.629 75.6048 229.59 75.6048C228.904 75.6048 228.296 75.7689 227.786 76.0973C227.316 76.3845 226.924 76.7949 226.61 77.3285C226.335 77.8825 226.218 78.4776 226.218 79.1342C226.218 79.8524 226.335 80.4885 226.61 81.022C226.924 81.5145 227.316 81.9249 227.786 82.2532C228.296 82.5405 228.904 82.6636 229.59 82.6636C230.629 82.6636 231.492 82.2327 232.178 81.3504L233.747 82.8278C233.218 83.4844 232.59 83.9769 231.865 84.3052C231.12 84.6336 230.316 84.7977 229.433 84.7977Z" fill="#8B8B8B"/>
<path d="M0 96.709H274.877" stroke="#8B8B8B" stroke-width="0.998931"/>
<mask id="mask1_783_2425" style="mask-type:luminance" maskUnits="userSpaceOnUse" x="28" y="0" width="44" height="87">
<path d="M28.3701 0H71.5261V86.6763H28.3701V0Z" fill="white"/>
</mask>
<g mask="url(#mask1_783_2425)">
<path fill-rule="evenodd" clip-rule="evenodd" d="M28.4287 20.1936C37.4677 32.0951 45.7617 26.6368 52.1145 27.4371C71.7612 29.92 62.428 56.6575 50.5459 64.8655C51.5655 64.9065 54.9576 63.7369 58.5065 61.6849C55.5458 69.8313 52.5459 77.711 49.0165 85.6317C60.2908 74.2226 82.4276 34.2908 65.1927 20.7886C62.6633 18.7982 59.0163 17.7927 53.7811 19.3317C38.5658 23.8051 31.86 21.8967 28.4287 20.1936ZM55.0752 3.32617C58.5261 3.32617 61.4084 6.26053 61.5065 9.89256C61.5849 13.5246 58.8791 16.4589 55.4086 16.4589C51.9576 16.4589 49.095 13.5246 48.9969 9.89256C48.8989 6.26053 51.6243 3.32617 55.0752 3.32617Z" fill="#8B8B8B"/>
</g>
<mask id="mask2_783_2425" style="mask-type:luminance" maskUnits="userSpaceOnUse" x="23" y="40" width="31" height="47">
<path d="M23.3525 40.9961H53.4696V86.6735H23.3525V40.9961Z" fill="white"/>
</mask>
<g mask="url(#mask2_783_2425)">
<path fill-rule="evenodd" clip-rule="evenodd" d="M25.1361 56.5272C25.4498 61.5957 26.7635 72.184 28.4889 79.0992C31.5085 91.1034 32.1751 84.4959 32.8614 78.5452C33.8222 70.2756 36.8221 69.1881 39.9201 77.9296C42.4298 85.0089 44.1553 94.2224 45.018 76.1443C45.6651 62.8679 46.4101 62.8884 50.6257 50.1045C57.6452 28.8458 41.8612 56.0963 40.8612 57.2865C36.6849 62.2728 32.3124 62.909 28.3517 50.2892C24.1949 37.0538 24.8812 52.3001 25.1361 56.5272ZM37.3515 42.9636C39.4887 42.9636 41.2142 45.0976 41.2142 47.7242C41.2142 50.3713 39.4887 52.5053 37.3515 52.5053C35.2143 52.5053 33.4888 50.3713 33.4888 47.7242C33.4888 45.0976 35.2143 42.9636 37.3515 42.9636Z" fill="#1B1A15"/>
</g>
<path d="M37.8154 105.535H39.6977V112.348H43.6977V113.907H37.8154V105.535Z" fill="#8B8B8B"/>
<path d="M45.2754 105.535H48.9616C49.7851 105.535 50.5498 105.74 51.2361 106.11C51.9027 106.438 52.4321 106.931 52.8046 107.587C53.1576 108.203 53.3537 108.9 53.3537 109.721C53.3537 110.542 53.1576 111.281 52.8046 111.937C52.4321 112.553 51.9027 113.045 51.2361 113.415C50.5498 113.743 49.7851 113.907 48.9616 113.907H45.2754V105.535ZM48.8047 112.348C49.6282 112.348 50.2949 112.143 50.7655 111.691C51.2361 111.199 51.4713 110.542 51.4713 109.721C51.4713 108.9 51.2361 108.285 50.7655 107.833C50.2949 107.341 49.6282 107.095 48.8047 107.095H47.1577V112.348H48.8047Z" fill="#8B8B8B"/>
<path d="M60.1569 112.101C59.7843 112.101 59.451 111.978 59.1373 111.691C58.8628 111.363 58.7451 110.993 58.7451 110.542C58.7451 110.111 58.8628 109.762 59.1373 109.475C59.451 109.208 59.7843 109.064 60.1569 109.064C60.5686 109.064 60.9019 109.208 61.1764 109.475C61.4313 109.762 61.5686 110.111 61.5686 110.542C61.5686 110.993 61.4313 111.363 61.1764 111.691C60.9019 111.978 60.5686 112.101 60.1569 112.101Z" fill="#8B8B8B"/>
<path d="M67.4805 105.535H71.1667C71.9902 105.535 72.7549 105.74 73.4411 106.11C74.1078 106.438 74.6372 106.931 75.0097 107.587C75.3627 108.203 75.5587 108.9 75.5587 109.721C75.5587 110.542 75.3627 111.281 75.0097 111.937C74.6372 112.553 74.1078 113.045 73.4411 113.415C72.7549 113.743 71.9902 113.907 71.1667 113.907H67.4805V105.535ZM71.0098 112.348C71.8333 112.348 72.5 112.143 72.9706 111.691C73.4411 111.199 73.6764 110.542 73.6764 109.721C73.6764 108.9 73.4411 108.285 72.9706 107.833C72.5 107.341 71.8333 107.095 71.0098 107.095H69.3628V112.348H71.0098Z" fill="#8B8B8B"/>
<path d="M83.6774 112.348V113.907H77.4814V105.535H83.5205V107.095H79.3638V108.9H83.05V110.378H79.3638V112.348H83.6774Z" fill="#8B8B8B"/>
<path d="M93.0804 105.535V113.907H91.5118L87.5119 108.818V113.907H85.708V105.535H87.2766L91.1981 110.624V105.535H93.0804Z" fill="#8B8B8B"/>
<path d="M97.1514 107.095H94.6416V105.535H101.622V107.095H99.0337V113.907H97.1514V107.095Z" fill="#8B8B8B"/>
<path d="M108.378 112.102H104.692L103.986 113.907H102.104L105.633 105.535H107.515L111.045 113.907H109.084L108.378 112.102ZM107.829 110.624L106.574 107.423L105.319 110.624H107.829Z" fill="#8B8B8B"/>
<path d="M112.438 105.535H114.32V112.348H118.32V113.907H112.438V105.535Z" fill="#8B8B8B"/>
<path d="M124.777 112.101C124.404 112.101 124.071 111.978 123.757 111.691C123.483 111.363 123.365 110.993 123.365 110.542C123.365 110.111 123.483 109.762 123.757 109.475C124.071 109.208 124.404 109.064 124.777 109.064C125.189 109.064 125.522 109.208 125.797 109.475C126.051 109.762 126.189 110.111 126.189 110.542C126.189 110.993 126.051 111.363 125.797 111.691C125.522 111.978 125.189 112.101 124.777 112.101Z" fill="#8B8B8B"/>
<path d="M134.765 114.062C134.137 114.062 133.51 113.98 132.882 113.816C132.294 113.61 131.824 113.364 131.471 113.077L132.098 111.599C132.451 111.887 132.882 112.092 133.353 112.256C133.824 112.42 134.294 112.502 134.765 112.502C135.275 112.502 135.667 112.42 135.941 112.256C136.196 112.092 136.333 111.887 136.333 111.599C136.333 111.394 136.255 111.23 136.098 111.107C135.941 110.943 135.726 110.84 135.471 110.779C135.255 110.676 134.941 110.594 134.529 110.532C133.941 110.368 133.451 110.204 133.039 110.04C132.667 109.876 132.333 109.629 132.02 109.301C131.745 108.973 131.628 108.542 131.628 107.988C131.628 107.495 131.745 107.064 132.02 106.675C132.275 106.305 132.647 105.997 133.118 105.772C133.628 105.505 134.255 105.361 135 105.361C135.51 105.361 136.02 105.443 136.49 105.608C137 105.731 137.451 105.895 137.824 106.1L137.196 107.577C136.451 107.147 135.726 106.921 135 106.921C134.471 106.921 134.078 107.003 133.824 107.167C133.608 107.331 133.51 107.577 133.51 107.906C133.51 108.193 133.628 108.398 133.902 108.562C134.216 108.686 134.647 108.809 135.235 108.973C135.863 109.096 136.353 109.219 136.725 109.383C137.078 109.547 137.392 109.794 137.667 110.122C137.98 110.45 138.137 110.902 138.137 111.435C138.137 111.928 138 112.379 137.745 112.749C137.471 113.138 137.078 113.467 136.569 113.733C136.098 113.939 135.49 114.062 134.765 114.062Z" fill="#8B8B8B"/>
<path d="M142.849 110.624L141.83 111.773V113.907H139.947V105.535H141.83V109.475L145.359 105.535H147.398L144.104 109.229L147.633 113.907H145.437L142.849 110.624Z" fill="#8B8B8B"/>
<path d="M148.964 105.535H150.846V113.907H148.964V105.535Z" fill="#8B8B8B"/>
<path d="M160.634 105.535V113.907H159.066L155.066 108.818V113.907H153.262V105.535H154.83L158.752 110.624V105.535H160.634Z" fill="#8B8B8B"/>
<path d="M167.936 112.101C167.564 112.101 167.23 111.978 166.917 111.691C166.642 111.363 166.524 110.993 166.524 110.542C166.524 110.111 166.642 109.762 166.917 109.475C167.23 109.208 167.564 109.064 167.936 109.064C168.348 109.064 168.681 109.208 168.956 109.475C169.211 109.762 169.348 110.111 169.348 110.542C169.348 110.993 169.211 111.363 168.956 111.691C168.681 111.978 168.348 112.101 167.936 112.101Z" fill="#8B8B8B"/>
<path d="M179.181 114.062C178.338 114.062 177.573 113.877 176.907 113.487C176.22 113.118 175.691 112.584 175.338 111.928C174.966 111.271 174.789 110.532 174.789 109.712C174.789 108.891 174.966 108.152 175.338 107.495C175.691 106.839 176.22 106.326 176.907 105.936C177.573 105.567 178.338 105.361 179.181 105.361C180.005 105.361 180.75 105.567 181.377 105.936C182.044 106.326 182.573 106.839 182.946 107.495C183.358 108.152 183.573 108.891 183.573 109.712C183.573 110.532 183.358 111.271 182.946 111.928C182.573 112.584 182.044 113.118 181.377 113.487C180.75 113.877 180.005 114.062 179.181 114.062ZM179.181 112.42C179.652 112.42 180.063 112.318 180.436 112.092C180.789 111.825 181.083 111.497 181.299 111.107C181.554 110.676 181.691 110.204 181.691 109.712C181.691 109.178 181.554 108.706 181.299 108.316C181.083 107.947 180.789 107.639 180.436 107.413C180.063 107.147 179.652 107.003 179.181 107.003C178.711 107.003 178.26 107.147 177.848 107.413C177.475 107.639 177.181 107.947 176.985 108.316C176.769 108.706 176.671 109.178 176.671 109.712C176.671 110.204 176.769 110.676 176.985 111.107C177.181 111.497 177.475 111.825 177.848 112.092C178.26 112.318 178.711 112.42 179.181 112.42Z" fill="#8B8B8B"/>
<path d="M191.348 109.557C191.819 109.721 192.172 110.009 192.446 110.378C192.701 110.706 192.838 111.117 192.838 111.609C192.838 112.389 192.544 112.963 191.975 113.333C191.446 113.723 190.662 113.907 189.623 113.907H185.466V105.535H189.387C190.368 105.535 191.132 105.74 191.662 106.11C192.172 106.5 192.446 107.013 192.446 107.669C192.446 108.121 192.328 108.49 192.132 108.818C191.975 109.106 191.701 109.352 191.348 109.557ZM187.348 107.013V108.983H189.152C189.623 108.983 189.956 108.9 190.172 108.736C190.427 108.572 190.564 108.326 190.564 107.998C190.564 107.669 190.427 107.423 190.172 107.259C189.956 107.095 189.623 107.013 189.152 107.013H187.348ZM189.466 112.43C189.976 112.43 190.348 112.348 190.564 112.184C190.819 112.019 190.956 111.773 190.956 111.445C190.956 110.747 190.446 110.378 189.466 110.378H187.348V112.43H189.466Z" fill="#8B8B8B"/>
<path d="M197.438 114.062C196.81 114.062 196.183 113.98 195.555 113.816C194.967 113.61 194.496 113.364 194.144 113.077L194.771 111.599C195.124 111.887 195.555 112.092 196.026 112.256C196.496 112.42 196.967 112.502 197.438 112.502C197.947 112.502 198.34 112.42 198.614 112.256C198.869 112.092 199.006 111.887 199.006 111.599C199.006 111.394 198.928 111.23 198.771 111.107C198.614 110.943 198.398 110.84 198.143 110.779C197.928 110.676 197.614 110.594 197.202 110.532C196.614 110.368 196.124 110.204 195.712 110.04C195.34 109.876 195.006 109.629 194.693 109.301C194.418 108.973 194.3 108.542 194.3 107.988C194.3 107.495 194.418 107.064 194.693 106.675C194.947 106.305 195.32 105.997 195.791 105.772C196.3 105.505 196.928 105.361 197.673 105.361C198.183 105.361 198.692 105.443 199.163 105.608C199.673 105.731 200.124 105.895 200.496 106.1L199.869 107.577C199.124 107.147 198.398 106.921 197.673 106.921C197.143 106.921 196.751 107.003 196.496 107.167C196.281 107.331 196.183 107.577 196.183 107.906C196.183 108.193 196.3 108.398 196.575 108.562C196.889 108.686 197.32 108.809 197.908 108.973C198.536 109.096 199.026 109.219 199.398 109.383C199.751 109.547 200.065 109.794 200.34 110.122C200.653 110.45 200.81 110.902 200.81 111.435C200.81 111.928 200.673 112.379 200.418 112.749C200.143 113.138 199.751 113.467 199.241 113.733C198.771 113.939 198.163 114.062 197.438 114.062Z" fill="#8B8B8B"/>
<path d="M212.597 114.062L211.578 113.077C210.833 113.733 209.95 114.062 208.911 114.062C208.323 114.062 207.813 113.98 207.343 113.816C206.872 113.61 206.5 113.323 206.245 112.995C205.97 112.625 205.853 112.215 205.853 111.764C205.853 111.23 205.97 110.758 206.245 110.368C206.558 109.999 207.029 109.609 207.656 109.219C207.343 108.952 207.107 108.686 206.951 108.398C206.833 108.07 206.794 107.783 206.794 107.495C206.794 107.064 206.892 106.716 207.107 106.428C207.303 106.1 207.598 105.854 207.97 105.69C208.382 105.484 208.833 105.361 209.303 105.361C209.97 105.361 210.519 105.567 210.95 105.936C211.362 106.264 211.578 106.736 211.578 107.331C211.578 107.783 211.441 108.152 211.186 108.48C210.97 108.809 210.578 109.137 210.009 109.465L211.499 110.861C211.656 110.491 211.774 110.04 211.892 109.547L213.303 110.04C213.186 110.82 212.95 111.435 212.597 111.928L213.539 112.831L212.597 114.062ZM209.303 106.675C209.029 106.675 208.833 106.757 208.676 106.921C208.519 107.044 208.441 107.208 208.441 107.413C208.441 107.577 208.46 107.742 208.519 107.906C208.617 108.07 208.794 108.275 209.068 108.48C209.421 108.275 209.696 108.07 209.852 107.906C210.009 107.742 210.088 107.557 210.088 107.331C210.088 107.167 210.009 107.044 209.852 106.921C209.735 106.757 209.558 106.675 209.303 106.675ZM209.068 112.584C209.637 112.584 210.127 112.42 210.558 112.092L208.598 110.204C208.225 110.43 207.97 110.655 207.813 110.861C207.696 111.025 207.656 111.251 207.656 111.517C207.656 111.846 207.774 112.133 208.049 112.338C208.303 112.502 208.637 112.584 209.068 112.584Z" fill="#8B8B8B"/>
<path d="M224.473 109.547H226.199V112.995C225.728 113.323 225.199 113.61 224.63 113.816C224.101 113.98 223.532 114.062 222.904 114.062C222.12 114.062 221.375 113.877 220.708 113.487C220.022 113.118 219.493 112.584 219.14 111.928C218.767 111.271 218.591 110.532 218.591 109.712C218.591 108.891 218.767 108.152 219.14 107.495C219.493 106.839 220.022 106.326 220.708 105.936C221.375 105.567 222.14 105.361 222.983 105.361C223.65 105.361 224.277 105.505 224.865 105.772C225.434 105.997 225.924 106.346 226.355 106.839L225.1 107.988C224.571 107.331 223.885 107.003 223.061 107.003C222.532 107.003 222.061 107.126 221.65 107.331C221.277 107.557 220.983 107.885 220.787 108.316C220.571 108.706 220.473 109.178 220.473 109.712C220.473 110.204 220.571 110.676 220.787 111.107C220.983 111.497 221.277 111.825 221.65 112.092C222.061 112.318 222.532 112.42 223.061 112.42C223.571 112.42 224.042 112.297 224.473 112.01V109.547Z" fill="#8B8B8B"/>
<path d="M232.274 110.952V113.907H230.47V110.952L227.333 105.535H229.294L231.411 109.229L233.607 105.535H235.411L232.274 110.952Z" fill="#8B8B8B"/>
<path d="M244.089 105.535V113.907H242.521L238.521 108.818V113.907H236.717V105.535H238.285L242.207 110.624V105.535H244.089Z" fill="#8B8B8B"/>
<path d="M251.768 112.102H248.081L247.375 113.907H245.493L249.023 105.535H250.905L254.434 113.907H252.473L251.768 112.102ZM251.219 110.624L249.964 107.423L248.709 110.624H251.219Z" fill="#8B8B8B"/>
<path d="M262.026 112.348V113.907H255.83V105.535H261.869V107.095H257.712V108.9H261.399V110.378H257.712V112.348H262.026Z" fill="#8B8B8B"/>
<path d="M268.932 112.101C268.56 112.101 268.226 111.978 267.913 111.691C267.638 111.363 267.521 110.993 267.521 110.542C267.521 110.111 267.638 109.762 267.913 109.475C268.226 109.208 268.56 109.064 268.932 109.064C269.344 109.064 269.677 109.208 269.952 109.475C270.207 109.762 270.344 110.111 270.344 110.542C270.344 110.993 270.207 111.363 269.952 111.691C269.677 111.978 269.344 112.101 268.932 112.101Z" fill="#8B8B8B"/>
</svg>
