<svg width="292" height="126" viewBox="0 0 292 126" fill="none" xmlns="http://www.w3.org/2000/svg">
<mask id="mask0_783_2422" style="mask-type:luminance" maskUnits="userSpaceOnUse" x="279" y="57" width="10" height="14">
<path d="M279.494 57.209H288.442V70.5422H279.494V57.209Z" fill="white"/>
</mask>
<g mask="url(#mask0_783_2422)">
<path d="M285.384 64.3776H284.004V61.7073H285.384C286.433 61.7073 286.975 62.2011 286.975 63.0424C286.975 63.8838 286.433 64.3776 285.384 64.3776ZM288.181 63.0424C288.181 61.5427 287.132 60.6465 285.454 60.6465H282.798V67.3771H284.004V65.4018H285.454C285.524 65.4018 285.612 65.4018 285.699 65.4018L287.01 67.3771H288.285L286.817 65.1641C287.691 64.7983 288.181 64.0484 288.181 63.0424Z" fill="black"/>
</g>
<mask id="mask1_783_2422" style="mask-type:luminance" maskUnits="userSpaceOnUse" x="278" y="57" width="14" height="15">
<path d="M278.569 57.209H291.991V71.2555H278.569V57.209Z" fill="white"/>
</mask>
<g mask="url(#mask1_783_2422)">
<path d="M285.28 70.0301C282.222 70.0301 279.723 67.433 279.723 64.2323C279.723 61.0315 282.222 58.4161 285.28 58.4161C288.339 58.4161 290.82 61.0315 290.82 64.2323C290.82 67.433 288.339 70.0301 285.28 70.0301ZM285.28 57.209C281.575 57.209 278.569 60.3548 278.569 64.2323C278.569 68.0914 281.575 71.2555 285.28 71.2555C288.968 71.2555 291.991 68.0914 291.991 64.2323C291.991 60.3548 288.968 57.209 285.28 57.209Z" fill="black"/>
</g>
<path d="M59.7248 111.015H58.1869L58.117 106.26L56.4392 110.284H55.3207L53.643 106.26V111.015H52.0352V103.699H53.9925L55.88 108.016L57.7674 103.699H59.7248V111.015Z" fill="#8B8B8B"/>
<path d="M66.5757 105.162H62.8707V106.626H66.2262V108.089H62.8707V109.552H66.7155V111.015H61.123V103.699H66.5757V105.162Z" fill="#8B8B8B"/>
<path d="M72.5376 109.698H69.4618L68.9025 111.015H67.085L70.0909 103.699H71.9784L74.9144 111.015H73.0269L72.5376 109.698ZM71.9784 108.235L70.9997 105.528L69.9511 108.235H71.9784Z" fill="#8B8B8B"/>
<path d="M77.2926 109.479H80.2985V111.015H75.5449V103.699H77.2926V109.479Z" fill="#8B8B8B"/>
<path d="M83.4521 103.699H86.528C87.4018 103.699 88.0834 103.919 88.5553 104.358C89.0621 104.797 89.3242 105.437 89.3242 106.26C89.3242 107.101 89.0621 107.76 88.5553 108.235C88.0834 108.729 87.4018 108.967 86.528 108.967H85.1998V111.015H83.4521V103.699ZM85.1998 105.162V107.503H86.3882C86.8076 107.503 87.1047 107.412 87.297 107.211C87.5242 107.028 87.6465 106.735 87.6465 106.333C87.6465 105.949 87.5242 105.656 87.297 105.455C87.1047 105.272 86.8076 105.162 86.3882 105.162H85.1998Z" fill="#8B8B8B"/>
<path d="M94.4356 111.015L93.387 108.967H91.9889V111.015H90.2412V103.699H93.387C94.3132 103.699 95.0123 103.919 95.4841 104.358C95.991 104.797 96.2531 105.437 96.2531 106.26C96.2531 107.394 95.8337 108.162 94.9948 108.601L96.4628 111.015H94.4356ZM91.9889 107.503H93.387C93.754 107.503 94.0336 107.412 94.2258 107.211C94.453 107.028 94.5754 106.735 94.5754 106.333C94.5754 105.949 94.453 105.656 94.2258 105.455C94.0336 105.272 93.754 105.162 93.387 105.162H91.9889V107.503Z" fill="#8B8B8B"/>
<path d="M102.926 105.162H99.2213V106.626H102.577V108.089H99.2213V109.552H103.066V111.015H97.4736V103.699H102.926V105.162Z" fill="#8B8B8B"/>
<path d="M104.203 103.699H107.279C108.153 103.699 108.834 103.919 109.306 104.358C109.813 104.797 110.075 105.437 110.075 106.26C110.075 107.101 109.813 107.76 109.306 108.235C108.834 108.729 108.153 108.967 107.279 108.967H105.951V111.015H104.203V103.699ZM105.951 105.162V107.503H107.139C107.559 107.503 107.856 107.412 108.048 107.211C108.275 107.028 108.397 106.735 108.397 106.333C108.397 105.949 108.275 105.656 108.048 105.455C107.856 105.272 107.559 105.162 107.139 105.162H105.951Z" fill="#8B8B8B"/>
<path d="M114.778 112.18H113.45V102.596H114.778V112.18Z" fill="#8B8B8B"/>
<path d="M118.611 103.699H121.897C122.683 103.699 123.312 103.882 123.784 104.211C124.239 104.504 124.483 104.943 124.483 105.528C124.483 105.931 124.361 106.26 124.134 106.552C123.942 106.845 123.662 107.046 123.295 107.138C123.714 107.247 124.064 107.467 124.344 107.796C124.623 108.144 124.763 108.528 124.763 108.967C124.763 109.607 124.501 110.119 123.994 110.503C123.522 110.851 122.876 111.015 122.037 111.015H118.611V103.699ZM120.359 105.089V106.626H121.827C122.054 106.626 122.246 106.552 122.386 106.406C122.561 106.26 122.666 106.077 122.666 105.821C122.666 105.638 122.561 105.455 122.386 105.309C122.246 105.162 122.054 105.089 121.827 105.089H120.359ZM120.359 107.942V109.552H121.827C122.142 109.552 122.404 109.479 122.596 109.332C122.771 109.186 122.876 109.003 122.876 108.747C122.876 108.509 122.771 108.308 122.596 108.162C122.404 108.016 122.142 107.942 121.827 107.942H120.359Z" fill="#8B8B8B"/>
<path d="M129.945 111.015L128.897 108.967H127.499V111.015H125.751V103.699H128.897C129.823 103.699 130.522 103.919 130.994 104.358C131.501 104.797 131.763 105.437 131.763 106.26C131.763 107.394 131.343 108.162 130.505 108.601L131.973 111.015H129.945ZM127.499 107.503H128.897C129.264 107.503 129.543 107.412 129.736 107.211C129.963 107.028 130.085 106.735 130.085 106.333C130.085 105.949 129.963 105.656 129.736 105.455C129.543 105.272 129.264 105.162 128.897 105.162H127.499V107.503Z" fill="#8B8B8B"/>
<path d="M138.435 105.162H134.73V106.626H138.086V108.089H134.73V109.552H138.575V111.015H132.982V103.699H138.435V105.162Z" fill="#8B8B8B"/>
<path d="M144.397 109.698H141.321L140.762 111.015H138.944L141.95 103.699H143.838L146.774 111.015H144.886L144.397 109.698ZM143.838 108.235L142.859 105.528L141.81 108.235H143.838Z" fill="#8B8B8B"/>
<path d="M151.946 111.015L150.129 108.162L149.15 109.186V111.015H147.402V103.699H149.15V106.845L151.876 103.699H153.904L151.317 106.699L154.113 111.015H151.946Z" fill="#8B8B8B"/>
<path d="M160.034 105.162H156.609V106.845H159.755V108.308H156.609V111.015H154.861V103.699H160.034V105.162Z" fill="#8B8B8B"/>
<path d="M165.577 109.698H162.501L161.942 111.015H160.124L163.13 103.699H165.017L167.953 111.015H166.066L165.577 109.698ZM165.017 108.235L164.039 105.528L162.99 108.235H165.017Z" fill="#8B8B8B"/>
<path d="M171.239 103.619C172.305 103.619 173.231 103.893 174.035 104.424L173.336 105.887C173.004 105.649 172.602 105.448 172.148 105.302C171.728 105.155 171.379 105.082 171.099 105.082C170.575 105.082 170.33 105.284 170.33 105.668C170.33 105.869 170.435 106.033 170.68 106.18C170.959 106.326 171.274 106.454 171.659 106.546C172.026 106.655 172.375 106.765 172.707 106.911C173.074 107.058 173.371 107.314 173.616 107.643C173.896 107.936 174.035 108.338 174.035 108.813C174.035 109.545 173.773 110.112 173.266 110.496C172.742 110.898 172.078 111.081 171.239 111.081C170.68 111.081 170.086 110.99 169.491 110.789C168.932 110.551 168.443 110.258 168.023 109.911L168.722 108.448C169.089 108.795 169.509 109.069 169.981 109.252C170.435 109.454 170.855 109.545 171.239 109.545C171.554 109.545 171.798 109.508 171.938 109.399C172.078 109.307 172.148 109.161 172.148 108.96C172.148 108.722 172.043 108.557 171.868 108.448C171.728 108.301 171.519 108.21 171.239 108.155C170.959 108.064 170.645 107.972 170.33 107.862C169.998 107.771 169.701 107.643 169.422 107.497C169.142 107.35 168.897 107.131 168.722 106.838C168.583 106.546 168.513 106.216 168.513 105.814C168.513 105.137 168.74 104.607 169.212 104.204C169.719 103.82 170.4 103.619 171.239 103.619Z" fill="#8B8B8B"/>
<path d="M180.397 105.162H178.23V111.015H176.482V105.162H174.385V103.699H180.397V105.162Z" fill="#8B8B8B"/>
<path d="M184.899 112.18H183.57V102.596H184.899V112.18Z" fill="#8B8B8B"/>
<path d="M191.391 103.619C192.458 103.619 193.384 103.893 194.188 104.424L193.489 105.887C193.157 105.649 192.755 105.448 192.3 105.302C191.881 105.155 191.531 105.082 191.252 105.082C190.727 105.082 190.483 105.284 190.483 105.668C190.483 105.869 190.588 106.033 190.832 106.18C191.112 106.326 191.426 106.454 191.811 106.546C192.178 106.655 192.527 106.765 192.859 106.911C193.226 107.058 193.524 107.314 193.768 107.643C194.048 107.936 194.188 108.338 194.188 108.813C194.188 109.545 193.926 110.112 193.419 110.496C192.894 110.898 192.23 111.081 191.391 111.081C190.832 111.081 190.238 110.99 189.644 110.789C189.085 110.551 188.595 110.258 188.176 109.911L188.875 108.448C189.242 108.795 189.661 109.069 190.133 109.252C190.588 109.454 191.007 109.545 191.391 109.545C191.706 109.545 191.951 109.508 192.091 109.399C192.23 109.307 192.3 109.161 192.3 108.96C192.3 108.722 192.195 108.557 192.021 108.448C191.881 108.301 191.671 108.21 191.391 108.155C191.112 108.064 190.797 107.972 190.483 107.862C190.151 107.771 189.854 107.643 189.574 107.497C189.294 107.35 189.05 107.131 188.875 106.838C188.735 106.546 188.665 106.216 188.665 105.814C188.665 105.137 188.892 104.607 189.364 104.204C189.871 103.82 190.553 103.619 191.391 103.619Z" fill="#8B8B8B"/>
<path d="M199.846 109.698H196.77L196.211 111.015H194.394L197.4 103.699H199.287L202.223 111.015H200.336L199.846 109.698ZM199.287 108.235L198.308 105.528L197.26 108.235H199.287Z" fill="#8B8B8B"/>
<path d="M204.601 109.479H207.607V111.015H202.854V103.699H204.601V109.479Z" fill="#8B8B8B"/>
<path d="M213.129 109.698H210.054L209.494 111.015H207.677L210.683 103.699H212.57L215.506 111.015H213.619L213.129 109.698ZM212.57 108.235L211.591 105.528L210.543 108.235H212.57Z" fill="#8B8B8B"/>
<path d="M216.138 103.699H219.144C220.262 103.699 221.136 104.047 221.8 104.723C222.499 105.418 222.849 106.296 222.849 107.357C222.849 108.436 222.499 109.314 221.8 109.991C221.101 110.686 220.192 111.015 219.074 111.015H216.138V103.699ZM217.885 105.162V109.552H219.214C219.72 109.552 220.14 109.369 220.472 108.967C220.839 108.528 221.031 107.997 221.031 107.357C221.031 106.735 220.839 106.223 220.472 105.821C220.14 105.382 219.668 105.162 219.074 105.162H217.885Z" fill="#8B8B8B"/>
<path d="M227.58 112.18H226.252V102.596H227.58V112.18Z" fill="#8B8B8B"/>
<path d="M110.806 117.623H114.091C114.878 117.623 115.507 117.806 115.979 118.135C116.433 118.428 116.678 118.867 116.678 119.452C116.678 119.854 116.555 120.184 116.328 120.476C116.136 120.769 115.856 120.97 115.489 121.062C115.909 121.171 116.258 121.391 116.538 121.72C116.818 122.067 116.957 122.452 116.957 122.891C116.957 123.531 116.695 124.043 116.188 124.427C115.717 124.774 115.07 124.939 114.231 124.939H110.806V117.623ZM112.553 119.013V120.549H114.021C114.249 120.549 114.441 120.476 114.581 120.33C114.755 120.184 114.86 120.001 114.86 119.745C114.86 119.562 114.755 119.379 114.581 119.233C114.441 119.086 114.249 119.013 114.021 119.013H112.553ZM112.553 121.866V123.476H114.021C114.336 123.476 114.598 123.403 114.79 123.256C114.965 123.11 115.07 122.927 115.07 122.671C115.07 122.433 114.965 122.232 114.79 122.086C114.598 121.939 114.336 121.866 114.021 121.866H112.553Z" fill="#8B8B8B"/>
<path d="M123.399 119.086H119.694V120.549H123.049V122.013H119.694V123.476H123.539V124.939H117.946V117.623H123.399V119.086Z" fill="#8B8B8B"/>
<path d="M128.523 124.939H126.706L123.979 117.623H125.867L127.684 123.037L129.432 117.623H131.25L128.523 124.939Z" fill="#8B8B8B"/>
<path d="M137.411 119.086H133.706V120.549H137.061V122.013H133.706V123.476H137.55V124.939H131.958V117.623H137.411V119.086Z" fill="#8B8B8B"/>
<path d="M142.884 124.939L141.835 122.891H140.437V124.939H138.689V117.623H141.835C142.761 117.623 143.461 117.843 143.932 118.281C144.439 118.72 144.701 119.361 144.701 120.184C144.701 121.318 144.282 122.086 143.443 122.525L144.911 124.939H142.884ZM140.437 121.427H141.835C142.202 121.427 142.482 121.336 142.674 121.135C142.901 120.952 143.024 120.659 143.024 120.257C143.024 119.873 142.901 119.58 142.674 119.379C142.482 119.196 142.202 119.086 141.835 119.086H140.437V121.427Z" fill="#8B8B8B"/>
<path d="M150.602 123.622H147.526L146.967 124.939H145.149L148.155 117.623H150.043L152.979 124.939H151.091L150.602 123.622ZM150.043 122.159L149.064 119.452L148.016 122.159H150.043Z" fill="#8B8B8B"/>
<path d="M158.29 121.213H159.828V124.066C159.409 124.358 158.919 124.615 158.36 124.797C157.836 124.944 157.346 125.017 156.892 125.017C155.809 125.017 154.9 124.688 154.166 123.993C153.467 123.261 153.117 122.365 153.117 121.286C153.117 120.225 153.484 119.347 154.236 118.652C154.97 117.92 155.913 117.555 157.032 117.555C157.539 117.555 158.046 117.664 158.57 117.847C159.077 118.049 159.514 118.323 159.898 118.652L158.849 119.896C158.605 119.658 158.308 119.457 157.941 119.311C157.609 119.164 157.277 119.091 156.962 119.091C156.403 119.091 155.913 119.311 155.494 119.749C155.11 120.152 154.935 120.664 154.935 121.286C154.935 121.926 155.11 122.456 155.494 122.895C155.913 123.298 156.42 123.481 157.032 123.481C157.399 123.481 157.818 123.371 158.29 123.115V121.213Z" fill="#8B8B8B"/>
<path d="M166.48 119.086H162.775V120.549H166.13V122.013H162.775V123.476H166.62V124.939H161.027V117.623H166.48V119.086Z" fill="#8B8B8B"/>
<path d="M38.588 74.6787H36.8403V91.1395H38.588V97.1386H25.3758V91.1395H27.0535V78.3367L21.1115 97.1386H15.9385L9.78681 78.483V91.1395H11.4645V97.1386H0V91.1395H1.74764V74.6787H0V68.6797H16.0084L19.6435 80.0925L23.1388 68.6797H38.588V74.6787Z" fill="#8B8B8B"/>
<path d="M55.2706 68.6797H65.9662V74.6787H64.5681L57.8571 87.3353V91.1395H59.6048V97.1386H46.3227V91.1395H48.0703V87.3353L41.0798 74.6787H39.6816V68.6797H53.2434V74.6787H51.9851L54.0822 80.312H54.4318L56.459 74.6787H55.2706V68.6797Z" fill="#8B8B8B"/>
<path d="M67.0898 97.1386V91.1395H68.8375V74.6787H67.0898V68.6797H87.9917V78.1172H81.84V74.6787H78.6243V80.7509H83.9371V84.921H78.6243V91.1395H83.2381V97.1386H67.0898Z" fill="#8B8B8B"/>
<path d="M89.1855 97.1386V91.1395H90.9332V74.6787H89.1855V68.6797H102.468V74.6787H100.72V91.1395H102.468V97.1386H89.1855Z" fill="#8B8B8B"/>
<path d="M129.943 77.5319H123.931V74.6787H121.694V91.1395H124.141V97.1386H109.46V91.1395H111.907V74.6787H109.67V77.5319H103.658V68.6797H129.943V77.5319Z" fill="#8B8B8B"/>
<path d="M180.215 74.6787H178.467V91.1395H180.215V97.1386H167.003V91.1395H168.68V78.3367L162.738 97.1386H157.565L151.414 78.483V91.1395H153.091V97.1386H141.627V91.1395H143.375V74.6787H141.627V68.6797H157.635L161.27 80.0925L164.766 68.6797H180.215V74.6787Z" fill="#8B8B8B"/>
<path d="M181.585 97.1386V91.1395H183.333V74.6787H181.585V68.6797H205.213V79.7267H197.384V74.6787H193.119V80.4583H196.195V84.6284H193.119V91.1395H197.384V85.36H205.213V97.1386H181.585Z" fill="#8B8B8B"/>
<path d="M232.168 91.1395H233.567V97.1386H219.865V91.1395H221.962L221.403 88.2132H216.649L216.09 91.1395H218.187V97.1386H206.233V91.1395H207.632L213.574 68.6797H226.296L232.168 91.1395ZM217.418 84.3357H220.634L219.236 77.0198H218.886L217.418 84.3357Z" fill="#8B8B8B"/>
<path d="M234.693 97.1386V91.1395H236.441V74.6787H234.693V68.6797H249.443V74.6787H246.228V91.1395H249.374V87.7742H256.364V97.1386H234.693Z" fill="#8B8B8B"/>
<path d="M268.357 97.6569C266.12 97.6569 263.988 97.4557 261.996 97.0717C260.039 96.6327 258.518 96.1755 257.452 95.6816V88.4389H265.142C265.142 89.1705 265.299 89.7192 265.631 90.0484C265.946 90.3959 266.54 90.5605 267.379 90.5605C268.113 90.5605 268.637 90.4691 268.917 90.2679C269.231 90.0301 269.406 89.6643 269.406 89.1705C269.406 88.7864 269.231 88.4755 268.917 88.2194C268.637 87.9268 268.113 87.6341 267.379 87.3415L264.373 86.2441C261.804 85.2199 259.934 84.0311 258.78 82.6593C257.662 81.251 257.103 79.3489 257.103 76.9529C257.103 74.0814 258.011 71.9049 259.829 70.4418C261.646 68.942 264.652 68.1738 268.847 68.1738C270.891 68.1738 272.796 68.3933 274.579 68.8323C276.344 69.2346 277.795 69.7833 278.913 70.5149V77.0261H271.923C271.923 75.8189 271.189 75.1971 269.755 75.1971C269.056 75.1971 268.532 75.3068 268.218 75.4897C267.938 75.6909 267.798 76.0018 267.798 76.4408C267.798 76.8798 267.955 77.2273 268.287 77.465C268.654 77.7211 269.214 77.9589 269.965 78.1966L273.041 79.294C275.505 80.1719 277.305 81.3242 278.424 82.7325C279.542 84.1591 280.102 85.9881 280.102 88.2194C280.102 91.347 279.088 93.7063 277.096 95.3158C275.138 96.8888 272.22 97.6569 268.357 97.6569Z" fill="#8B8B8B"/>
<mask id="mask2_783_2422" style="mask-type:luminance" maskUnits="userSpaceOnUse" x="136" y="28" width="32" height="32">
<path d="M136.327 28.4004H167.645V59.1455H136.327V28.4004Z" fill="white"/>
</mask>
<g mask="url(#mask2_783_2422)">
<path d="M166.001 30.2281C166.001 30.2281 140.014 28.3992 139.839 57.3153C167.784 57.1324 166.001 30.2281 166.001 30.2281Z" fill="black"/>
<path d="M138.319 58.9056L139.84 58.8873C148.858 58.8324 155.866 56.0707 160.672 50.7118C168.222 42.2985 167.54 30.6113 167.505 30.1358L167.418 28.764L166.107 28.6726C166.107 28.6726 165.722 28.6543 165.076 28.6543C160.637 28.6543 138.494 30.026 138.319 57.3144V58.9056ZM164.499 31.7818C164.412 34.9643 163.643 42.8106 158.452 48.5901C154.503 52.998 148.77 55.3757 141.378 55.7232C142.286 34.2693 158.54 31.9099 164.499 31.7818Z" fill="black"/>
</g>
<path d="M135.053 1.77734C135.053 1.77734 115.409 19.5001 135.053 40.0761C154.679 19.5001 135.053 1.77734 135.053 1.77734Z" fill="black"/>
<mask id="mask3_783_2422" style="mask-type:luminance" maskUnits="userSpaceOnUse" x="122" y="0" width="24" height="43">
<path d="M122.906 0H145.276V42.4506H122.906V0Z" fill="white"/>
</mask>
<g mask="url(#mask3_783_2422)">
<path d="M135.053 42.3085L136.119 41.1746C142.463 34.5354 145.538 27.4572 145.259 20.1413C144.857 8.67364 136.398 0.918772 136.031 0.589558L135.053 -0.306641L134.056 0.589558C133.689 0.918772 125.248 8.67364 124.829 20.1413C124.567 27.4572 127.643 34.5354 133.969 41.1746L135.053 42.3085ZM135.053 3.97317C137.167 6.29597 141.973 12.3865 142.253 20.2876C142.463 26.2867 140.033 32.176 135.053 37.8092C130.054 32.176 127.643 26.2867 127.852 20.2876C128.114 12.3865 132.921 6.29597 135.053 3.97317Z" fill="black"/>
</g>
<mask id="mask4_783_2422" style="mask-type:luminance" maskUnits="userSpaceOnUse" x="101" y="28" width="31" height="32">
<path d="M101.076 28.4004H131.852V59.1455H101.076V28.4004Z" fill="white"/>
</mask>
<g mask="url(#mask4_783_2422)">
<path d="M103.365 30.2281C103.365 30.2281 129.335 28.3992 129.527 57.3153C101.582 57.1324 103.365 30.2281 103.365 30.2281Z" fill="black"/>
<path d="M131.048 58.9056L131.031 57.3144C130.873 30.026 108.713 28.6543 104.274 28.6543C103.628 28.6543 103.261 28.6726 103.261 28.6726L101.95 28.764L101.862 30.1358C101.827 30.6113 101.146 42.2985 108.678 50.7118C113.484 56.0707 120.492 58.8324 129.51 58.8873L131.048 58.9056ZM104.851 31.7818C110.81 31.9099 127.063 34.2693 127.972 55.7232C120.58 55.3757 114.847 52.9797 110.898 48.5719C105.69 42.774 104.938 34.9643 104.851 31.7818Z" fill="black"/>
</g>
<mask id="mask5_783_2422" style="mask-type:luminance" maskUnits="userSpaceOnUse" x="105" y="33" width="27" height="27">
<path d="M105.01 33.0859H131.854V59.5147H105.01V33.0859Z" fill="white"/>
</mask>
<g mask="url(#mask5_783_2422)">
<path d="M106.757 33.9974C106.757 33.9974 130.14 32.3696 130.298 57.9021C105.149 57.7375 106.757 33.9974 106.757 33.9974Z" fill="#8B8B8B"/>
</g>
<mask id="mask6_783_2422" style="mask-type:luminance" maskUnits="userSpaceOnUse" x="105" y="28" width="27" height="32">
<path d="M105.01 28.4004H131.854V59.5113H105.01V28.4004Z" fill="white"/>
</mask>
<g mask="url(#mask6_783_2422)">
<path d="M131.679 59.2929L130.298 59.2746C122.189 59.2197 115.88 56.8055 111.546 52.0684C104.765 44.6428 105.377 34.3274 105.411 33.9067L105.481 32.6996L106.67 32.6081C106.67 32.6081 107.002 32.5898 107.596 32.5898C111.581 32.5898 131.521 33.8153 131.661 57.8846L131.679 59.2929ZM108.103 35.3516C108.19 38.1682 108.872 45.1 113.556 50.2029C117.103 54.0803 122.276 56.1836 128.917 56.4946C128.096 37.5647 113.468 35.4796 108.103 35.3516Z" fill="#8B8B8B"/>
</g>
<mask id="mask7_783_2422" style="mask-type:luminance" maskUnits="userSpaceOnUse" x="122" y="6" width="24" height="42">
<path d="M122.905 6.83789H145.275V47.1303H122.905V6.83789Z" fill="white"/>
</mask>
<g mask="url(#mask7_783_2422)">
<path d="M134.613 8.86523C134.613 8.86523 152.282 24.503 134.613 42.683C116.945 24.503 134.613 8.86523 134.613 8.86523Z" fill="#8B8B8B"/>
<path d="M134.614 44.637L133.653 43.6493C127.955 37.7783 125.176 31.5232 125.421 25.0669C125.788 14.9527 133.39 8.1123 133.722 7.81966L134.614 7.0332L135.505 7.81966C135.837 8.1123 143.439 14.9527 143.806 25.0669C144.051 31.5232 141.29 37.7783 135.575 43.6493L134.614 44.637ZM134.614 10.8009C132.709 12.8494 128.375 18.2265 128.13 25.1949C127.938 30.499 130.122 35.6933 134.614 40.6681C139.105 35.6933 141.29 30.499 141.097 25.1949C140.853 18.2265 136.519 12.8494 134.614 10.8009Z" fill="#8B8B8B"/>
</g>
<mask id="mask8_783_2422" style="mask-type:luminance" maskUnits="userSpaceOnUse" x="136" y="33" width="28" height="27">
<path d="M136.327 33.0859H163.171V59.5147H136.327V33.0859Z" fill="white"/>
</mask>
<g mask="url(#mask8_783_2422)">
<path d="M163.136 33.9974C163.136 33.9974 139.753 32.3696 139.578 57.9021C164.727 57.7375 163.136 33.9974 163.136 33.9974Z" fill="#8B8B8B"/>
</g>
<mask id="mask9_783_2422" style="mask-type:luminance" maskUnits="userSpaceOnUse" x="136" y="28" width="30" height="32">
<path d="M136.327 28.4004H165.181V59.5113H136.327V28.4004Z" fill="white"/>
</mask>
<g mask="url(#mask9_783_2422)">
<path d="M138.215 59.2929L138.232 57.8846C138.372 33.8153 158.313 32.5898 162.297 32.5898C162.892 32.5898 163.224 32.6081 163.224 32.6081L164.395 32.6996L164.482 33.9067C164.517 34.3274 165.129 44.6428 158.348 52.0684C154.014 56.8055 147.705 59.2197 139.595 59.2746L138.215 59.2929ZM161.791 35.3516C156.425 35.4796 141.798 37.5464 140.976 56.4763C147.635 56.1836 152.808 54.0803 156.355 50.1846C161.039 45.0635 161.721 38.1682 161.791 35.3516Z" fill="#8B8B8B"/>
</g>
<path d="M68.0117 96.5429V90.5438H69.7594V74.083H68.0117V68.084H88.9135V77.5215H82.7618V74.083H79.5462V80.1552H84.859V84.3253H79.5462V90.5438H84.1599V96.5429H68.0117Z" fill="black"/>
<path d="M90.1074 96.5429V90.5438H91.8551V74.083H90.1074V68.084H103.39V74.083H101.642V90.5438H103.39V96.5429H90.1074Z" fill="black"/>
<path d="M130.867 76.9362H124.855V74.083H122.618V90.5438H125.064V96.5429H110.384V90.5438H112.831V74.083H110.594V76.9362H104.582V68.084H130.867V76.9362Z" fill="black"/>
</svg>
