<svg xmlns="http://www.w3.org/2000/svg" version="1.0" width="1000.000000pt" height="1005.000000pt" viewBox="0 0 1000.000000 1005.000000" preserveAspectRatio="xMidYMid meet">

<g transform="translate(0.000000,1005.000000) scale(0.100000,-0.100000)" fill="#ffffff" stroke="none">
<path d="M4660 10009 c-388 -26 -817 -109 -1195 -229 -451 -144 -960 -400 -1357 -682 -959 -680 -1651 -1683 -1948 -2823 -266 -1021 -198 -2109 193 -3100 313 -793 851 -1520 1525 -2061 455 -364 1041 -679 1587 -854 999 -319 2066 -319 3070 1 449 142 960 399 1357 681 959 680 1651 1683 1948 2823 266 1021 198 2109 -193 3100 -313 793 -852 1521 -1525 2061 -455 364 -1043 680 -1587 853 -603 192 -1251 272 -1875 230z m740 -1073 c313 -37 658 -114 747 -168 105 -63 172 -165 195 -296 38 -222 -114 -441 -361 -518 -25 -8 -86 -17 -136 -21 -76 -5 -114 -1 -245 25 -261 52 -390 65 -660 66 -323 1 -537 -25 -824 -99 -1120 -289 -1980 -1138 -2246 -2219 -62 -251 -74 -362 -74 -676 -1 -298 5 -363 49 -585 90 -449 301 -897 595 -1265 168 -210 421 -444 651 -603 201 -139 817 -374 1289 -492 126 -32 188 -63 256 -131 59 -58 96 -125 113 -202 7 -33 11 -170 11 -359 l0 -306 -62 7 c-530 58 -1134 212 -1596 407 -682 289 -1335 871 -1742 1555 -294 494 -471 1029 -532 1614 -17 169 -15 555 6 738 82 751 361 1421 843 2028 114 143 447 475 598 596 678 542 1469 850 2370 922 116 9 626 -3 755 -18z m628 -2363 c15 -11 37 -35 50 -53 l22 -33 0 -741 c0 -564 -3 -745 -12 -754 -17 -17 -1765 -17 -1802 -1 -35 16 -52 60 -34 93 16 31 1567 1473 1612 1499 41 24 126 19 164 -10z m46 -1768 c8 -9 18 -30 21 -48 3 -18 4 -600 3 -1295 -2 -694 0 -1262 5 -1262 4 0 33 10 65 23 31 13 89 33 128 45 158 48 493 215 674 335 263 176 561 443 733 658 114 143 239 336 318 492 59 116 119 253 119 272 0 3 -331 5 -735 5 -505 0 -751 4 -787 11 -99 21 -167 67 -245 166 -32 40 -44 69 -62 145 l-23 95 21 78 c36 129 125 228 244 269 62 21 67 21 1351 24 l1288 3 -6 -33 c-3 -18 -13 -98 -21 -178 -82 -763 -332 -1365 -820 -1975 -281 -351 -546 -590 -960 -864 -427 -284 -1027 -534 -1459 -610 -287 -50 -571 -81 -751 -81 l-145 0 -2 1478 -3 1477 -760 3 -759 2 -28 27 c-21 20 -28 36 -28 65 0 36 14 52 274 325 150 159 284 298 297 309 63 56 1 53 1061 54 864 0 978 -2 992 -15z" fill="#ffffff"/>
</g>
</svg>