<?xml version="1.0" standalone="no"?>
<!DOCTYPE svg PUBLIC "-//W3C//DTD SVG 20010904//EN"
 "http://www.w3.org/TR/2001/REC-SVG-20010904/DTD/svg10.dtd">
<svg version="1.0" xmlns="http://www.w3.org/2000/svg"
 width="512.000000pt" height="512.000000pt" viewBox="0 0 512.000000 512.000000"
 preserveAspectRatio="xMidYMid meet">

<g transform="translate(0.000000,512.000000) scale(0.100000,-0.100000)"
fill="#000000" stroke="none">
<path d="M1200 3824 c-78 -34 -130 -111 -130 -194 0 -88 38 -152 115 -193 l40
-22 1335 0 1335 0 45 25 c67 38 103 96 108 174 5 71 -14 120 -65 168 -65 62
24 58 -1425 58 -1160 -1 -1327 -3 -1358 -16z"/>
<path d="M2045 2753 c-164 -86 -166 -300 -3 -384 37 -19 67 -19 956 -17 l918
3 37 25 c21 14 50 43 65 64 24 35 27 49 27 116 0 67 -3 81 -27 116 -15 21 -44
50 -65 64 l-37 25 -920 2 c-825 2 -924 1 -951 -14z"/>
<path d="M1230 1701 c-104 -32 -160 -106 -160 -211 0 -84 53 -161 132 -194 33
-14 187 -16 1358 -16 1447 0 1358 -4 1424 58 81 76 88 220 13 300 -12 13 -40
34 -62 45 l-40 22 -1320 2 c-726 1 -1331 -2 -1345 -6z"/>
</g>
</svg>
