<svg width="666" height="429" viewBox="0 0 666 429" fill="none" xmlns="http://www.w3.org/2000/svg">
<path d="M618.063 296H665" stroke="#263238" stroke-linecap="round" stroke-linejoin="round"/>
<path d="M23.3098 296H607.299" stroke="#263238" stroke-linecap="round" stroke-linejoin="round"/>
<path d="M1 296H14.8533" stroke="#263238" stroke-linecap="round" stroke-linejoin="round"/>
<path d="M619.907 382.205C621.514 382.594 623.211 382.33 624.624 381.47C626.037 380.611 627.051 379.226 627.445 377.62L631.433 361.205C631.823 359.598 631.559 357.901 630.699 356.488C629.839 355.075 628.455 354.061 626.848 353.667C625.242 353.278 623.547 353.543 622.136 354.403C620.724 355.262 619.712 356.647 619.32 358.253L615.322 374.648C615.125 375.445 615.087 376.273 615.211 377.085C615.335 377.897 615.619 378.677 616.045 379.379C616.471 380.081 617.031 380.692 617.694 381.177C618.357 381.662 619.109 382.011 619.907 382.205Z" fill="white" stroke="#263238" stroke-linecap="round" stroke-linejoin="round"/>
<path d="M626.261 401.373C626.801 401.522 627.368 401.547 627.919 401.447C628.47 401.346 628.991 401.121 629.442 400.79C629.894 400.459 630.265 400.029 630.526 399.534C630.788 399.039 630.934 398.491 630.954 397.931L632.606 377.313C632.677 376.073 632.322 374.847 631.6 373.837C630.878 372.827 629.832 372.094 628.637 371.76C628.096 371.61 627.529 371.585 626.977 371.686C626.426 371.788 625.904 372.013 625.452 372.345C625.001 372.678 624.63 373.108 624.369 373.605C624.108 374.101 623.962 374.65 623.944 375.211L622.282 395.82C622.211 397.061 622.566 398.289 623.29 399.299C624.015 400.31 625.063 401.041 626.261 401.373Z" fill="white" stroke="#263238" stroke-linecap="round" stroke-linejoin="round"/>
<path d="M582.189 378.568L603.022 374.237C610.352 374.09 617.671 374.891 624.795 376.622L638.795 380.024C639.53 380.204 640.293 380.237 641.041 380.121C641.788 380.005 642.506 379.744 643.152 379.35C643.799 378.957 644.361 378.441 644.808 377.83C645.255 377.219 645.577 376.526 645.756 375.791L648.688 363.727C649.048 362.241 648.803 360.674 648.007 359.369C647.212 358.064 645.931 357.127 644.445 356.766L633.105 354.009C624.524 351.924 616.323 348.506 608.8 343.881L593.999 329.91L582.189 378.568Z" fill="white" stroke="#263238" stroke-linecap="round" stroke-linejoin="round"/>
<path d="M625.284 351.688C627.865 352.587 630.475 353.369 633.105 354.014L644.426 356.771C645.911 357.133 647.192 358.069 647.988 359.374C648.784 360.679 649.029 362.246 648.669 363.732L645.736 375.796C645.557 376.532 645.235 377.224 644.789 377.835C644.342 378.446 643.78 378.962 643.133 379.355C642.487 379.749 641.769 380.01 641.021 380.126C640.274 380.242 639.51 380.209 638.775 380.03L624.775 376.627C623.029 376.197 621.262 375.826 619.477 375.513L625.284 351.688Z" fill="#263238" stroke="#263238" stroke-linecap="round" stroke-linejoin="round"/>
<path d="M579.414 384.536L580.279 384.746C582.76 385.35 585.261 383.828 585.865 381.347L598.064 331.229C598.668 328.748 597.146 326.246 594.665 325.642L593.8 325.432C591.319 324.828 588.818 326.35 588.214 328.832L576.015 378.949C575.411 381.431 576.933 383.932 579.414 384.536Z" fill="#FFD01F" stroke="#263238" stroke-linecap="round" stroke-linejoin="round"/>
<path d="M571.64 333.969L576.529 341.682" stroke="#263238" stroke-width="2" stroke-linecap="round" stroke-linejoin="round"/>
<path d="M563.77 366.32L571.65 361.715" stroke="#263238" stroke-width="2" stroke-linecap="round" stroke-linejoin="round"/>
<path d="M572.373 351.788L562.802 349.461" stroke="#263238" stroke-width="2" stroke-linecap="round" stroke-linejoin="round"/>
<path d="M622.351 393.461L618.997 396.316C618.605 396.657 618.329 397.111 618.206 397.616C618.127 397.932 618.111 398.261 618.16 398.584C618.209 398.906 618.321 399.216 618.49 399.495C618.659 399.774 618.882 400.017 619.145 400.209C619.408 400.402 619.707 400.541 620.024 400.617L630.612 403.198L631.277 393.52L622.351 393.461Z" fill="#263238" stroke="#263238" stroke-linecap="round" stroke-linejoin="round"/>
<path d="M639.489 364.378C639.559 364.099 639.709 363.847 639.922 363.653C640.135 363.459 640.4 363.333 640.684 363.29C640.968 363.247 641.259 363.289 641.519 363.41C641.78 363.532 641.998 363.728 642.147 363.974C642.297 364.219 642.37 364.504 642.358 364.791C642.346 365.078 642.249 365.355 642.08 365.588C641.911 365.82 641.677 365.997 641.407 366.097C641.137 366.196 640.844 366.214 640.565 366.147C640.377 366.104 640.199 366.023 640.043 365.91C639.887 365.797 639.754 365.654 639.654 365.489C639.554 365.324 639.488 365.141 639.46 364.95C639.431 364.759 639.441 364.564 639.489 364.378Z" fill="#FFD01F"/>
<path d="M564.301 426.639V414.409H567.889C568.51 414.385 569.127 414.523 569.678 414.81C570.123 415.089 570.466 415.504 570.656 415.993C570.886 416.591 570.995 417.229 570.979 417.87C571.01 418.545 570.872 419.217 570.578 419.825C570.325 420.295 569.922 420.666 569.434 420.881C568.891 421.116 568.304 421.229 567.713 421.213H566.501V426.639H564.301ZM566.53 419.649H567.381C567.716 419.671 568.052 419.611 568.358 419.473C568.471 419.418 568.571 419.34 568.652 419.244C568.733 419.148 568.793 419.036 568.828 418.916C568.925 418.583 568.968 418.236 568.955 417.889C568.964 417.528 568.931 417.167 568.857 416.814C568.834 416.688 568.785 416.568 568.712 416.462C568.64 416.355 568.546 416.266 568.437 416.198C568.132 416.054 567.796 415.987 567.459 416.003H566.609L566.53 419.649Z" fill="#263238"/>
<path d="M572.22 426.639V414.408H575.153C575.862 414.391 576.569 414.49 577.245 414.702C577.776 414.866 578.233 415.212 578.536 415.679C578.869 416.275 579.025 416.953 578.985 417.634C578.988 418.078 578.943 418.521 578.848 418.954C578.766 419.309 578.61 419.642 578.389 419.932C578.152 420.221 577.841 420.441 577.49 420.567L579.191 426.58H576.913L575.436 420.988H574.459V426.58L572.22 426.639ZM574.459 419.648H575.143C575.498 419.666 575.853 419.603 576.179 419.463C576.432 419.337 576.628 419.121 576.727 418.857C576.852 418.516 576.909 418.154 576.893 417.791C576.927 417.308 576.81 416.827 576.561 416.412C576.395 416.242 576.193 416.113 575.969 416.033C575.745 415.953 575.506 415.926 575.27 415.953H574.459V419.648Z" fill="#263238"/>
<path d="M583.893 426.809C583.174 426.846 582.46 426.68 581.831 426.33C581.314 426.007 580.924 425.517 580.726 424.942C580.494 424.252 580.382 423.528 580.393 422.801V418.235C580.38 417.517 580.492 416.802 580.726 416.123C580.929 415.56 581.319 415.084 581.831 414.774C582.478 414.465 583.186 414.305 583.903 414.305C584.62 414.305 585.329 414.465 585.976 414.774C586.486 415.086 586.875 415.562 587.081 416.123C587.323 416.8 587.439 417.516 587.423 418.235V422.82C587.437 423.539 587.321 424.254 587.081 424.932C586.876 425.504 586.487 425.992 585.976 426.32C585.341 426.673 584.619 426.843 583.893 426.809ZM583.893 425.167C584.188 425.193 584.482 425.105 584.715 424.922C584.899 424.747 585.023 424.518 585.067 424.267C585.127 423.965 585.157 423.657 585.155 423.348V417.727C585.158 417.418 585.128 417.11 585.067 416.808C585.022 416.56 584.899 416.334 584.715 416.162C584.472 416.01 584.19 415.929 583.903 415.929C583.616 415.929 583.335 416.01 583.092 416.162C582.905 416.333 582.778 416.559 582.73 416.808C582.668 417.11 582.639 417.418 582.642 417.727V423.348C582.64 423.657 582.669 423.965 582.73 424.267C582.766 424.52 582.89 424.753 583.082 424.922C583.312 425.104 583.602 425.191 583.893 425.167Z" fill="#263238"/>
<path d="M589.026 426.642L589.241 414.441H591.549L593.279 422.888L595.088 414.441H597.317L597.542 426.642H595.889L595.704 418.156L593.973 426.642H592.634L590.864 418.127L590.708 426.642H589.026Z" fill="#263238"/>
<path d="M602.664 426.807C601.945 426.844 601.23 426.678 600.601 426.327C600.088 426.004 599.701 425.514 599.506 424.939C599.27 424.251 599.157 423.526 599.174 422.798V418.233C599.155 417.514 599.267 416.798 599.506 416.121C599.705 415.558 600.092 415.082 600.601 414.772C601.233 414.429 601.947 414.266 602.664 414.302C603.391 414.264 604.115 414.426 604.756 414.772C605.263 415.085 605.649 415.56 605.851 416.121C606.094 416.798 606.21 417.514 606.194 418.233V422.818C606.207 423.537 606.092 424.252 605.851 424.929C605.651 425.501 605.265 425.989 604.756 426.318C604.118 426.673 603.394 426.842 602.664 426.807ZM602.664 425.164C602.959 425.19 603.253 425.103 603.485 424.92C603.67 424.745 603.794 424.515 603.837 424.265C603.906 423.963 603.939 423.655 603.935 423.346V417.724C603.94 417.415 603.907 417.106 603.837 416.805C603.793 416.558 603.669 416.331 603.485 416.16C603.249 415.985 602.957 415.901 602.664 415.925C602.38 415.904 602.099 415.988 601.872 416.16C601.682 416.328 601.554 416.555 601.511 416.805C601.441 417.106 601.408 417.415 601.413 417.724V423.346C601.411 423.654 601.44 423.962 601.501 424.265C601.541 424.516 601.665 424.747 601.853 424.92C602.083 425.1 602.373 425.188 602.664 425.164Z" fill="#263238"/>
<path d="M609 426.641V416.082H607.044V414.41H613.125V416.053H611.17V426.611L609 426.641Z" fill="#263238"/>
<path d="M614.318 426.641V414.41H616.518V426.611L614.318 426.641Z" fill="#263238"/>
<path d="M621.709 426.809C620.991 426.842 620.277 426.677 619.646 426.33C619.133 426.007 618.746 425.517 618.551 424.942C618.315 424.253 618.202 423.529 618.219 422.801V418.235C618.199 417.517 618.312 416.801 618.551 416.124C618.75 415.561 619.137 415.085 619.646 414.774C620.295 414.465 621.005 414.305 621.724 414.305C622.443 414.305 623.152 414.465 623.801 414.774C624.308 415.088 624.694 415.563 624.896 416.124C625.139 416.801 625.255 417.516 625.238 418.235V422.82C625.252 423.539 625.137 424.255 624.896 424.932C624.696 425.504 624.31 425.992 623.801 426.32C623.163 426.675 622.439 426.845 621.709 426.809ZM621.709 425.167C622.004 425.193 622.298 425.105 622.53 424.922C622.714 424.746 622.841 424.517 622.892 424.267C622.953 423.965 622.982 423.657 622.98 423.348V417.727C622.983 417.418 622.954 417.11 622.892 416.808C622.841 416.561 622.714 416.336 622.53 416.163C622.294 415.987 622.002 415.904 621.709 415.928C621.425 415.907 621.144 415.99 620.917 416.163C620.727 416.33 620.599 416.558 620.556 416.808C620.486 417.109 620.453 417.418 620.458 417.727V423.348C620.456 423.657 620.485 423.965 620.546 424.267C620.586 424.519 620.71 424.75 620.898 424.922C621.128 425.103 621.418 425.19 621.709 425.167Z" fill="#263238"/>
<path d="M626.881 426.641V414.41H628.435L631.368 421.371V414.41H633.206V426.611H631.759L628.826 419.318V426.611L626.881 426.641Z" fill="#263238"/>
<path d="M74.075 406.747L71.7321 404.927L68.9265 402.747L61.0599 396.637V396.632L61.0502 396.627L60.9917 396.582L52.4335 402.871L49.4915 405.026L47.0901 406.796L52.6235 377.341L55.2587 363.32L64.9908 363.528L65.7165 363.543L66.2816 363.553L68.605 376.421L74.075 406.747Z" fill="#FFD01F" stroke="#263238" stroke-linecap="round" stroke-linejoin="round"/>
<path d="M29.8142 352.346C29.8729 351.182 27.986 349.843 28.162 348.719C28.3379 347.594 30.5377 346.861 30.8212 345.786C31.1047 344.71 29.5502 342.96 29.9511 341.875C30.3519 340.79 32.6689 340.565 33.1773 339.539C33.6857 338.512 32.5223 336.518 33.1773 335.56C33.8323 334.601 36.1103 334.836 36.8142 333.946C37.5181 333.057 36.8142 330.857 37.6061 330.036C38.398 329.215 40.6173 329.938 41.5167 329.205C42.4161 328.472 42.1424 326.184 43.1005 325.548C44.0586 324.913 46.0334 326.076 47.0795 325.548C48.1256 325.02 48.3113 322.713 49.3868 322.293C50.4622 321.872 52.1731 323.427 53.2974 323.124C54.4217 322.821 55.0865 320.621 56.2303 320.435C57.3742 320.25 58.7135 322.127 59.8671 322.068C61.0208 322.009 62.1353 319.986 63.2987 320.044C64.4621 320.103 65.4007 322.215 66.5152 322.381C67.6297 322.547 69.1939 320.826 70.2889 321.11C71.3839 321.393 71.8922 323.671 72.9579 324.043C74.0235 324.414 75.8908 323.065 76.8685 323.593C77.8461 324.121 77.8461 326.418 78.8238 327.044C79.8014 327.67 81.8936 326.702 82.7832 327.425C83.6729 328.149 83.1939 330.358 84.0151 331.219C84.8363 332.079 87.0849 331.522 87.8084 332.411C88.5318 333.301 87.5933 335.413 88.2288 336.371C88.8642 337.329 91.1617 337.3 91.6994 338.326C92.2371 339.353 90.8586 341.21 91.279 342.237C91.6994 343.263 93.9676 343.762 94.2706 344.877C94.5737 345.991 92.8433 347.516 93.029 348.66C93.2148 349.804 95.3363 350.703 95.3949 351.857C95.4536 353.011 93.4396 354.145 93.4396 355.308C93.4396 356.471 95.2679 357.811 95.1017 358.935C94.9355 360.059 92.7259 360.793 92.4326 361.868C92.1393 362.943 93.7036 364.693 93.3028 365.779C92.9019 366.864 90.5947 367.098 90.0765 368.115C89.5584 369.132 90.7316 371.136 90.0765 372.104C89.4215 373.072 87.1436 372.818 86.4299 373.717C85.7162 374.617 86.4299 376.807 85.638 377.628C84.8461 378.449 82.6269 377.726 81.7274 378.449C80.828 379.172 81.1115 381.48 80.1534 382.105C79.1953 382.731 77.2205 381.577 76.1646 382.105C75.1087 382.633 74.9327 384.931 73.8573 385.351C72.7819 385.772 71.071 384.217 69.9467 384.52C68.8224 384.823 68.1478 387.033 67.0137 387.219C65.8797 387.404 64.5403 385.517 63.3867 385.586C62.2331 385.654 61.1088 387.668 59.9454 387.61C58.782 387.551 57.8532 385.439 56.7289 385.263C55.6046 385.087 54.0501 386.827 52.9551 386.534C51.8602 386.241 51.3518 383.983 50.2862 383.601C49.2205 383.22 47.3532 384.579 46.3267 384.061C45.3002 383.543 45.3491 381.226 44.3714 380.61C43.3938 379.994 41.3016 380.942 40.4608 380.228C39.62 379.515 40.0502 377.237 39.2388 376.435C38.4273 375.633 36.1591 376.132 35.4357 375.242C34.7122 374.353 35.6508 372.241 35.0153 371.332C34.3798 370.423 32.0824 370.354 31.5447 369.376C31.0069 368.399 32.3854 366.443 31.965 365.407C31.5446 364.371 29.2863 363.892 29.0321 362.777C28.7779 361.663 30.4497 360.128 30.2639 358.994C30.0782 357.86 27.9567 356.941 27.898 355.787C27.8394 354.633 29.7653 353.499 29.8142 352.346Z" fill="#FFD01F" stroke="#263238" stroke-linecap="round" stroke-linejoin="round"/>
<path d="M69.8668 379.662C84.1085 375.112 91.9646 359.877 87.414 345.636C82.8635 331.394 67.6294 323.538 53.3878 328.089C39.1462 332.639 31.29 347.873 35.8406 362.115C40.3912 376.356 55.6252 384.213 69.8668 379.662Z" fill="#263238" stroke="#263238" stroke-linecap="round" stroke-linejoin="round"/>
<path d="M81.6584 367.077C88.9534 356.009 85.895 341.123 74.8274 333.828C63.7597 326.533 48.8739 329.592 41.5789 340.659C34.2839 351.727 37.3422 366.613 48.4099 373.908C59.4775 381.203 74.3634 378.145 81.6584 367.077Z" fill="white" stroke="#263238" stroke-linecap="round" stroke-linejoin="round"/>
<path d="M44.1956 350.172L44.9777 352.577H47.5098L45.4567 354.063L46.2388 356.478L44.1956 354.982L42.1425 356.478L42.9247 354.063L40.8813 352.577H43.4135L44.1956 350.172Z" fill="#FFD01F" stroke="#263238" stroke-width="0.5" stroke-linecap="round" stroke-linejoin="round"/>
<path d="M52.8772 350.172L53.6593 352.577H56.1914L54.1482 354.063L54.9205 356.478L52.8772 354.982L50.8339 356.478L51.616 354.063L49.563 352.577H52.0951L52.8772 350.172Z" fill="#FFD01F" stroke="#263238" stroke-width="0.5" stroke-linecap="round" stroke-linejoin="round"/>
<path d="M61.5586 350.172L62.3407 352.577H64.8728L62.8295 354.063L63.6117 356.478L61.5586 354.982L59.5153 356.478L60.2974 354.063L58.2542 352.577H60.7764L61.5586 350.172Z" fill="#FFD01F" stroke="#263238" stroke-width="0.5" stroke-linecap="round" stroke-linejoin="round"/>
<path d="M70.25 350.172L71.0321 352.577H73.5642L71.5112 354.063L72.2933 356.478L70.25 354.982L68.1969 356.478L68.979 354.063L66.9358 352.577H69.4679L70.25 350.172Z" fill="#FFD01F" stroke="#263238" stroke-width="0.5" stroke-linecap="round" stroke-linejoin="round"/>
<path d="M78.9314 350.172L79.7135 352.577H82.2456L80.1926 354.063L80.9845 356.478L78.9314 354.982L76.8881 356.478L77.6702 354.063L75.6172 352.577H78.1493L78.9314 350.172Z" fill="#FFD01F" stroke="#263238" stroke-width="0.5" stroke-linecap="round" stroke-linejoin="round"/>
<path d="M42.7282 428.983C42.4354 428.84 42.1626 428.659 41.9168 428.445C41.6197 428.189 41.3389 427.915 41.0759 427.624C40.8165 427.338 40.578 427.034 40.3623 426.715H40.0886C39.3696 426.752 38.6546 426.586 38.0257 426.236C37.512 425.913 37.1253 425.422 36.9307 424.847C36.6943 424.159 36.5818 423.434 36.5983 422.706V418.229C36.5789 417.51 36.6915 416.795 36.9307 416.117C37.1295 415.555 37.5163 415.078 38.0257 414.768C38.6571 414.425 39.3709 414.262 40.0886 414.299C40.8158 414.26 41.5396 414.422 42.1807 414.768C42.6927 415.078 43.0827 415.554 43.2854 416.117C43.5246 416.795 43.6373 417.51 43.6179 418.229V422.814C43.621 423.346 43.5653 423.877 43.4517 424.398C43.3561 424.839 43.1697 425.255 42.9042 425.62C42.6555 425.972 42.3183 426.252 41.9266 426.431L42.3274 426.861L42.7477 427.291C42.8762 427.406 43.0134 427.511 43.1583 427.604L42.7282 428.983ZM40.0886 425.072C40.2261 425.093 40.3664 425.086 40.5012 425.052C40.6361 425.017 40.7627 424.957 40.8738 424.873C40.9848 424.789 41.0781 424.684 41.1481 424.564C41.2181 424.444 41.2633 424.311 41.2813 424.173C41.3419 423.87 41.3714 423.562 41.3693 423.254V417.632C41.3724 417.324 41.3429 417.016 41.2813 416.713C41.2334 416.465 41.1065 416.239 40.9195 416.068C40.6788 415.894 40.3845 415.811 40.0886 415.833C39.7986 415.811 39.5103 415.894 39.2771 416.068C39.0863 416.234 38.9614 416.463 38.9252 416.713C38.8635 417.016 38.834 417.324 38.8371 417.632V423.254C38.835 423.562 38.8645 423.87 38.9252 424.173C38.9634 424.428 39.0876 424.662 39.2771 424.838C39.5103 425.011 39.7986 425.095 40.0886 425.072Z" fill="#263238"/>
<path d="M48.6141 426.754C47.8798 426.796 47.1493 426.623 46.5122 426.255C46.0056 425.923 45.6346 425.42 45.4661 424.838C45.2639 424.122 45.1683 423.381 45.1825 422.638V414.387H47.3529V422.902C47.3532 423.262 47.3793 423.621 47.4311 423.977C47.4645 424.277 47.5872 424.56 47.7831 424.789C47.891 424.898 48.0211 424.982 48.1645 425.036C48.3079 425.09 48.4612 425.112 48.6141 425.102C48.7717 425.116 48.9305 425.096 49.0792 425.041C49.2279 424.987 49.3629 424.901 49.4744 424.789C49.6594 424.554 49.7776 424.274 49.8166 423.977C49.8766 423.622 49.906 423.262 49.9046 422.902V414.387H52.0554V422.638C52.0696 423.381 51.9741 424.122 51.7719 424.838C51.6035 425.417 51.2367 425.919 50.7356 426.255C50.0922 426.625 49.3548 426.798 48.6141 426.754Z" fill="#263238"/>
<path d="M53.1206 426.588L55.5647 414.387H57.9404L60.3845 426.588H58.3217L57.8427 423.772H55.7114L55.2128 426.588H53.1206ZM55.9362 422.355H57.5983L56.7673 417.232L55.9362 422.355Z" fill="#263238"/>
<path d="M61.5481 426.588V414.387H63.7772V425.072H66.7101V426.607L61.5481 426.588Z" fill="#263238"/>
<path d="M67.8931 426.588V414.387H70.0928V426.588H67.8931Z" fill="#263238"/>
<path d="M73.1919 426.588V416.029H71.2366V414.387H77.3273V416.029H75.372V426.588H73.1919Z" fill="#263238"/>
<path d="M80.1527 426.588V421.934L77.6792 414.387H79.7225L81.2281 419.275L82.6457 414.387H84.6792L82.2351 421.934V426.588H80.1527Z" fill="#263238"/>
<path d="M356.248 340.246L359.269 362.38L345.181 365.733C341.317 368.349 337.284 370.704 333.107 372.782C327.397 375.461 323.379 376.468 321.375 376.468C319.371 376.468 311.98 373.447 311.98 373.447C311.98 373.447 317.015 346.278 322.734 343.257C328.453 340.236 343.48 335.886 356.248 340.246Z" fill="white" stroke="#263238" stroke-linecap="round" stroke-linejoin="round"/>
<path d="M284.605 339.471C284.605 339.471 309.79 337.867 313.475 337.867C317.161 337.867 325.364 346.998 325.364 346.998C325.364 346.998 340.38 371.997 339.119 373.493C335.951 377.247 333.419 374.529 333.419 374.529L332.843 377.169C332.843 377.169 330.398 380.199 317.992 378.528C305.586 376.856 301.558 373.111 298.566 372.417C295.575 371.723 279.277 367.206 279.277 367.206L284.605 339.471Z" fill="white" stroke="#263238" stroke-linecap="round" stroke-linejoin="round"/>
<path d="M333.419 374.478L329.274 366.48" stroke="#263238" stroke-linecap="round" stroke-linejoin="round"/>
<path d="M329.274 378.184L324.132 369.336" stroke="#263238" stroke-linecap="round" stroke-linejoin="round"/>
<path d="M349.179 342.25C349.179 342.25 323.985 334.536 318.999 339.903C314.013 345.27 303.23 359.358 305.576 361.04C307.922 362.721 316.33 356.337 318.286 354.998C319.764 353.927 321.116 352.69 322.313 351.312C324.651 353.62 327.556 355.269 330.735 356.094C333.915 356.918 337.256 356.887 340.419 356.005" fill="white"/>
<path d="M349.179 342.25C349.179 342.25 323.985 334.536 318.999 339.903C314.013 345.27 303.23 359.358 305.576 361.04C307.922 362.721 316.33 356.337 318.286 354.998C319.764 353.927 321.116 352.69 322.313 351.312C324.651 353.62 327.556 355.269 330.735 356.094C333.915 356.918 337.256 356.887 340.419 356.005" stroke="#263238" stroke-linecap="round" stroke-linejoin="round"/>
<path d="M321.511 368.856C321.511 368.856 319.097 377.479 320.074 378.945C320.439 379.559 320.996 380.035 321.659 380.3C322.322 380.565 323.053 380.604 323.741 380.412C324.566 380.072 325.316 379.573 325.95 378.945C325.95 378.945 326.312 371.613 325.217 369.775C324.122 367.937 323.164 366.656 321.511 368.856Z" fill="white" stroke="#263238" stroke-linecap="round" stroke-linejoin="round"/>
<path d="M315.088 369.967C315.088 369.967 312.703 378.589 313.622 380.056C313.988 380.67 314.547 381.147 315.211 381.412C315.876 381.677 316.609 381.716 317.298 381.522C318.116 381.176 318.863 380.678 319.497 380.056C319.497 380.056 319.859 372.714 318.764 370.886C317.669 369.057 316.74 367.767 315.088 369.967Z" fill="white" stroke="#263238" stroke-linecap="round" stroke-linejoin="round"/>
<path d="M308.636 370.266C308.636 370.266 306.807 376.885 307.511 378.009C307.789 378.475 308.212 378.838 308.715 379.041C309.218 379.244 309.774 379.276 310.298 379.134C310.929 378.871 311.503 378.489 311.989 378.009C311.989 378.009 312.273 372.378 311.432 370.97C310.591 369.562 309.897 368.585 308.636 370.266Z" fill="white" stroke="#263238" stroke-linecap="round" stroke-linejoin="round"/>
<path d="M301.02 370.549C301.02 370.549 299.583 374.929 300.14 375.672C300.397 375.996 300.743 376.239 301.135 376.371C301.527 376.502 301.949 376.518 302.35 376.415C302.834 376.249 303.284 375.997 303.679 375.672C303.679 375.672 303.904 371.947 303.239 371.018C302.574 370.09 302.017 369.483 301.02 370.549Z" fill="white" stroke="#263238" stroke-linecap="round" stroke-linejoin="round"/>
<path d="M360.744 333.414L351.214 335.41L359 372.585L368.531 370.589L360.744 333.414Z" fill="white" stroke="#263238" stroke-linecap="round" stroke-linejoin="round"/>
<path d="M373.046 330.344L357.793 333.539L366.48 375.01L381.733 371.816L373.046 330.344Z" fill="#FFD01F" stroke="#263238" stroke-linecap="round" stroke-linejoin="round"/>
<path d="M273.169 370.586L282.7 372.582L290.486 335.407L280.956 333.411L273.169 370.586Z" fill="white" stroke="#263238" stroke-linecap="round" stroke-linejoin="round"/>
<path d="M259.971 371.813L275.224 375.008L283.91 333.536L268.657 330.342L259.971 371.813Z" fill="#263238" stroke="#263238" stroke-linecap="round" stroke-linejoin="round"/>
<path d="M267.94 423.808C267.202 423.849 266.469 423.665 265.838 423.28C265.334 422.931 264.959 422.426 264.773 421.843C264.564 421.162 264.461 420.453 264.47 419.741V415.38C264.459 414.646 264.561 413.914 264.773 413.21C264.954 412.629 265.331 412.128 265.838 411.792C266.477 411.43 267.207 411.26 267.94 411.304C268.617 411.272 269.291 411.417 269.895 411.724C270.347 412.017 270.69 412.45 270.873 412.956C271.079 413.553 271.178 414.182 271.166 414.813V415.791H269.035V414.813C269.037 414.503 269.017 414.192 268.976 413.885C268.96 413.634 268.86 413.397 268.693 413.21C268.581 413.116 268.452 413.046 268.312 413.004C268.173 412.962 268.026 412.949 267.881 412.966C267.732 412.953 267.582 412.969 267.44 413.014C267.297 413.06 267.165 413.133 267.05 413.229C266.865 413.422 266.745 413.668 266.708 413.933C266.66 414.257 266.638 414.584 266.64 414.911V420.21C266.631 420.577 266.663 420.945 266.738 421.305C266.787 421.565 266.932 421.798 267.143 421.959C267.354 422.12 267.617 422.197 267.881 422.175C268.025 422.192 268.17 422.177 268.307 422.132C268.444 422.086 268.569 422.011 268.673 421.911C268.84 421.711 268.942 421.466 268.967 421.207C269.016 420.884 269.039 420.557 269.035 420.229V419.115H271.166V420.093C271.185 420.756 271.089 421.417 270.883 422.048C270.714 422.582 270.37 423.044 269.905 423.358C269.307 423.693 268.625 423.849 267.94 423.808Z" fill="#263238"/>
<path d="M276.113 423.811C275.379 423.853 274.648 423.68 274.011 423.312C273.505 422.979 273.134 422.477 272.965 421.894C272.765 421.179 272.669 420.438 272.682 419.695V411.434H274.852V419.949C274.847 420.309 274.873 420.669 274.93 421.024C274.962 421.327 275.085 421.614 275.282 421.846C275.519 422.041 275.816 422.148 276.123 422.148C276.43 422.148 276.727 422.041 276.964 421.846C277.154 421.609 277.275 421.325 277.316 421.024C277.373 420.669 277.399 420.309 277.394 419.949V411.434H279.555V419.705C279.569 420.448 279.47 421.19 279.261 421.904C279.1 422.485 278.736 422.988 278.235 423.322C277.59 423.688 276.853 423.858 276.113 423.811Z" fill="#263238"/>
<path d="M284.374 423.806C283.734 423.828 283.1 423.679 282.536 423.376C282.038 423.088 281.646 422.645 281.422 422.115C281.149 421.471 281.007 420.78 281.001 420.081L282.908 419.7C282.92 420.122 282.979 420.542 283.084 420.952C283.155 421.265 283.307 421.555 283.524 421.792C283.626 421.892 283.747 421.969 283.879 422.019C284.012 422.07 284.154 422.092 284.296 422.086C284.441 422.099 284.588 422.077 284.723 422.021C284.857 421.965 284.976 421.876 285.068 421.763C285.225 421.518 285.304 421.232 285.293 420.942C285.315 420.478 285.189 420.019 284.932 419.632C284.648 419.251 284.32 418.907 283.954 418.605L282.419 417.246C282.005 416.894 281.655 416.474 281.383 416.005C281.113 415.483 280.982 414.9 281.001 414.313C280.978 413.904 281.04 413.493 281.185 413.11C281.33 412.726 281.554 412.376 281.842 412.084C282.481 411.535 283.308 411.254 284.149 411.302C284.641 411.288 285.13 411.375 285.587 411.556C285.949 411.717 286.262 411.97 286.496 412.29C286.725 412.613 286.897 412.974 287.004 413.355C287.115 413.768 287.184 414.19 287.21 414.616L285.313 414.939C285.298 414.61 285.256 414.283 285.186 413.961C285.136 413.696 285.014 413.449 284.834 413.248C284.737 413.159 284.622 413.09 284.498 413.047C284.374 413.003 284.242 412.985 284.11 412.993C283.967 412.988 283.825 413.014 283.693 413.07C283.561 413.126 283.444 413.21 283.348 413.316C283.167 413.547 283.073 413.834 283.084 414.128C283.081 414.47 283.169 414.807 283.338 415.105C283.549 415.41 283.799 415.686 284.081 415.926L285.596 417.266C286.102 417.69 286.538 418.192 286.887 418.752C287.256 419.372 287.443 420.083 287.425 420.805C287.436 421.349 287.301 421.885 287.034 422.359C286.785 422.805 286.416 423.171 285.968 423.415C285.481 423.684 284.931 423.819 284.374 423.806Z" fill="#263238"/>
<path d="M289.967 423.615V413.076H288.011V411.434H294.092V413.076H292.186V423.615H289.967Z" fill="#263238"/>
<path d="M298.472 423.813C297.752 423.846 297.037 423.677 296.409 423.324C295.896 423.004 295.509 422.517 295.314 421.945C295.078 421.257 294.965 420.532 294.982 419.804V415.239C294.963 414.517 295.076 413.799 295.314 413.117C295.513 412.555 295.9 412.078 296.409 411.768C297.059 411.463 297.768 411.305 298.487 411.305C299.205 411.305 299.914 411.463 300.564 411.768C301.071 412.081 301.457 412.557 301.659 413.117C301.901 413.798 302.017 414.517 302.001 415.239V419.814C302.016 420.536 301.9 421.255 301.659 421.936C301.456 422.506 301.071 422.993 300.564 423.324C299.926 423.679 299.201 423.848 298.472 423.813ZM298.472 422.17C298.766 422.192 299.058 422.105 299.293 421.926C299.479 421.747 299.606 421.515 299.655 421.261C299.715 420.959 299.745 420.651 299.743 420.342V414.721C299.746 414.412 299.716 414.104 299.655 413.802C299.601 413.558 299.475 413.337 299.293 413.166C299.057 412.991 298.765 412.908 298.472 412.932C298.188 412.91 297.906 412.994 297.68 413.166C297.491 413.331 297.364 413.555 297.318 413.802C297.248 414.103 297.215 414.411 297.221 414.721V420.342C297.218 420.651 297.248 420.959 297.309 421.261C297.35 421.515 297.474 421.748 297.66 421.926C297.893 422.102 298.181 422.188 298.472 422.17Z" fill="#263238"/>
<path d="M303.615 423.613L303.82 411.402H306.127L307.868 419.859L309.666 411.402H311.935L312.13 423.613H310.468L310.292 415.127L308.552 423.613H307.213L305.453 415.098L305.287 423.613H303.615Z" fill="#263238"/>
<path d="M313.89 423.615V411.434H319.013V413.008H316.08V416.517H318.358V418.072H316.08V422.11H319.013V423.615H313.89Z" fill="#263238"/>
<path d="M320.293 423.617V411.435H323.226C323.932 411.418 324.635 411.517 325.309 411.729C325.842 411.894 326.302 412.24 326.609 412.706C326.936 413.304 327.089 413.982 327.049 414.662C327.055 415.108 327.013 415.554 326.922 415.991C326.838 416.346 326.682 416.679 326.462 416.969C326.224 417.26 325.914 417.482 325.563 417.614L327.264 423.627H325.035L323.559 418.035H322.532V423.617H320.293ZM322.522 416.627H323.216C323.553 416.634 323.886 416.567 324.194 416.431C324.451 416.313 324.651 416.099 324.751 415.835C324.87 415.493 324.927 415.132 324.918 414.769C324.951 414.285 324.831 413.803 324.575 413.391C324.411 413.219 324.209 413.088 323.985 413.008C323.761 412.928 323.521 412.902 323.285 412.931H322.473L322.522 416.627Z" fill="#263238"/>
<path d="M332.377 423.615V411.434H334.606V422.11H337.539V423.615H332.377Z" fill="#263238"/>
<path d="M341.88 423.813C341.16 423.846 340.445 423.677 339.817 423.324C339.304 423.004 338.917 422.517 338.722 421.945C338.485 421.257 338.373 420.532 338.389 419.804V415.239C338.371 414.517 338.484 413.799 338.722 413.117C338.921 412.555 339.307 412.078 339.817 411.768C340.467 411.463 341.176 411.305 341.894 411.305C342.612 411.305 343.322 411.463 343.972 411.768C344.479 412.081 344.864 412.557 345.067 413.117C345.313 413.797 345.429 414.516 345.409 415.239V419.814C345.429 420.537 345.312 421.256 345.067 421.936C344.863 422.506 344.479 422.993 343.972 423.324C343.334 423.679 342.609 423.848 341.88 423.813ZM341.88 422.17C342.174 422.192 342.466 422.105 342.701 421.926C342.89 421.749 343.017 421.516 343.063 421.261C343.123 420.959 343.153 420.651 343.151 420.342V414.721C343.154 414.412 343.124 414.104 343.063 413.802C343.013 413.557 342.886 413.334 342.701 413.166C342.465 412.991 342.173 412.908 341.88 412.932C341.596 412.91 341.314 412.994 341.088 413.166C340.899 413.331 340.772 413.555 340.726 413.802C340.664 414.104 340.635 414.412 340.638 414.721V420.342C340.633 420.65 340.659 420.958 340.716 421.261C340.758 421.515 340.882 421.748 341.068 421.926C341.301 422.102 341.589 422.188 341.88 422.17Z" fill="#263238"/>
<path d="M348.635 423.615V418.952L346.152 411.434H348.234L349.74 416.273L351.158 411.434H353.191L350.747 418.981V423.615H348.635Z" fill="#263238"/>
<path d="M353.181 423.613L355.626 411.402H358.011L360.445 423.613H358.382L357.903 420.798H355.772L355.274 423.613H353.181ZM356.007 419.38H357.659L356.828 414.257L356.007 419.38Z" fill="#263238"/>
<path d="M361.609 423.615V411.434H363.838V422.11H366.771V423.615H361.609Z" fill="#263238"/>
<path d="M368.57 423.615V413.076H366.615V411.434H372.705V413.076H370.75V423.615H368.57Z" fill="#263238"/>
<path d="M375.531 423.613V418.95L373.057 411.402H375.14L376.645 416.242L378.063 411.402H380.096L377.652 418.95V423.613H375.531Z" fill="#263238"/>
<path d="M198.139 364.061V353.942L188.04 352.818C187.496 350.709 186.663 348.686 185.566 346.805L191.951 338.827L184.794 331.73L176.856 338.075C174.976 336.972 172.957 336.127 170.853 335.562L169.729 325.375H159.639L158.495 335.464C156.384 336.014 154.358 336.85 152.473 337.948L144.495 331.564L137.349 338.72L143.704 346.658C142.597 348.537 141.749 350.556 141.181 352.661L131.043 353.785V363.894L141.142 365.019C141.689 367.129 142.521 369.155 143.616 371.041L137.231 379.019L144.388 386.165L152.326 379.811C154.204 380.918 156.223 381.763 158.329 382.323L159.453 392.471H169.572L170.687 382.372C172.797 381.825 174.823 380.993 176.709 379.899L184.687 386.273L191.833 379.126L185.478 371.188C186.585 369.309 187.433 367.29 188.001 365.185L198.139 364.061ZM164.596 370.992C162.207 370.994 159.872 370.288 157.885 368.962C155.898 367.637 154.349 365.752 153.434 363.545C152.519 361.339 152.278 358.911 152.743 356.569C153.208 354.226 154.357 352.074 156.045 350.384C157.733 348.694 159.885 347.544 162.227 347.077C164.569 346.61 166.998 346.849 169.204 347.762C171.411 348.676 173.297 350.223 174.625 352.209C175.952 354.195 176.66 356.53 176.66 358.918C176.66 362.119 175.389 365.188 173.127 367.452C170.865 369.716 167.796 370.99 164.596 370.992Z" fill="#263238" stroke="#263238" stroke-linecap="round" stroke-linejoin="round"/>
<path d="M237.851 343.761L236.727 337.064L229.883 337.436C229.283 336.103 228.507 334.857 227.576 333.731L231.008 327.738L225.484 323.827L220.928 328.911C219.562 328.392 218.131 328.063 216.675 327.933L214.808 321.344L208.111 322.458L208.492 329.302C207.156 329.9 205.906 330.676 204.777 331.609L198.745 328.187L194.835 333.682L199.918 338.228C199.399 339.594 199.07 341.025 198.941 342.481L192.312 344.436L193.437 351.123L200.28 350.751C200.873 352.086 201.646 353.332 202.578 354.457L199.244 360.45L204.768 364.36L209.323 359.277C210.69 359.796 212.12 360.125 213.576 360.254L215.443 366.844L222.14 365.729L221.759 358.885C223.096 358.288 224.346 357.511 225.474 356.578L231.457 359.922L235.368 354.388L230.284 349.842C230.798 348.475 231.127 347.044 231.262 345.589L237.851 343.761ZM216.402 352.062C214.823 352.324 213.202 352.112 211.743 351.453C210.285 350.794 209.055 349.717 208.208 348.36C207.361 347.002 206.935 345.423 206.985 343.824C207.035 342.224 207.558 340.675 208.488 339.373C209.418 338.07 210.713 337.072 212.209 336.506C213.706 335.939 215.337 335.828 216.896 336.188C218.456 336.548 219.873 337.362 220.97 338.527C222.067 339.692 222.794 341.156 223.059 342.735C223.413 344.85 222.915 347.019 221.672 348.768C220.43 350.516 218.545 351.7 216.431 352.062H216.402Z" fill="#FFD01F" stroke="#263238" stroke-linecap="round" stroke-linejoin="round"/>
<path d="M220.993 381.113L220.327 377.14L216.274 377.36C215.918 376.57 215.458 375.831 214.907 375.162L216.887 371.613L213.61 369.293L210.917 372.309C210.107 372.005 209.26 371.81 208.398 371.729L207.286 367.82L203.325 368.487L203.545 372.547C202.755 372.904 202.015 373.364 201.345 373.916L197.801 371.938L195.485 375.215L198.496 377.917C198.189 378.726 197.994 379.573 197.917 380.434L194.008 381.507L194.668 385.48L198.722 385.254C199.074 386.048 199.534 386.789 200.088 387.457L198.108 391.007L201.38 393.326L204.078 390.311C204.887 390.619 205.735 390.814 206.597 390.891L207.703 394.805L211.67 394.138L211.45 390.079C212.24 389.727 212.978 389.268 213.645 388.716L217.194 390.693L219.511 387.417L216.499 384.714C216.804 383.903 216.999 383.054 217.078 382.191L220.993 381.113ZM208.294 386.042C207.357 386.2 206.395 386.076 205.529 385.687C204.662 385.297 203.931 384.658 203.427 383.852C202.923 383.046 202.67 382.108 202.698 381.157C202.727 380.206 203.036 379.285 203.587 378.511C204.139 377.736 204.907 377.143 205.795 376.806C206.683 376.468 207.651 376.403 208.577 376.617C209.502 376.831 210.343 377.315 210.994 378.008C211.644 378.701 212.075 379.571 212.232 380.51C212.441 381.766 212.144 383.054 211.406 384.092C210.667 385.129 209.548 385.831 208.294 386.042Z" fill="white" stroke="#263238" stroke-linecap="round" stroke-linejoin="round"/>
<path d="M149.408 425.318C148.767 425.344 148.132 425.195 147.57 424.888C147.077 424.597 146.687 424.16 146.455 423.636C146.184 422.992 146.041 422.301 146.035 421.603L147.99 421.221C148.005 421.643 148.06 422.062 148.156 422.473C148.228 422.784 148.379 423.07 148.596 423.304C148.699 423.402 148.82 423.479 148.953 423.529C149.085 423.58 149.227 423.603 149.369 423.597C149.514 423.613 149.661 423.591 149.796 423.535C149.931 423.478 150.05 423.389 150.141 423.274C150.302 423.032 150.381 422.744 150.366 422.453C150.386 421.989 150.259 421.531 150.004 421.143C149.721 420.777 149.393 420.448 149.027 420.166L147.462 418.748C147.051 418.396 146.704 417.976 146.436 417.506C146.166 416.981 146.035 416.395 146.054 415.805C146.031 415.396 146.094 414.985 146.238 414.602C146.383 414.218 146.607 413.868 146.895 413.576C147.535 413.028 148.361 412.747 149.202 412.794C149.692 412.779 150.179 412.869 150.63 413.058C150.992 413.218 151.306 413.471 151.539 413.791C151.77 414.11 151.942 414.468 152.047 414.847C152.156 415.261 152.227 415.682 152.263 416.108L150.307 416.441C150.291 416.112 150.249 415.785 150.18 415.463C150.139 415.199 150.02 414.954 149.838 414.759C149.74 414.669 149.624 414.6 149.498 414.556C149.372 414.512 149.238 414.495 149.105 414.505C148.962 414.5 148.819 414.526 148.688 414.582C148.556 414.637 148.438 414.721 148.342 414.828C148.162 415.055 148.068 415.339 148.078 415.629C148.072 415.972 148.16 416.31 148.332 416.607C148.543 416.912 148.793 417.188 149.075 417.428L150.649 418.748C151.152 419.173 151.584 419.674 151.93 420.234C152.304 420.852 152.491 421.565 152.468 422.287C152.479 422.83 152.347 423.366 152.087 423.842C151.835 424.29 151.462 424.66 151.011 424.907C150.522 425.182 149.969 425.323 149.408 425.318Z" fill="#263238"/>
<path d="M157.122 425.32C156.387 425.363 155.657 425.189 155.02 424.822C154.513 424.489 154.142 423.986 153.974 423.404C153.771 422.689 153.676 421.948 153.69 421.204V412.953H155.86V421.468C155.858 421.828 155.881 422.187 155.929 422.544C155.97 422.843 156.096 423.125 156.291 423.355C156.525 423.556 156.823 423.667 157.131 423.667C157.44 423.667 157.738 423.556 157.972 423.355C158.16 423.121 158.282 422.841 158.324 422.544C158.376 422.188 158.402 421.828 158.402 421.468V412.953H160.563V421.204C160.579 421.948 160.48 422.69 160.27 423.404C160.121 423.977 159.775 424.479 159.292 424.822C158.635 425.201 157.879 425.374 157.122 425.32Z" fill="#263238"/>
<path d="M162.303 425.149V412.948H165.861C166.482 412.924 167.099 413.062 167.65 413.349C168.095 413.628 168.438 414.043 168.628 414.532C168.858 415.13 168.967 415.768 168.951 416.409C168.983 417.084 168.845 417.756 168.55 418.364C168.297 418.834 167.894 419.205 167.406 419.42C166.863 419.655 166.276 419.768 165.685 419.753H164.473V425.178L162.303 425.149ZM164.532 418.159H165.382C165.718 418.181 166.053 418.121 166.36 417.983C166.473 417.928 166.573 417.85 166.654 417.754C166.734 417.658 166.794 417.546 166.829 417.426C166.926 417.093 166.969 416.746 166.956 416.399C166.966 416.038 166.933 415.677 166.859 415.324C166.805 415.071 166.654 414.85 166.438 414.708C166.133 414.564 165.797 414.497 165.461 414.512H164.61L164.532 418.159Z" fill="#263238"/>
<path d="M170.183 425.149V412.948H173.771C174.392 412.924 175.009 413.062 175.56 413.349C176.004 413.628 176.347 414.043 176.538 414.532C176.767 415.13 176.877 415.768 176.86 416.409C176.893 417.084 176.755 417.756 176.459 418.364C176.206 418.834 175.804 419.205 175.316 419.42C174.773 419.655 174.186 419.768 173.595 419.753H172.392V425.178L170.183 425.149ZM172.422 418.159H173.262C173.598 418.181 173.934 418.121 174.24 417.983C174.353 417.928 174.453 417.85 174.534 417.754C174.615 417.658 174.674 417.546 174.709 417.426C174.806 417.093 174.849 416.746 174.836 416.399C174.846 416.038 174.813 415.677 174.739 415.324C174.685 415.071 174.534 414.85 174.318 414.708C174.013 414.564 173.678 414.497 173.341 414.512H172.5L172.422 418.159Z" fill="#263238"/>
<path d="M181.446 425.313C180.726 425.351 180.011 425.185 179.383 424.834C178.866 424.511 178.476 424.021 178.278 423.445C178.041 422.757 177.929 422.032 177.946 421.304V416.788C177.926 416.069 178.039 415.353 178.278 414.676C178.481 414.113 178.871 413.637 179.383 413.327C180.014 412.984 180.728 412.821 181.446 412.857C182.17 412.818 182.891 412.98 183.528 413.327C184.038 413.639 184.427 414.114 184.633 414.676C184.872 415.353 184.985 416.069 184.965 416.788V421.373C184.982 422.091 184.869 422.806 184.633 423.484C184.428 424.057 184.04 424.545 183.528 424.873C182.888 425.209 182.167 425.361 181.446 425.313ZM181.446 423.67C181.739 423.694 182.031 423.611 182.267 423.436C182.449 423.255 182.572 423.023 182.619 422.771C182.679 422.468 182.709 422.16 182.707 421.852V416.23C182.71 415.922 182.68 415.614 182.619 415.311C182.574 415.064 182.451 414.837 182.267 414.666C182.024 414.513 181.742 414.432 181.455 414.432C181.168 414.432 180.887 414.513 180.644 414.666C180.457 414.837 180.33 415.063 180.282 415.311C180.22 415.614 180.191 415.922 180.194 416.23V421.852C180.194 422.16 180.22 422.467 180.272 422.771C180.281 422.911 180.319 423.047 180.385 423.171C180.451 423.295 180.542 423.403 180.653 423.489C180.765 423.574 180.893 423.634 181.03 423.666C181.166 423.697 181.308 423.699 181.446 423.67Z" fill="#263238"/>
<path d="M186.607 425.148V412.947H189.54C190.249 412.93 190.956 413.029 191.633 413.241C192.164 413.405 192.621 413.751 192.923 414.218C193.257 414.814 193.413 415.492 193.373 416.174C193.376 416.617 193.33 417.06 193.236 417.493C193.155 417.849 192.999 418.182 192.776 418.471C192.54 418.76 192.229 418.98 191.877 419.106L193.578 425.119H191.349L189.873 419.527H188.895V425.119L186.607 425.148ZM188.836 418.158H189.531C189.886 418.176 190.24 418.112 190.567 417.972C190.82 417.847 191.015 417.63 191.114 417.366C191.234 417.027 191.29 416.67 191.281 416.31C191.319 415.826 191.199 415.342 190.938 414.932C190.777 414.759 190.576 414.627 190.354 414.547C190.131 414.467 189.892 414.442 189.658 414.472H188.836V418.158Z" fill="#263238"/>
<path d="M196.227 425.154V414.596H194.272V412.953H200.353V414.596H198.447V425.154H196.227Z" fill="#263238"/>
<path d="M431.951 363.895H421.881V393.938H431.951V363.895Z" fill="#263238" stroke="#263238" stroke-width="0.5" stroke-linecap="round" stroke-linejoin="round"/>
<path d="M447.779 374.695H437.709V393.935H447.779V374.695Z" fill="#FFD01F" stroke="#263238" stroke-linecap="round" stroke-linejoin="round"/>
<path d="M463.607 357.309H453.537V393.931H463.607V357.309Z" fill="#263238" stroke="#263238" stroke-width="0.5" stroke-linecap="round" stroke-linejoin="round"/>
<path d="M479.435 364.887H469.365V393.933H479.435V364.887Z" fill="#FFD01F" stroke="#263238" stroke-linecap="round" stroke-linejoin="round"/>
<path d="M495.263 358.254H485.194V393.938H495.263V358.254Z" fill="#263238" stroke="#263238" stroke-width="0.5" stroke-linecap="round" stroke-linejoin="round"/>
<path d="M511.082 337.105H501.012V393.936H511.082V337.105Z" fill="#FFD01F" stroke="#263238" stroke-linecap="round" stroke-linejoin="round"/>
<path d="M522.403 336.5H528.298" stroke="#263238" stroke-width="0.5" stroke-linecap="round" stroke-linejoin="round"/>
<path d="M522.403 347.988H528.298" stroke="#263238" stroke-width="0.5" stroke-linecap="round" stroke-linejoin="round"/>
<path d="M522.403 359.484H528.298" stroke="#263238" stroke-width="0.5" stroke-linecap="round" stroke-linejoin="round"/>
<path d="M522.403 370.973H528.298" stroke="#263238" stroke-width="0.5" stroke-linecap="round" stroke-linejoin="round"/>
<path d="M522.403 382.457H528.298" stroke="#263238" stroke-width="0.5" stroke-linecap="round" stroke-linejoin="round"/>
<path d="M522.403 393.945H528.298" stroke="#263238" stroke-width="0.5" stroke-linecap="round" stroke-linejoin="round"/>
<path d="M427.639 352.813L443.076 362.14L459.12 344.953L474.967 346.292L490.336 340.191L507.709 317.324" stroke="#263238" stroke-linecap="round" stroke-linejoin="round"/>
<path d="M429.585 352.811C429.585 352.424 429.47 352.046 429.255 351.724C429.04 351.403 428.735 351.152 428.378 351.004C428.02 350.856 427.627 350.818 427.248 350.893C426.869 350.968 426.52 351.155 426.247 351.428C425.973 351.702 425.787 352.05 425.712 352.429C425.636 352.809 425.675 353.202 425.823 353.559C425.971 353.916 426.222 354.222 426.543 354.437C426.865 354.651 427.243 354.766 427.629 354.766C428.148 354.766 428.645 354.56 429.012 354.193C429.379 353.827 429.585 353.329 429.585 352.811Z" fill="#263238"/>
<path d="M445.022 362.139C445.022 361.752 444.907 361.374 444.692 361.053C444.477 360.731 444.172 360.48 443.815 360.332C443.457 360.184 443.064 360.146 442.685 360.221C442.306 360.297 441.957 360.483 441.684 360.756C441.41 361.03 441.224 361.378 441.149 361.757C441.073 362.137 441.112 362.53 441.26 362.887C441.408 363.244 441.659 363.55 441.98 363.765C442.302 363.98 442.68 364.094 443.066 364.094C443.585 364.094 444.082 363.888 444.449 363.521C444.816 363.155 445.022 362.657 445.022 362.139Z" fill="#263238"/>
<path d="M461.065 344.955C461.065 344.569 460.95 344.191 460.735 343.869C460.521 343.547 460.215 343.297 459.858 343.149C459.501 343.001 459.107 342.962 458.728 343.038C458.349 343.113 458 343.299 457.727 343.573C457.454 343.846 457.267 344.195 457.192 344.574C457.116 344.953 457.155 345.346 457.303 345.704C457.451 346.061 457.702 346.366 458.023 346.581C458.345 346.796 458.723 346.911 459.11 346.911C459.628 346.911 460.126 346.705 460.492 346.338C460.859 345.971 461.065 345.474 461.065 344.955Z" fill="#263238"/>
<path d="M476.913 346.295C476.913 345.908 476.798 345.53 476.583 345.209C476.368 344.887 476.063 344.637 475.706 344.489C475.348 344.341 474.955 344.302 474.576 344.377C474.197 344.453 473.848 344.639 473.575 344.913C473.301 345.186 473.115 345.534 473.04 345.914C472.964 346.293 473.003 346.686 473.151 347.043C473.299 347.401 473.55 347.706 473.871 347.921C474.193 348.136 474.571 348.25 474.957 348.25C475.476 348.25 475.973 348.044 476.34 347.678C476.707 347.311 476.913 346.814 476.913 346.295Z" fill="#263238"/>
<path d="M492.281 339.885C492.281 339.498 492.167 339.12 491.952 338.799C491.737 338.477 491.431 338.227 491.074 338.079C490.717 337.931 490.324 337.892 489.944 337.967C489.565 338.043 489.217 338.229 488.943 338.502C488.67 338.776 488.484 339.124 488.408 339.504C488.333 339.883 488.371 340.276 488.519 340.633C488.667 340.991 488.918 341.296 489.24 341.511C489.561 341.726 489.939 341.84 490.326 341.84C490.844 341.84 491.342 341.634 491.709 341.268C492.075 340.901 492.281 340.404 492.281 339.885Z" fill="#263238"/>
<path d="M509.664 317.307C509.664 316.92 509.55 316.542 509.335 316.221C509.12 315.899 508.815 315.648 508.457 315.5C508.1 315.352 507.707 315.314 507.327 315.389C506.948 315.465 506.6 315.651 506.326 315.924C506.053 316.198 505.867 316.546 505.791 316.925C505.716 317.305 505.755 317.698 505.902 318.055C506.05 318.412 506.301 318.718 506.623 318.933C506.944 319.147 507.322 319.262 507.709 319.262C508.228 319.262 508.725 319.056 509.092 318.689C509.458 318.323 509.664 317.825 509.664 317.307Z" fill="#263238"/>
<path d="M426.378 426.637V414.406H428.578V426.607L426.378 426.637Z" fill="#263238"/>
<path d="M430.456 426.637L430.671 414.406H432.968L434.708 422.853L436.517 414.406H438.746L438.971 426.607H437.309L437.133 418.151L435.402 426.637H434.053L432.294 418.121L432.127 426.637H430.456Z" fill="#263238"/>
<path d="M440.682 426.636V414.405H444.27C444.891 414.381 445.507 414.519 446.059 414.806C446.503 415.085 446.846 415.5 447.036 415.989C447.266 416.587 447.376 417.225 447.359 417.866C447.39 418.541 447.253 419.213 446.958 419.821C446.705 420.291 446.303 420.662 445.814 420.877C445.272 421.112 444.685 421.225 444.094 421.21H442.911V426.636H440.682ZM442.911 419.645H443.761C444.097 419.668 444.432 419.607 444.739 419.469C444.852 419.414 444.952 419.336 445.032 419.24C445.113 419.144 445.173 419.033 445.208 418.912C445.305 418.579 445.348 418.232 445.335 417.886C445.345 417.524 445.312 417.164 445.237 416.81C445.214 416.684 445.165 416.564 445.093 416.458C445.02 416.352 444.926 416.262 444.817 416.194C444.512 416.05 444.176 415.983 443.839 415.999H442.989L442.911 419.645Z" fill="#263238"/>
<path d="M448.571 426.635V414.404H451.504C452.213 414.387 452.92 414.486 453.596 414.698C454.128 414.862 454.584 415.208 454.887 415.675C455.221 416.271 455.377 416.949 455.337 417.631C455.34 418.074 455.294 418.517 455.2 418.95C455.118 419.305 454.961 419.638 454.74 419.928C454.504 420.217 454.193 420.437 453.841 420.564L455.552 426.576H453.293L451.798 421.043H450.82V426.635H448.571ZM450.82 419.645H451.504C451.859 419.662 452.214 419.599 452.541 419.459C452.793 419.333 452.989 419.117 453.088 418.853C453.214 418.512 453.27 418.15 453.254 417.787C453.288 417.304 453.172 416.823 452.922 416.409C452.757 416.237 452.555 416.107 452.331 416.027C452.107 415.947 451.867 415.92 451.631 415.949H450.82V419.645Z" fill="#263238"/>
<path d="M460.274 426.801C459.555 426.838 458.84 426.672 458.211 426.322C457.695 425.999 457.305 425.509 457.106 424.934C456.874 424.244 456.762 423.52 456.774 422.793V418.227C456.76 417.509 456.873 416.795 457.106 416.115C457.309 415.552 457.699 415.076 458.211 414.766C458.858 414.457 459.566 414.297 460.284 414.297C461.001 414.297 461.709 414.457 462.356 414.766C462.866 415.078 463.255 415.554 463.461 416.115C463.703 416.792 463.819 417.508 463.803 418.227V422.812C463.817 423.531 463.701 424.247 463.461 424.924C463.256 425.496 462.868 425.985 462.356 426.312C461.723 426.67 461 426.839 460.274 426.801ZM460.274 425.159C460.569 425.185 460.862 425.097 461.095 424.914C461.28 424.739 461.403 424.51 461.447 424.259C461.508 423.957 461.537 423.649 461.535 423.34V417.719C461.538 417.41 461.509 417.102 461.447 416.8C461.402 416.552 461.279 416.326 461.095 416.155C460.852 416.002 460.571 415.921 460.284 415.921C459.996 415.921 459.715 416.002 459.472 416.155C459.285 416.325 459.158 416.551 459.11 416.8C459.049 417.102 459.019 417.41 459.022 417.719V423.34C459.02 423.649 459.05 423.957 459.11 424.259C459.146 424.513 459.271 424.745 459.462 424.914C459.692 425.096 459.982 425.183 460.274 425.159Z" fill="#263238"/>
<path d="M467.254 426.637L464.791 414.406H466.746L468.359 423.039L469.884 414.406H471.908L469.454 426.607L467.254 426.637Z" fill="#263238"/>
<path d="M473.159 426.637V414.406H478.282V415.97H475.349V419.48H477.618V421.035H475.349V425.072H478.282V426.607L473.159 426.637Z" fill="#263238"/>
<path d="M479.573 426.642L479.788 414.441H482.105L483.835 422.888L485.644 414.441H487.873L488.098 426.642H486.436L486.26 418.156L484.529 426.642H483.18L481.41 418.127L481.244 426.642H479.573Z" fill="#263238"/>
<path d="M489.809 426.637V414.406H494.931V415.97H491.999V419.48H494.267V421.035H491.999V425.072H494.931V426.607L489.809 426.637Z" fill="#263238"/>
<path d="M496.251 426.637V414.406H497.806L500.739 421.367V414.406H502.635V426.607H501.159L498.167 419.314V426.607L496.251 426.637Z" fill="#263238"/>
<path d="M505.686 426.637V416.078H503.73V414.406H509.821V416.049H507.866V426.607L505.686 426.637Z" fill="#263238"/>
<path fill-rule="evenodd" clip-rule="evenodd" d="M609.691 80.597C610.903 81.5021 611.989 82.5641 612.922 83.7552L617.038 82.9975L619.777 89.387L616.381 91.8423C616.6 93.3362 616.619 94.8526 616.436 96.3514L619.877 98.7337L617.294 105.169L613.159 104.502C612.256 105.714 611.194 106.798 610.001 107.725L610.749 111.85L604.36 114.589L601.941 111.166C600.427 111.375 598.891 111.375 597.377 111.166L594.995 114.616L588.606 112.033L589.272 107.898C588.058 106.995 586.971 105.933 586.041 104.74L581.924 105.488L579.186 99.0989L582.572 96.6435C582.372 95.1288 582.372 93.5943 582.572 92.0796L579.122 89.8068L581.705 83.4174L585.84 84.0746C586.745 82.8654 587.807 81.7818 588.998 80.8525L588.25 76.6903L594.639 73.952L597.094 77.3384C598.607 77.1181 600.142 77.1028 601.658 77.2927L604.031 73.8516L610.466 76.4347L609.8 80.5696L609.691 80.597ZM602.525 87.4884C601.162 86.941 599.666 86.8101 598.228 87.1124C596.791 87.4148 595.475 88.1367 594.447 89.1868C593.419 90.237 592.726 91.5684 592.455 93.0125C592.184 94.4566 592.347 95.9487 592.924 97.3001C593.5 98.6516 594.465 99.8016 595.695 100.605C596.926 101.408 598.367 101.829 599.836 101.813C601.305 101.797 602.737 101.347 603.95 100.517C605.163 99.6882 606.103 98.518 606.651 97.1546C607.015 96.2491 607.197 95.2807 607.187 94.3047C607.176 93.3288 606.974 92.3644 606.591 91.4668C606.208 90.5691 605.651 89.7558 604.954 89.0731C604.256 88.3905 603.431 87.852 602.525 87.4884Z" fill="#30363D"/>
<path fill-rule="evenodd" clip-rule="evenodd" d="M311.828 58.718C314.017 60.3563 315.978 62.2777 317.661 64.432L325.109 63.0719L330.029 74.5911L323.859 79.0637C324.252 81.7678 324.279 84.5124 323.941 87.2239L330.166 91.523L325.502 103.152L318.063 101.883C316.429 104.076 314.507 106.038 312.349 107.716L313.709 115.164L302.19 120.138L297.754 114.005C295.049 114.396 292.305 114.427 289.593 114.096L285.285 120.312L273.656 115.629L274.852 108.154C272.664 106.516 270.702 104.594 269.019 102.44L261.58 103.8L256.66 92.2806L262.794 87.8446C262.403 85.1405 262.372 82.3965 262.703 79.6844L256.487 75.4126L261.16 63.793L268.627 64.9979C270.268 62.8088 272.189 60.8448 274.341 59.1561L272.981 51.6805L284.5 46.7607L288.945 52.8945C291.649 52.5033 294.393 52.4726 297.105 52.8032L301.405 46.5781L313.033 51.2515L311.828 58.718ZM298.885 71.1865C296.419 70.1951 293.715 69.9573 291.114 70.5031C288.513 71.049 286.132 72.354 284.273 74.2531C282.413 76.1522 281.159 78.5601 280.668 81.1721C280.178 83.7842 280.473 86.4831 281.516 88.9275C282.559 91.3718 284.304 93.4519 286.53 94.9044C288.756 96.357 291.362 97.1169 294.02 97.0879C296.677 97.059 299.267 96.2425 301.46 94.7417C303.654 93.241 305.353 91.1235 306.343 88.6569C307.667 85.351 307.625 81.6548 306.227 78.3794C304.829 75.104 302.189 72.5172 298.885 71.1865Z" fill="#30363D"/>
<path fill-rule="evenodd" clip-rule="evenodd" d="M112.231 151.779C114.292 153.344 116.14 155.181 117.724 157.24L124.743 155.946L129.412 166.996L123.638 171.242C123.988 173.861 123.988 176.516 123.638 179.135L129.506 183.255L125.101 194.304L118.067 193.152C116.518 195.249 114.702 197.128 112.666 198.74L113.958 205.859L103.064 210.595L98.8772 204.738C96.3253 205.078 93.7408 205.078 91.1889 204.738L87.1269 210.69L76.2326 206.222L77.3687 199.072C75.3033 197.51 73.4553 195.673 71.8748 193.61L64.8402 194.904L60.1712 183.855L65.9608 179.608C65.5845 177.019 65.5583 174.391 65.8829 171.795L60 167.69L64.4044 156.562L71.4546 157.714C72.9979 155.618 74.8087 153.739 76.8395 152.126L75.5633 145.007L86.4577 140.271L90.6442 146.143C93.2221 145.757 95.8396 145.725 98.4259 146.049L102.488 140.098L113.382 144.565L112.262 151.716L112.231 151.779ZM100.013 163.697C97.6872 162.747 95.1357 162.518 92.6812 163.038C90.2267 163.558 87.9793 164.805 86.223 166.62C84.4667 168.435 83.2802 170.738 82.8136 173.237C82.3469 175.735 82.621 178.319 83.6011 180.66C84.5813 183 86.2236 184.994 88.3204 186.389C90.4173 187.784 92.8748 188.517 95.3822 188.495C97.8897 188.474 100.335 187.699 102.408 186.269C104.482 184.839 106.091 182.818 107.032 180.461C107.659 178.893 107.974 177.215 107.96 175.523C107.946 173.831 107.603 172.159 106.951 170.602C106.299 169.045 105.351 167.633 104.16 166.449C102.97 165.264 101.561 164.329 100.013 163.697Z" fill="#F0F0F0"/>
<path fill-rule="evenodd" clip-rule="evenodd" d="M469.632 19.122C475.301 21.2036 480.664 24.0357 485.579 27.5427L500.503 19.9699L518.177 41.2555L507.935 54.5152C510.469 59.9949 512.264 65.7857 513.275 71.7367L529.165 76.9265L526.604 104.469L510.013 106.633C507.93 112.302 505.095 117.666 501.585 122.582L509.164 137.494L487.847 155.154L474.592 144.921C469.12 147.46 463.333 149.26 457.386 150.271L452.192 166.162L424.627 163.589L422.535 147.04C416.866 144.959 411.503 142.127 406.587 138.62L391.664 146.178L373.99 124.892L384.232 111.633C381.698 106.153 379.902 100.362 378.891 94.4111L363.002 89.2213L365.475 61.6786L382.066 59.515C384.142 53.8439 386.967 48.4751 390.464 43.5507L382.885 28.6537L404.203 10.9937L417.458 21.2272C422.942 18.6823 428.744 16.8875 434.708 15.8911L439.902 0L467.466 2.61685L469.632 19.1951V19.122ZM450.056 53.6527C444.206 53.1082 438.327 54.3091 433.161 57.1037C427.995 59.8982 423.774 64.1608 421.033 69.3524C418.291 74.5439 417.152 80.4312 417.759 86.2696C418.366 92.1081 420.693 97.6355 424.444 102.153C428.196 106.67 433.203 109.974 438.834 111.648C444.465 113.321 450.466 113.288 456.078 111.553C461.69 109.819 466.662 106.46 470.363 101.902C474.065 97.3438 476.331 91.7913 476.874 85.9466C477.237 82.0663 476.83 78.1527 475.679 74.4294C474.527 70.7061 472.652 67.246 470.162 64.2469C467.671 61.2479 464.614 58.7686 461.164 56.9508C457.714 55.1329 453.939 54.0122 450.056 53.6527Z" fill="#30363D" fill-opacity="0.866667"/>
<path d="M653.286 241.462L606.617 241.245C605.281 241.242 603.959 240.975 602.727 240.46C601.495 239.945 600.376 239.191 599.436 238.242C598.496 237.293 597.753 236.168 597.248 234.931C596.744 233.694 596.49 232.37 596.499 231.034L596.994 114.357C597.001 113.023 597.271 111.704 597.788 110.475C598.305 109.246 599.059 108.131 600.007 107.193C600.956 106.256 602.08 105.514 603.314 105.011C604.549 104.508 605.871 104.254 607.205 104.262L653.874 104.471C656.566 104.481 659.144 105.559 661.042 107.467C662.941 109.376 664.004 111.959 664 114.651L663.505 231.336C663.501 232.672 663.233 233.995 662.717 235.228C662.201 236.46 661.447 237.579 660.498 238.52C659.548 239.46 658.423 240.205 657.185 240.709C655.948 241.214 654.623 241.47 653.286 241.462Z" fill="#455A64"/>
<path d="M653.812 108.533H644.761C644.467 108.537 644.177 108.6 643.906 108.716C643.636 108.833 643.392 109.001 643.187 109.213C642.982 109.424 642.821 109.674 642.713 109.947C642.605 110.221 642.552 110.513 642.557 110.808V112.448C642.563 113.041 642.335 113.614 641.923 114.041C641.51 114.468 640.946 114.715 640.352 114.73L622.707 114.645C622.411 114.638 622.119 114.572 621.848 114.451C621.578 114.33 621.334 114.157 621.131 113.941C620.928 113.725 620.77 113.471 620.666 113.193C620.562 112.916 620.514 112.62 620.526 112.324V110.668C620.536 110.373 620.488 110.078 620.383 109.8C620.279 109.523 620.121 109.27 619.918 109.054C619.715 108.838 619.472 108.665 619.202 108.543C618.932 108.422 618.64 108.356 618.344 108.348H615.157H607.236C606.302 108.343 605.377 108.522 604.512 108.874C603.648 109.227 602.861 109.746 602.197 110.403C601.534 111.059 601.006 111.84 600.644 112.701C600.282 113.561 600.093 114.485 600.088 115.418L599.601 229.31C599.596 231.197 600.341 233.007 601.671 234.345C603.001 235.682 604.808 236.437 606.694 236.443L653.271 236.659C655.156 236.668 656.968 235.928 658.309 234.603C659.651 233.277 660.412 231.474 660.426 229.589L660.906 115.697C660.913 114.76 660.735 113.831 660.382 112.963C660.029 112.095 659.508 111.306 658.848 110.64C658.189 109.975 657.405 109.446 656.541 109.084C655.676 108.723 654.749 108.535 653.812 108.533Z" fill="white"/>
<path d="M653.047 186.027H606.958V189.114H653.047V186.027Z" fill="#455A64"/>
<path d="M651.406 198.162C651.406 198.27 641.567 198.363 629.437 198.363C617.307 198.363 607.46 198.27 607.46 198.162C607.46 198.054 617.3 197.961 629.437 197.961C641.574 197.961 651.406 198.054 651.406 198.162Z" fill="#455A64"/>
<path d="M651.406 125.057C651.406 125.173 641.567 125.258 629.437 125.258C617.307 125.258 607.46 125.173 607.46 125.057C607.46 124.941 617.3 124.855 629.437 124.855C641.574 124.855 651.406 124.925 651.406 125.057Z" fill="#455A64"/>
<path d="M651.406 203.779C651.406 203.888 641.567 203.98 629.437 203.98C617.307 203.98 607.46 203.888 607.46 203.779C607.46 203.671 617.3 203.578 629.437 203.578C641.574 203.578 651.406 203.663 651.406 203.779Z" fill="#455A64"/>
<path d="M651.406 209.373C651.406 209.481 641.567 209.574 629.437 209.574C617.307 209.574 607.46 209.481 607.46 209.373C607.46 209.265 617.3 209.172 629.437 209.172C641.574 209.172 651.406 209.28 651.406 209.373Z" fill="#455A64"/>
<path d="M651.406 215.002C651.406 215.11 641.567 215.203 629.437 215.203C617.307 215.203 607.46 215.11 607.46 215.002C607.46 214.894 617.3 214.801 629.437 214.801C641.574 214.801 651.406 214.886 651.406 215.002Z" fill="#455A64"/>
<path d="M651.406 220.615C651.406 220.731 641.567 220.816 629.437 220.816C617.307 220.816 607.46 220.731 607.46 220.615C607.46 220.499 617.3 220.414 629.437 220.414C641.574 220.414 651.406 220.507 651.406 220.615Z" fill="#455A64"/>
<path d="M652.033 226.982C652.033 227.091 642.194 227.183 630.064 227.183C617.934 227.183 608.087 227.091 608.087 226.982C608.087 226.874 617.927 226.781 630.064 226.781C642.201 226.781 652.033 226.866 652.033 226.982Z" fill="#455A64"/>
<path d="M653.665 131.438H607.46V176.142H653.665V131.438Z" fill="#E0E0E0"/>
<path d="M611.042 172.314L623.829 149.309L634.28 164.014L640.631 156.201L650.084 172.314H611.042Z" fill="#FFD01F"/>
<path d="M638.736 144.838C638.736 145.496 638.541 146.139 638.175 146.686C637.81 147.233 637.29 147.659 636.682 147.911C636.074 148.163 635.406 148.229 634.76 148.1C634.115 147.972 633.522 147.655 633.057 147.19C632.592 146.725 632.275 146.132 632.147 145.487C632.019 144.842 632.084 144.173 632.336 143.565C632.588 142.957 633.014 142.438 633.561 142.072C634.108 141.707 634.751 141.512 635.409 141.512C636.291 141.514 637.136 141.865 637.759 142.488C638.383 143.112 638.734 143.956 638.736 144.838Z" fill="#FFD01F"/>
<path d="M650.084 172.435C650.084 172.435 650.084 172.373 650.084 172.249C650.084 172.126 650.084 171.948 650.084 171.731C650.084 171.252 650.084 170.586 650.084 169.72C650.084 167.948 650.084 165.38 650.03 162.123C650.03 155.595 649.975 146.296 649.937 135.134L650.122 135.319H611.088C611.034 135.366 611.498 134.902 611.305 135.103V145.159C611.305 148.447 611.305 151.665 611.305 154.79C611.305 161.056 611.305 166.974 611.305 172.42L611.111 172.226L639.339 172.327L647.307 172.373H649.418H649.96H650.153H649.983H649.457H647.384L639.463 172.42L611.111 172.52H610.918V172.327C610.918 166.912 610.918 160.963 610.918 154.697C610.918 151.603 610.918 148.354 610.918 145.066V135.01C610.717 135.203 611.181 134.731 611.142 134.786H650.177H650.254V135.111C650.207 146.327 650.176 155.664 650.153 162.224C650.153 165.458 650.153 168.01 650.107 169.774C650.107 170.625 650.107 171.283 650.107 171.747C650.107 171.956 650.107 172.118 650.107 172.249C650.108 172.312 650.1 172.375 650.084 172.435Z" fill="#455A64"/>
<path d="M84.979 120.334L84.979 230.615C84.979 235.895 89.2597 240.176 94.5402 240.176H261.129C266.409 240.176 270.69 235.895 270.69 230.615V120.334C270.69 115.053 266.409 110.773 261.129 110.773H94.5402C89.2597 110.773 84.979 115.053 84.979 120.334Z" fill="#455A64"/>
<path d="M97.6775 114.853L97.6775 236.094H252.768V114.853L97.6775 114.853Z" fill="white"/>
<path d="M261.352 170.508C262.335 170.508 263.295 170.799 264.112 171.345C264.929 171.891 265.565 172.666 265.941 173.574C266.317 174.482 266.415 175.48 266.224 176.444C266.032 177.407 265.559 178.292 264.864 178.987C264.17 179.681 263.285 180.154 262.321 180.346C261.358 180.538 260.359 180.439 259.452 180.063C258.544 179.688 257.768 179.051 257.223 178.234C256.677 177.417 256.385 176.457 256.385 175.475C256.385 174.157 256.909 172.894 257.84 171.963C258.772 171.031 260.035 170.508 261.352 170.508Z" fill="#263238"/>
<path d="M90.3267 156.998V193.951C90.3267 194.509 90.7788 194.961 91.3366 194.961H91.3697C91.9275 194.961 92.3796 194.509 92.3796 193.951V156.998C92.3796 156.44 91.9275 155.988 91.3697 155.988H91.3366C90.7788 155.988 90.3267 156.44 90.3267 156.998Z" fill="#263238"/>
<path d="M217.743 123.957H168.422V127.26H217.743V123.957Z" fill="#455A64"/>
<path d="M153.497 180.688H104.176V183.99H153.497V180.688Z" fill="#455A64"/>
<path d="M229.754 136.246C229.754 136.371 216.029 136.462 199.125 136.462C182.222 136.462 168.455 136.371 168.455 136.246C168.455 136.122 182.18 136.031 199.125 136.031C216.071 136.031 229.754 136.131 229.754 136.246Z" fill="#455A64"/>
<path d="M229.754 143.454C229.754 143.569 216.029 143.669 199.125 143.669C182.222 143.669 168.455 143.569 168.455 143.454C168.455 143.338 182.18 143.238 199.125 143.238C216.071 143.238 229.754 143.329 229.754 143.454Z" fill="#455A64"/>
<path d="M229.754 150.657C229.754 150.773 216.029 150.872 199.125 150.872C182.222 150.872 168.455 150.773 168.455 150.657C168.455 150.541 182.18 150.441 199.125 150.441C216.071 150.441 229.754 150.541 229.754 150.657Z" fill="#455A64"/>
<path d="M229.754 157.856C229.754 157.98 216.029 158.071 199.125 158.071C182.222 158.071 168.455 157.98 168.455 157.856C168.455 157.732 182.18 157.641 199.125 157.641C216.071 157.641 229.754 157.74 229.754 157.856Z" fill="#455A64"/>
<path d="M229.754 165.051C229.754 165.167 216.029 165.266 199.125 165.266C182.222 165.266 168.455 165.167 168.455 165.051C168.455 164.935 182.18 164.836 199.125 164.836C216.071 164.836 229.754 164.944 229.754 165.051Z" fill="#455A64"/>
<path d="M216.303 172.27C216.303 172.386 205.583 172.485 192.363 172.485C179.143 172.485 168.422 172.386 168.422 172.27C168.422 172.154 179.134 172.055 192.363 172.055C205.591 172.055 216.303 172.154 216.303 172.27Z" fill="#455A64"/>
<path d="M185.177 193.676C185.177 193.792 167.164 193.891 144.945 193.891C122.727 193.891 104.714 193.792 104.714 193.676C104.714 193.56 122.727 193.461 144.945 193.461C167.164 193.461 185.177 193.552 185.177 193.676Z" fill="#455A64"/>
<path d="M185.177 199.68C185.177 199.804 167.164 199.895 144.945 199.895C122.727 199.895 104.714 199.804 104.714 199.68C104.714 199.556 122.727 199.465 144.945 199.465C167.164 199.465 185.177 199.564 185.177 199.68Z" fill="#455A64"/>
<path d="M185.177 205.688C185.177 205.804 167.164 205.903 144.945 205.903C122.727 205.903 104.714 205.804 104.714 205.688C104.714 205.572 122.727 205.473 144.945 205.473C167.164 205.473 185.177 205.564 185.177 205.688Z" fill="#455A64"/>
<path d="M185.177 211.688C185.177 211.812 167.164 211.903 144.945 211.903C122.727 211.903 104.714 211.812 104.714 211.688C104.714 211.564 122.727 211.473 144.945 211.473C167.164 211.473 185.177 211.572 185.177 211.688Z" fill="#455A64"/>
<path d="M185.177 217.7C185.177 217.816 167.164 217.915 144.945 217.915C122.727 217.915 104.714 217.816 104.714 217.7C104.714 217.584 122.727 217.484 144.945 217.484C167.164 217.484 185.177 217.584 185.177 217.7Z" fill="#455A64"/>
<path d="M154.159 122.262H104.714V170.101H154.159V122.262Z" fill="#FFD01F"/>
<path d="M108.547 166.014L122.231 141.395L133.414 157.123L140.211 148.77L150.326 166.014H108.547Z" fill="#E0E0E0"/>
<path d="M138.183 136.602C138.184 137.306 137.977 137.995 137.587 138.582C137.197 139.168 136.641 139.626 135.991 139.897C135.341 140.167 134.625 140.239 133.934 140.103C133.243 139.966 132.608 139.628 132.109 139.13C131.61 138.633 131.27 137.999 131.132 137.308C130.994 136.617 131.064 135.901 131.334 135.25C131.603 134.599 132.059 134.043 132.645 133.651C133.23 133.26 133.919 133.051 134.623 133.051C135.566 133.051 136.47 133.425 137.137 134.09C137.804 134.756 138.18 135.659 138.183 136.602Z" fill="#E0E0E0"/>
<path d="M150.326 166.146C150.326 166.146 150.326 166.072 150.326 165.948C150.326 165.824 150.326 165.625 150.326 165.393C150.326 164.88 150.326 164.16 150.326 163.241C150.326 161.337 150.326 158.597 150.277 155.112C150.277 148.125 150.219 138.175 150.177 126.229L150.376 126.428H108.605C108.547 126.478 109.044 125.989 108.837 126.205V131.61C108.837 133.398 108.837 135.178 108.837 136.933V147.239C108.837 153.944 108.837 160.277 108.837 166.105L108.63 165.898L138.836 165.997L147.355 166.055H149.615H150.202H150.409H150.227H149.664H147.446L138.969 166.113L108.63 166.213H108.423V166.006C108.423 160.211 108.423 153.845 108.423 147.14C108.423 143.79 108.423 140.355 108.423 136.834V126.072C108.207 126.279 108.704 125.774 108.663 125.824H150.434H150.641V126.031C150.6 138.026 150.567 148.026 150.542 155.045C150.542 158.506 150.5 161.237 150.492 163.125C150.492 164.027 150.492 164.781 150.492 165.236C150.492 165.459 150.492 165.633 150.492 165.774C150.486 165.915 150.427 166.048 150.326 166.146Z" fill="#455A64"/>
<path d="M231.27 187.031H196.278V220.889H231.27V187.031Z" fill="#FFD01F"/>
<path d="M198.993 217.991L208.67 200.574L216.592 211.708L221.402 205.789L228.554 217.991H198.993Z" fill="#E0E0E0"/>
<path d="M219.962 197.179C219.962 197.67 219.816 198.15 219.543 198.558C219.27 198.967 218.882 199.285 218.429 199.473C217.975 199.661 217.476 199.71 216.994 199.614C216.512 199.519 216.07 199.282 215.722 198.935C215.375 198.587 215.138 198.145 215.043 197.663C214.947 197.181 214.996 196.682 215.184 196.228C215.372 195.775 215.69 195.387 216.099 195.114C216.507 194.841 216.987 194.695 217.478 194.695C218.137 194.695 218.769 194.957 219.234 195.423C219.7 195.888 219.962 196.52 219.962 197.179Z" fill="#E0E0E0"/>
<path d="M228.554 218.079C228.554 218.079 228.554 218.03 228.554 217.947C228.554 217.864 228.554 217.715 228.554 217.55C228.554 217.185 228.554 216.722 228.554 216.026C228.554 214.685 228.554 212.715 228.554 210.232C228.554 205.265 228.513 198.245 228.48 189.793L228.621 189.934H199.059C199.018 189.934 199.374 189.619 199.225 189.777V197.376C199.225 199.859 199.225 202.29 199.225 204.669C199.225 209.412 199.225 213.891 199.225 218.013L199.084 217.873L220.376 218.03H226.402H228.008H228.563C228.563 218.03 228.521 218.03 228.438 218.03H228.041H226.468L220.467 218.071L199.002 218.146H198.853V217.997C198.853 213.858 198.853 209.396 198.853 204.652V189.884C198.704 190.025 199.059 189.669 199.026 189.71H228.587H228.736V189.851C228.736 198.344 228.679 205.414 228.662 210.381C228.662 212.864 228.662 214.768 228.621 216.101C228.621 216.747 228.621 217.243 228.621 217.599C228.621 217.757 228.621 217.881 228.621 217.98C228.621 218.079 228.563 218.088 228.554 218.079Z" fill="#455A64"/>
<path d="M566.282 75.9141H306.644C299.299 75.9141 293.345 81.8683 293.345 89.2132V251.897C293.345 259.242 299.299 265.196 306.644 265.196H566.282C573.627 265.196 579.581 259.242 579.581 251.897V89.2132C579.581 81.8683 573.627 75.9141 566.282 75.9141Z" fill="#263238"/>
<path d="M281.378 251.199H591.493V251.519C591.493 255.828 589.781 259.96 586.734 263.007C583.687 266.054 579.554 267.766 575.245 267.766H297.626C293.316 267.766 289.184 266.054 286.137 263.007C283.09 259.96 281.378 255.828 281.378 251.519V251.199Z" fill="#263238"/>
<path d="M571.101 83.4375H301.03V243.282H571.101V83.4375Z" fill="#E0E0E0"/>
<path d="M408.244 251.199L412.096 257.324H466.242L469.82 251.199H408.244Z" fill="#455A64"/>
<path d="M558.687 94.0898H310.039V243.228H558.687V94.0898Z" fill="#FAFAFA"/>
<path d="M320.655 101.437C320.656 101.85 320.535 102.255 320.307 102.6C320.078 102.945 319.752 103.215 319.371 103.374C318.989 103.534 318.568 103.577 318.162 103.497C317.756 103.417 317.383 103.219 317.09 102.927C316.796 102.635 316.596 102.263 316.515 101.857C316.434 101.451 316.474 101.03 316.632 100.648C316.79 100.265 317.058 99.9385 317.402 99.7084C317.746 99.4783 318.151 99.3555 318.564 99.3555C319.117 99.3555 319.647 99.5744 320.039 99.9644C320.431 100.354 320.652 100.884 320.655 101.437Z" fill="#455A64"/>
<path d="M329.162 101.437C329.164 101.851 329.042 102.256 328.813 102.601C328.584 102.946 328.258 103.216 327.876 103.375C327.493 103.534 327.072 103.577 326.666 103.496C326.26 103.416 325.887 103.217 325.594 102.924C325.301 102.631 325.102 102.258 325.021 101.851C324.941 101.445 324.983 101.024 325.142 100.642C325.302 100.259 325.571 99.9329 325.916 99.7039C326.261 99.475 326.667 99.3537 327.081 99.3555C327.633 99.3555 328.162 99.5747 328.552 99.965C328.943 100.355 329.162 100.885 329.162 101.437Z" fill="#455A64"/>
<path d="M337.678 101.437C337.68 101.85 337.559 102.255 337.33 102.6C337.102 102.945 336.776 103.215 336.394 103.374C336.012 103.534 335.592 103.577 335.186 103.497C334.78 103.417 334.406 103.219 334.113 102.927C333.82 102.635 333.62 102.263 333.538 101.857C333.457 101.451 333.498 101.03 333.656 100.648C333.814 100.265 334.082 99.9385 334.426 99.7084C334.769 99.4783 335.174 99.3555 335.588 99.3555C335.862 99.3543 336.133 99.4072 336.387 99.5113C336.641 99.6153 336.871 99.7684 337.065 99.9618C337.259 100.155 337.414 100.385 337.519 100.638C337.624 100.891 337.678 101.163 337.678 101.437Z" fill="#455A64"/>
<path d="M558.687 110.562C558.687 110.698 503.008 110.799 434.368 110.799C365.727 110.799 310.039 110.698 310.039 110.562C310.039 110.425 365.718 110.324 434.368 110.324C503.017 110.324 558.687 110.434 558.687 110.562Z" fill="#455A64"/>
<path d="M579.581 251.328H293.345V252.241H579.581V251.328Z" fill="#455A64"/>
<path d="M384.804 183.031H330.421V186.673H384.804V183.031Z" fill="#455A64"/>
<path d="M455.051 132.512H400.668V136.154H455.051V132.512Z" fill="#455A64"/>
<path d="M535.941 146.071C535.941 146.198 505.656 146.308 468.305 146.308C430.954 146.308 400.668 146.198 400.668 146.071C400.668 145.943 430.945 145.824 468.305 145.824C505.665 145.824 535.941 145.934 535.941 146.071Z" fill="#455A64"/>
<path d="M535.941 154.011C535.941 154.139 505.656 154.248 468.305 154.248C430.954 154.248 400.668 154.139 400.668 154.011C400.668 153.883 430.945 153.773 468.305 153.773C505.665 153.773 535.941 153.91 535.941 154.011Z" fill="#455A64"/>
<path d="M535.941 161.952C535.941 162.089 505.656 162.19 468.305 162.19C430.954 162.19 400.668 162.089 400.668 161.952C400.668 161.815 430.945 161.715 468.305 161.715C505.665 161.715 535.941 161.824 535.941 161.952Z" fill="#455A64"/>
<path d="M535.941 169.903C535.941 170.03 505.656 170.14 468.305 170.14C430.954 170.14 400.668 170.03 400.668 169.903C400.668 169.775 430.945 169.656 468.305 169.656C505.665 169.656 535.941 169.766 535.941 169.903Z" fill="#455A64"/>
<path d="M535.941 177.843C535.941 177.971 505.656 178.08 468.305 178.08C430.954 178.08 400.668 177.971 400.668 177.843C400.668 177.715 430.945 177.605 468.305 177.605C505.665 177.605 535.941 177.706 535.941 177.843Z" fill="#455A64"/>
<path d="M453.472 185.784C453.472 185.912 441.652 186.022 427.075 186.022C412.498 186.022 400.668 185.912 400.668 185.784C400.668 185.656 412.534 185.547 427.075 185.547C441.615 185.547 453.472 185.656 453.472 185.784Z" fill="#455A64"/>
<path d="M534.946 201.202C534.946 201.339 515.039 201.44 490.494 201.44C465.95 201.44 446.042 201.339 446.042 201.202C446.042 201.065 465.941 200.965 490.494 200.965C515.048 200.965 534.946 201.074 534.946 201.202Z" fill="#455A64"/>
<path d="M534.946 209.636C534.946 209.764 515.039 209.873 490.494 209.873C465.95 209.873 446.042 209.764 446.042 209.636C446.042 209.508 465.941 209.398 490.494 209.398C515.048 209.398 534.946 209.508 534.946 209.636Z" fill="#455A64"/>
<path d="M534.946 218.069C534.946 218.197 515.039 218.307 490.494 218.307C465.95 218.307 446.042 218.197 446.042 218.069C446.042 217.942 465.941 217.832 490.494 217.832C515.048 217.832 534.946 217.932 534.946 218.069Z" fill="#455A64"/>
<path d="M534.946 226.499C534.946 226.627 515.039 226.736 490.494 226.736C465.95 226.736 446.042 226.627 446.042 226.499C446.042 226.371 465.941 226.262 490.494 226.262C515.048 226.262 534.946 226.362 534.946 226.499Z" fill="#455A64"/>
<path d="M384.941 200.397C384.941 200.525 373.075 200.635 358.471 200.635C343.867 200.635 332 200.525 332 200.397C332 200.27 343.867 200.16 358.471 200.16C373.075 200.16 384.941 200.261 384.941 200.397Z" fill="#455A64"/>
<path d="M384.941 207.011C384.941 207.148 373.075 207.248 358.471 207.248C343.867 207.248 332 207.148 332 207.011C332 206.874 343.867 206.773 358.471 206.773C373.075 206.773 384.941 206.846 384.941 207.011Z" fill="#455A64"/>
<path d="M384.941 213.644C384.941 213.771 373.075 213.881 358.471 213.881C343.867 213.881 332 213.771 332 213.644C332 213.516 343.867 213.406 358.471 213.406C373.075 213.406 384.941 213.516 384.941 213.644Z" fill="#455A64"/>
<path d="M384.941 220.257C384.941 220.394 373.075 220.494 358.471 220.494C343.867 220.494 332 220.394 332 220.257C332 220.12 343.867 220.02 358.471 220.02C373.075 220.02 384.941 220.129 384.941 220.257Z" fill="#455A64"/>
<path d="M384.941 226.929C384.941 227.057 373.075 227.166 358.471 227.166C343.867 227.166 332 227.057 332 226.929C332 226.801 343.867 226.691 358.471 226.691C373.075 226.691 384.941 226.755 384.941 226.929Z" fill="#455A64"/>
<path d="M384.941 120.633H330.421V173.382H384.941V120.633Z" fill="#E0E0E0"/>
<path d="M334.648 168.861L349.736 141.715L362.067 159.067L369.57 149.857L380.715 168.861H334.648Z" fill="#FFD01F"/>
<path d="M367.325 136.437C367.325 137.213 367.095 137.972 366.663 138.617C366.232 139.263 365.619 139.766 364.902 140.063C364.185 140.36 363.395 140.438 362.634 140.286C361.873 140.135 361.173 139.761 360.624 139.212C360.076 138.663 359.702 137.964 359.55 137.202C359.399 136.441 359.477 135.652 359.774 134.935C360.071 134.217 360.574 133.604 361.219 133.173C361.865 132.742 362.624 132.512 363.4 132.512C364.441 132.512 365.439 132.925 366.175 133.661C366.911 134.397 367.325 135.396 367.325 136.437Z" fill="#FFD01F"/>
<path d="M380.715 169.008C380.711 168.938 380.711 168.868 380.715 168.798C380.715 168.634 380.715 168.433 380.715 168.177C380.715 167.621 380.715 166.826 380.715 165.804C380.715 163.714 380.715 160.693 380.651 156.85C380.651 149.146 380.587 138.174 380.542 124.994L380.761 125.222H334.702C334.638 125.277 335.186 124.729 334.958 124.967V136.833C334.958 140.703 334.958 144.5 334.958 148.197C334.958 155.581 334.958 162.564 334.958 168.99L334.73 168.771L368.037 168.88L377.438 168.944H379.93H380.797C380.797 168.944 380.733 168.944 380.596 168.944H379.976H377.529L368.183 169.008L334.73 169.117H334.51V168.889C334.51 162.5 334.51 155.481 334.51 148.096C334.51 144.4 334.51 140.602 334.51 136.732V124.866L334.775 124.602H380.834H381.062V124.821C381.062 138.056 380.971 149.073 380.943 156.813C380.943 160.638 380.943 163.641 380.888 165.722C380.888 166.726 380.888 167.502 380.888 168.059C380.888 168.305 380.888 168.497 380.888 168.643C380.888 168.789 380.724 169.017 380.715 169.008Z" fill="#455A64"/>
<path d="M439.215 197.176H400.632V234.508H439.215V197.176Z" fill="#E0E0E0"/>
<path d="M403.626 231.314L414.296 212.109L423.031 224.386L428.334 217.86L436.23 231.314H403.626Z" fill="#FFD01F"/>
<path d="M426.746 208.367C426.746 208.909 426.586 209.438 426.285 209.889C425.984 210.339 425.556 210.69 425.056 210.897C424.555 211.104 424.005 211.159 423.474 211.053C422.942 210.947 422.455 210.686 422.072 210.303C421.689 209.921 421.428 209.433 421.322 208.901C421.216 208.37 421.271 207.82 421.478 207.319C421.685 206.819 422.036 206.391 422.487 206.09C422.937 205.789 423.466 205.629 424.008 205.629C424.734 205.629 425.431 205.917 425.944 206.431C426.458 206.944 426.746 207.641 426.746 208.367Z" fill="#FFD01F"/>
<path d="M436.23 231.425C436.226 231.374 436.226 231.322 436.23 231.27C436.23 231.161 436.23 231.015 436.23 230.832C436.23 230.439 436.23 229.919 436.23 229.152C436.23 227.674 436.23 225.501 436.184 222.809C436.184 217.332 436.184 209.592 436.111 200.272L436.266 200.428H403.662C403.662 200.428 404.009 200.081 403.845 200.254V216.684C403.845 221.914 403.845 226.852 403.845 231.407L403.68 231.243L427.257 231.325L433.902 231.371H435.664H433.93H427.321L403.644 231.453H403.489V231.298C403.489 226.734 403.489 221.805 403.489 216.574C403.489 213.964 403.489 211.271 403.489 208.533V200.172C403.324 200.327 403.708 199.935 403.671 199.98H436.275H436.431V200.135C436.431 209.501 436.367 217.296 436.348 222.781C436.348 225.52 436.348 227.61 436.348 229.079C436.348 229.791 436.348 230.339 436.348 230.732C436.348 230.905 436.348 231.042 436.348 231.151C436.327 231.25 436.287 231.343 436.23 231.425Z" fill="#455A64"/>
</svg>
