<svg width="141" height="40" viewBox="0 0 141 40" fill="none" xmlns="http://www.w3.org/2000/svg">
<path d="M16.6501 39.9666C13.5701 39.9666 10.6184 39.5633 7.79506 38.7566C4.97173 37.9133 2.69839 36.8316 0.975059 35.5116L4.00006 28.8016C5.65006 29.975 7.59339 30.9466 9.83006 31.7166C12.1034 32.45 14.3951 32.8166 16.7051 32.8166C18.4651 32.8166 19.8767 32.6516 20.9401 32.3216C22.0401 31.955 22.8467 31.46 23.3601 30.8366C23.8734 30.2133 24.1301 29.4983 24.1301 28.6916C24.1301 27.665 23.7267 26.8583 22.9201 26.2716C22.1134 25.6483 21.0501 25.1533 19.7301 24.7866C18.4101 24.3833 16.9434 24.0166 15.3301 23.6866C13.7534 23.32 12.1584 22.88 10.5451 22.3666C8.96839 21.8533 7.52006 21.1933 6.20006 20.3866C4.88006 19.58 3.79839 18.5166 2.95506 17.1966C2.14839 15.8766 1.74506 14.19 1.74506 12.1366C1.74506 9.93664 2.33173 7.93831 3.50506 6.14164C4.71506 4.3083 6.51173 2.85997 8.89506 1.79664C11.3151 0.696639 14.3401 0.14664 17.9701 0.14664C20.3901 0.14664 22.7734 0.439973 25.1201 1.02664C27.4667 1.57664 29.5384 2.41997 31.3351 3.55664L28.5851 10.3216C26.7884 9.29497 24.9917 8.54331 23.1951 8.06664C21.3984 7.55331 19.6384 7.29664 17.9151 7.29664C16.1917 7.29664 14.7801 7.49831 13.6801 7.90164C12.5801 8.30497 11.7917 8.83664 11.3151 9.49664C10.8384 10.12 10.6001 10.8533 10.6001 11.6966C10.6001 12.6866 11.0034 13.4933 11.8101 14.1166C12.6167 14.7033 13.6801 15.18 15.0001 15.5466C16.3201 15.9133 17.7684 16.28 19.3451 16.6466C20.9584 17.0133 22.5534 17.435 24.1301 17.9116C25.7434 18.3883 27.2101 19.03 28.5301 19.8366C29.8501 20.6433 30.9134 21.7066 31.7201 23.0266C32.5634 24.3466 32.9851 26.015 32.9851 28.0316C32.9851 30.195 32.3801 32.175 31.1701 33.9716C29.9601 35.7683 28.1451 37.2166 25.7251 38.3166C23.3417 39.4166 20.3167 39.9666 16.6501 39.9666ZM52.5483 39.7466C49.395 39.7466 46.59 39.0866 44.1333 37.7666C41.7133 36.4466 39.7883 34.65 38.3583 32.3766C36.965 30.0666 36.2683 27.445 36.2683 24.5116C36.2683 21.5416 36.965 18.92 38.3583 16.6466C39.7883 14.3366 41.7133 12.54 44.1333 11.2566C46.59 9.93664 49.395 9.27664 52.5483 9.27664C55.665 9.27664 58.4516 9.93664 60.9083 11.2566C63.365 12.54 65.29 14.3183 66.6833 16.5916C68.0766 18.865 68.7733 21.505 68.7733 24.5116C68.7733 27.445 68.0766 30.0666 66.6833 32.3766C65.29 34.65 63.365 36.4466 60.9083 37.7666C58.4516 39.0866 55.665 39.7466 52.5483 39.7466ZM52.5483 32.7066C53.9783 32.7066 55.2616 32.3766 56.3983 31.7166C57.535 31.0566 58.4333 30.1216 59.0933 28.9116C59.7533 27.665 60.0833 26.1983 60.0833 24.5116C60.0833 22.7883 59.7533 21.3216 59.0933 20.1116C58.4333 18.9016 57.535 17.9666 56.3983 17.3066C55.2616 16.6466 53.9783 16.3166 52.5483 16.3166C51.1183 16.3166 49.835 16.6466 48.6983 17.3066C47.5616 17.9666 46.645 18.9016 45.9483 20.1116C45.2883 21.3216 44.9583 22.7883 44.9583 24.5116C44.9583 26.1983 45.2883 27.665 45.9483 28.9116C46.645 30.1216 47.5616 31.0566 48.6983 31.7166C49.835 32.3766 51.1183 32.7066 52.5483 32.7066ZM88.5883 39.7466C85.435 39.7466 82.63 39.0866 80.1733 37.7666C77.7533 36.4466 75.8283 34.65 74.3983 32.3766C73.005 30.0666 72.3083 27.445 72.3083 24.5116C72.3083 21.5416 73.005 18.92 74.3983 16.6466C75.8283 14.3366 77.7533 12.54 80.1733 11.2566C82.63 9.93664 85.435 9.27664 88.5883 9.27664C91.705 9.27664 94.4917 9.93664 96.9483 11.2566C99.405 12.54 101.33 14.3183 102.723 16.5916C104.117 18.865 104.813 21.505 104.813 24.5116C104.813 27.445 104.117 30.0666 102.723 32.3766C101.33 34.65 99.405 36.4466 96.9483 37.7666C94.4917 39.0866 91.705 39.7466 88.5883 39.7466ZM88.5883 32.7066C90.0183 32.7066 91.3017 32.3766 92.4383 31.7166C93.575 31.0566 94.4733 30.1216 95.1333 28.9116C95.7933 27.665 96.1233 26.1983 96.1233 24.5116C96.1233 22.7883 95.7933 21.3216 95.1333 20.1116C94.4733 18.9016 93.575 17.9666 92.4383 17.3066C91.3017 16.6466 90.0183 16.3166 88.5883 16.3166C87.1583 16.3166 85.875 16.6466 84.7383 17.3066C83.6017 17.9666 82.685 18.9016 81.9883 20.1116C81.3283 21.3216 80.9983 22.7883 80.9983 24.5116C80.9983 26.1983 81.3283 27.665 81.9883 28.9116C82.685 30.1216 83.6017 31.0566 84.7383 31.7166C85.875 32.3766 87.1583 32.7066 88.5883 32.7066ZM128.533 9.27664C130.88 9.27664 132.97 9.75331 134.803 10.7066C136.673 11.6233 138.14 13.0533 139.203 14.9966C140.267 16.9033 140.798 19.36 140.798 22.3666V39.3066H132.218V23.6866C132.218 21.3033 131.687 19.5433 130.623 18.4066C129.597 17.27 128.13 16.7016 126.223 16.7016C124.867 16.7016 123.638 16.995 122.538 17.5816C121.475 18.1316 120.632 18.9933 120.008 20.1666C119.422 21.34 119.128 22.8433 119.128 24.6766V39.3066H110.548V9.71664H118.743V17.9116L117.203 15.4366C118.267 13.4566 119.788 11.935 121.768 10.8716C123.748 9.80831 126.003 9.27664 128.533 9.27664Z" fill="black" fill-opacity="0.8"/>
</svg>
